<?xml version="1.0" encoding="utf-8"?>
<!-- Generator: Adobe Illustrator 26.0.1, SVG Export Plug-In . SVG Version: 6.00 Build 0)  -->
<svg version="1.1" id="レイヤー_1" xmlns="http://www.w3.org/2000/svg" xmlns:xlink="http://www.w3.org/1999/xlink" x="0px"
	 y="0px" viewBox="0 0 34.6 34.6" style="enable-background:new 0 0 34.6 34.6;" xml:space="preserve">
<style type="text/css">
	.st0{fill:#FFFFFF;}
</style>
<path class="st0" d="M17.3,0C7.7,0,0,7.7,0,17.3s7.7,17.3,17.3,17.3c9.6,0,17.3-7.7,17.3-17.3c0,0,0,0,0,0C34.6,7.7,26.8,0,17.3,0
	 M17.3,32.5c-8.4,0-15.2-6.8-15.2-15.2S8.9,2.1,17.3,2.1c8.4,0,15.2,6.8,15.2,15.2v0C32.5,25.7,25.7,32.5,17.3,32.5"/>
<rect x="12.3" y="16" class="st0" width="10" height="2.4"/>
<rect x="12.3" y="12.1" class="st0" width="10" height="2.4"/>
<path class="st0" d="M32.4,15.6l-1.6-1.6L29,15.7L18.9,5.6l1.7-1.8L19,2.2L17.3,4l-1.7-1.7l-1.6,1.6l1.7,1.8L5.6,15.7l-1.8-1.7
	l-1.6,1.6L4,17.3L2.2,19l1.6,1.6l1.8-1.7L15.7,29l-1.7,1.8l1.6,1.6l1.7-1.7l1.7,1.7l1.6-1.6L18.9,29L29,18.9l1.8,1.7l1.6-1.6
	l-1.7-1.7L32.4,15.6z M17.3,27.4l-5-5h10L17.3,27.4z M22.3,22.4V20h-10v2.4l-5.1-5.1l5.1-5.1l5-5l10.1,10.1L22.3,22.4z"/>
</svg>
