<?xml version="1.0" encoding="utf-8"?>
<!-- Generator: Adobe Illustrator 26.1.0, SVG Export Plug-In . SVG Version: 6.00 Build 0)  -->
<svg version="1.1" id="レイヤー_1" xmlns="http://www.w3.org/2000/svg" xmlns:xlink="http://www.w3.org/1999/xlink" x="0px"
	 y="0px" viewBox="0 0 404.9 38.8" style="enable-background:new 0 0 404.9 38.8;" xml:space="preserve">
<style type="text/css">
	.st0{fill:#085AA4;}
</style>
<g id="繧_繝_繝_繝誉1735">
	<g id="繧_繝_繝_繝誉1734">
		<path id="繝代せ_784" class="st0" d="M19.4,0C8.7,0,0,8.7,0,19.4s8.7,19.4,19.4,19.4s19.4-8.7,19.4-19.4l0,0l0,0
			C38.8,8.7,30.1,0,19.4,0L19.4,0 M19.4,36.4c-9.4,0.1-17.1-7.6-17.2-17s7.6-17.1,17-17.2c9.4-0.1,17.1,7.6,17.2,17v0.2
			C36.3,28.8,28.8,36.3,19.4,36.4L19.4,36.4"/>
		<rect id="髟_譁_蠖__1573" x="13.8" y="18" class="st0" width="11.2" height="2.7"/>
		<rect id="髟_譁_蠖__1574" x="13.8" y="13.6" class="st0" width="11.2" height="2.7"/>
		<path id="繝代せ_785" class="st0" d="M36.3,17.4l-1.8-1.8l-2,1.9L21.2,6.2l1.9-2l-1.7-1.7l-2,1.9l-2-1.9l-1.8,1.7l1.9,2
			L6.2,17.5l-2-1.9l-1.7,1.8l1.9,2l-1.9,2l1.7,1.7l2-1.9l11.3,11.3l-1.9,2l1.8,1.8l2-2l2,2l1.7-1.8l-1.9-2l11.3-11.3l2,1.9l1.8-1.7
			l-2-2L36.3,17.4z M19.4,30.7l-5.6-5.6H25L19.4,30.7z M25,25.1v-2.7H13.8v2.7l-5.7-5.7l5.7-5.8l5.6-5.5l11.3,11.3L25,25.1z"/>
	</g>
</g>
<path class="st0" d="M54.6,10.7L59,23l4.3-12.3h4.5v16.9h-3.5V23l0.4-7.9l-4.6,12.5h-2.4l-4.5-12.5l0.3,7.9v4.6h-3.4V10.7H54.6z"/>
<path class="st0" d="M74.6,27.6h-3.5V10.7h3.5V27.6z"/>
<path class="st0" d="M90.5,13.6h-5.2v14h-3.4v-14h-5.1v-2.9h13.7V13.6z"/>
<path class="st0" d="M101.3,23.2c0-0.6-0.3-1.1-0.7-1.5c-0.8-0.5-1.6-0.9-2.5-1.1c-1-0.3-2-0.7-2.9-1.2c-1.9-1-2.9-2.4-2.9-4.2
	c0-0.9,0.3-1.7,0.8-2.4c0.5-0.8,1.3-1.4,2.2-1.7c1.1-0.4,2.2-0.6,3.3-0.6c1.1,0,2.2,0.2,3.2,0.7c0.9,0.4,1.7,1,2.2,1.8
	c0.5,0.8,0.8,1.7,0.8,2.7h-3.5c0-0.7-0.3-1.3-0.8-1.8c-0.6-0.5-1.3-0.7-2-0.6c-0.7,0-1.4,0.1-2,0.5c-0.4,0.3-0.7,0.8-0.7,1.4
	c0,0.6,0.3,1.1,0.8,1.4c0.8,0.5,1.6,0.8,2.5,1.1c1.6,0.4,3.1,1.1,4.3,2.2c0.9,0.9,1.4,2.1,1.4,3.3c0,1.3-0.6,2.6-1.7,3.4
	c-1.3,0.9-2.9,1.4-4.5,1.3c-1.2,0-2.4-0.2-3.5-0.7c-1-0.4-1.9-1.1-2.5-2c-0.5-0.9-0.8-1.9-0.8-2.9h3.5c0,1.9,1.1,2.8,3.3,2.8
	c0.7,0.1,1.4-0.1,2-0.5C101,24.3,101.3,23.8,101.3,23.2z"/>
<path class="st0" d="M119.9,10.7v11.2c0.1,1.6-0.6,3.2-1.7,4.4c-1.4,1.1-3.1,1.7-4.8,1.6c-1.7,0.1-3.4-0.5-4.7-1.6
	c-1.2-1.1-1.8-2.7-1.7-4.3V10.7h3.4v11.2c-0.1,0.9,0.2,1.7,0.8,2.4c0.6,0.5,1.4,0.8,2.2,0.8c2,0,3-1.1,3-3.1V10.7H119.9z"/>
<path class="st0" d="M126.5,27.6H123V10.7h3.5V27.6z"/>
<path class="st0" d="M148.9,22c-0.1,1.7-0.8,3.2-2.1,4.3c-1.3,1.1-3,1.7-4.7,1.6c-2,0.1-3.9-0.7-5.2-2.2c-1.3-1.7-1.9-3.9-1.8-6
	v-1.1c0-1.4,0.3-2.9,0.8-4.2c0.5-1.2,1.4-2.2,2.5-2.9c1.1-0.7,2.4-1,3.7-1c1.7-0.1,3.4,0.5,4.7,1.6c1.3,1.1,2,2.7,2.1,4.4h-3.5
	c0-0.9-0.3-1.7-0.9-2.4c-0.7-0.5-1.5-0.8-2.4-0.7c-1-0.1-2,0.4-2.6,1.2c-0.7,1.2-1,2.5-0.9,3.9v1.3c-0.1,1.4,0.2,2.8,0.8,4
	c0.7,0.8,1.7,1.3,2.7,1.2c0.9,0.1,1.7-0.2,2.4-0.7c0.6-0.6,0.9-1.5,0.9-2.3H148.9z"/>
<path class="st0" d="M165,19.6c0,1.5-0.3,3-0.9,4.4c-0.5,1.2-1.4,2.2-2.5,2.9c-1.1,0.6-2.4,1-3.7,1c-1.3,0-2.6-0.4-3.8-1
	c-1.1-0.7-1.9-1.7-2.5-2.9c-0.7-1.3-1-2.8-1-4.3v-0.9c0-1.5,0.3-3,0.9-4.4c0.6-1.2,1.5-2.2,2.6-2.9c1.1-0.6,2.4-1,3.7-1
	c1.3,0,2.6,0.4,3.8,1c1.1,0.7,1.9,1.7,2.5,2.9c0.6,1.4,0.9,2.9,0.9,4.4V19.6z M161.5,18.8c0.1-1.4-0.2-2.8-1-4
	c-1-1.5-3.1-1.9-4.6-0.8c-0.3,0.2-0.6,0.5-0.8,0.8c-0.7,1.2-1,2.6-0.9,4v0.8c-0.1,1.4,0.2,2.8,0.9,4c0.6,0.9,1.7,1.5,2.8,1.4
	c1.1,0.1,2.1-0.5,2.6-1.4c0.8-1.2,1.1-2.6,1-4L161.5,18.8z"/>
<path class="st0" d="M181.3,27.6h-3.5L171,16.5v11.1h-3.4V10.7h3.4l6.8,11.2V10.7h3.5V27.6z"/>
<path class="st0" d="M193.1,23.2c0-0.6-0.2-1.2-0.7-1.5c-0.8-0.5-1.6-0.9-2.5-1.1c-1-0.3-2-0.7-2.9-1.2c-1.9-1-2.9-2.4-2.9-4.2
	c0-0.9,0.3-1.7,0.8-2.4c0.6-0.7,1.3-1.3,2.2-1.7c1.1-0.4,2.2-0.6,3.3-0.6c1.1,0,2.2,0.2,3.2,0.7c0.9,0.4,1.7,1,2.2,1.8
	c0.5,0.8,0.8,1.7,0.8,2.7h-3.5c0-0.7-0.2-1.3-0.7-1.8c-0.6-0.4-1.4-0.6-2.1-0.6c-0.7,0-1.4,0.2-2,0.5c-0.4,0.4-0.7,0.9-0.7,1.4
	c0,0.6,0.3,1.2,0.9,1.4c0.7,0.5,1.6,0.9,2.4,1.1c1.6,0.4,3.1,1.1,4.3,2.2c0.9,0.9,1.4,2.1,1.4,3.3c0,1.3-0.6,2.6-1.7,3.4
	c-1.3,0.9-2.8,1.4-4.4,1.3c-1.2,0-2.5-0.3-3.6-0.7c-1-0.4-1.8-1.1-2.4-2c-0.6-0.8-0.9-1.9-0.9-2.9h3.5c0,1.9,1.1,2.8,3.4,2.8
	c0.7,0.1,1.3-0.1,1.9-0.5C192.9,24.3,193.1,23.8,193.1,23.2z"/>
<path class="st0" d="M211.7,10.7v11.2c0.1,1.6-0.6,3.2-1.7,4.4c-1.3,1.1-3.1,1.7-4.8,1.6c-1.7,0.1-3.4-0.5-4.7-1.6
	c-1.2-1.1-1.8-2.7-1.7-4.3V10.7h3.5v11.2c-0.1,0.9,0.2,1.7,0.7,2.4c0.6,0.5,1.4,0.8,2.2,0.8c2,0,3-1.1,3-3.1V10.7H211.7z"/>
<path class="st0" d="M218.1,24.8h7.3v2.8h-10.8V10.7h3.5V24.8z"/>
<path class="st0" d="M240.2,13.6H235v14h-3.5v-14h-5.1v-2.9h13.8V13.6z"/>
<path class="st0" d="M251.7,24.2h-6.1l-1.2,3.4h-3.7l6.3-16.9h3.2l6.4,16.9h-3.7L251.7,24.2z M246.5,21.3h4.2l-2.1-6.3L246.5,21.3z"
	/>
<path class="st0" d="M271.9,27.6h-3.5l-6.8-11.1v11.1h-3.5V10.7h3.5l6.8,11.2V10.7h3.5V27.6z"/>
<path class="st0" d="M287.6,13.6h-5.1v14H279v-14h-5.1v-2.9h13.7V13.6z"/>
<path class="st0" d="M298.4,23.2c0-0.6-0.3-1.1-0.7-1.5c-0.8-0.5-1.6-0.9-2.5-1.1c-1-0.3-2-0.7-2.9-1.2c-1.9-1-2.9-2.4-2.9-4.2
	c0-0.9,0.3-1.7,0.8-2.4c0.5-0.8,1.3-1.4,2.2-1.7c1.1-0.4,2.2-0.6,3.3-0.6c1.1,0,2.2,0.2,3.2,0.7c0.9,0.4,1.7,1,2.2,1.8
	c0.5,0.8,0.8,1.7,0.8,2.7h-3.5c0-0.7-0.3-1.3-0.7-1.8c-0.6-0.4-1.4-0.6-2.1-0.6c-0.7,0-1.4,0.1-2,0.5c-0.4,0.3-0.7,0.8-0.7,1.4
	c0,0.6,0.3,1.1,0.8,1.4c0.8,0.5,1.6,0.8,2.5,1.1c1.6,0.4,3.1,1.1,4.3,2.2c0.9,0.9,1.4,2.1,1.4,3.3c0,1.3-0.6,2.6-1.7,3.4
	c-1.3,0.9-2.9,1.4-4.5,1.3c-1.2,0-2.4-0.3-3.5-0.7c-1-0.4-1.9-1.1-2.5-2c-0.5-0.9-0.8-1.9-0.8-2.9h3.5c0,1.9,1.1,2.8,3.3,2.8
	c0.7,0.1,1.4-0.1,2-0.5C298.1,24.3,298.4,23.8,298.4,23.2z"/>
<path class="st0" d="M323.4,22c0,1.6-0.8,3.2-2,4.3c-1.3,1.1-3.1,1.7-4.8,1.6c-1.9,0.1-3.8-0.7-5.1-2.2c-1.4-1.7-2-3.8-1.9-6v-1.1
	c0-1.5,0.3-2.9,0.9-4.2c0.5-1.2,1.4-2.2,2.4-2.9c1.1-0.7,2.4-1,3.7-1c1.7-0.1,3.5,0.5,4.8,1.6c1.2,1.2,1.9,2.7,2,4.4h-3.5
	c0.1-0.9-0.3-1.8-0.9-2.4c-0.7-0.5-1.5-0.8-2.4-0.7c-1,0-2,0.4-2.6,1.2c-0.6,1.2-0.9,2.6-0.8,3.9v1.3c-0.1,1.4,0.2,2.8,0.8,4
	c0.6,0.8,1.6,1.3,2.6,1.2c0.9,0.1,1.7-0.2,2.4-0.7c0.6-0.6,0.9-1.5,0.9-2.3H323.4z"/>
<path class="st0" d="M339.6,19.6c0,1.5-0.3,3-0.9,4.4c-0.6,1.2-1.4,2.2-2.5,2.9c-2.4,1.3-5.2,1.3-7.6,0c-1.1-0.7-1.9-1.7-2.5-2.9
	c-0.6-1.3-0.9-2.8-0.9-4.3v-0.9c0-1.5,0.3-3,0.9-4.4c0.6-1.2,1.4-2.2,2.5-2.9c1.2-0.6,2.5-1,3.8-1c1.3,0,2.6,0.4,3.7,1
	c1.1,0.7,2,1.7,2.6,2.9c0.6,1.4,0.9,2.9,0.9,4.4V19.6z M336,18.8c0.1-1.4-0.2-2.8-0.9-4c-0.6-0.9-1.6-1.4-2.7-1.4
	c-1.1-0.1-2.1,0.5-2.7,1.4c-0.8,1.2-1.1,2.6-1,4v0.8c-0.1,1.4,0.3,2.8,1,4c0.6,0.9,1.6,1.4,2.7,1.4c1.1,0.1,2.1-0.5,2.7-1.4
	c0.7-1.2,1-2.6,0.9-4V18.8z"/>
<path class="st0" d="M342,26c0-0.5,0.2-1,0.6-1.3c0.4-0.3,0.8-0.5,1.3-0.5c0.5,0,1,0.2,1.4,0.5c0.4,0.3,0.6,0.8,0.5,1.3
	c0,0.5-0.2,1-0.5,1.3c-0.4,0.3-0.9,0.5-1.4,0.5c-0.5,0-0.9-0.2-1.3-0.5C342.2,27,342,26.5,342,26z"/>
<path class="st0" d="M400.3,26c0-0.5,0.2-1,0.6-1.3c0.4-0.3,0.8-0.5,1.3-0.5c0.5,0,1,0.2,1.4,0.5c0.4,0.3,0.6,0.8,0.5,1.3
	c0,0.5-0.2,1-0.5,1.3c-0.4,0.3-0.9,0.5-1.4,0.5c-0.5,0-0.9-0.2-1.3-0.5C400.5,27,400.3,26.5,400.3,26z"/>
<path class="st0" d="M349.6,31.9l-1.7-0.9l0.4-0.8c0.5-0.9,0.8-1.8,0.8-2.8v-2.6h2.8v2.3C351.9,29,351,30.7,349.6,31.9L349.6,31.9z"
	/>
<path class="st0" d="M361.3,24.8h7.4v2.8h-10.9V10.7h3.5V24.8z"/>
<path class="st0" d="M383.4,13.6h-5.2v14h-3.5v-14h-5.1v-2.9h13.8L383.4,13.6z"/>
<path class="st0" d="M385.4,27.6V10.7h5.2c1.4,0,2.7,0.4,3.9,1.1c1.2,0.6,2.2,1.6,2.8,2.8c0.7,1.3,1,2.7,1,4.2v0.8
	c0,1.5-0.3,2.9-1,4.2c-0.6,1.2-1.6,2.1-2.7,2.8c-1.2,0.7-2.6,1-4,1L385.4,27.6z M388.8,13.6v11.2h1.7c1.2,0.1,2.3-0.4,3.1-1.3
	c0.8-1.1,1.2-2.4,1.1-3.8v-0.9c0.1-1.4-0.2-2.7-1-3.9c-0.8-0.9-1.9-1.4-3.1-1.3L388.8,13.6z"/>
</svg>
