<svg xmlns="http://www.w3.org/2000/svg" viewBox="0 0 110 140.4"><g id="レイヤー_2" data-name="レイヤー 2"><g id="レイヤー_1-2" data-name="レイヤー 1"><path d="M23.6,133v4.6c1.1,1.6,3.1,1.6,5.6,1.6h4.4a2.9,2.9,0,0,0-.3,1H29.4c-2.9,0-4.8,0-6.2-1.7l-2.1,1.7c0,.2,0,.2-.1.2l-.6-1a26.8,26.8,0,0,0,2.3-1.7v-3.7H20.6V133Zm-2.1-5.3a14,14,0,0,1,2.5,2.2l-.7.7a11.2,11.2,0,0,0-2.5-2.3Zm4,3.7h2.4l.3-1.2H24.3v-.8h2.5a5,5,0,0,0-1-1.7l.8-.3a8.2,8.2,0,0,1,1.1,1.7l-.6.3h3l-.4-.2a17.4,17.4,0,0,0,1.1-1.8l1.1.3h-.3l-1.1,1.6h2.8v.8H29.1l-.3,1.2h3.3v6.9h-.9v-.4H26.4v.4h-.9Zm5.7,1.9v-1.1H26.4v1.1Zm-4.8.7v1.2h4.8V134Zm0,3.1h4.8v-1.2H26.4Z"/><path d="M45.9,128.8l.7.3-.2.2a9.8,9.8,0,0,1-2,3.6,9.6,9.6,0,0,0,3.3,2.2,2.4,2.4,0,0,0-.6.8l-.6-.3v4.7h-.9v-.5H41.9v.6H41v-4.7l-.9.5a2.4,2.4,0,0,0-.6-.8l.4-.2H38V138l2.3-.6v.8L35,139.6c0,.1,0,.2-.1.2l-.4-1,.7-.2v-4.9H36v4.5l1.1-.2v-5.9H35.2V128h4.5v3.8a11.3,11.3,0,0,0,2.7-4.4l1.1.3h-.3a10.4,10.4,0,0,1-.4,1h3.1Zm-9.9,0v2.7h2.9v-2.7Zm4.1,5.6v.8a11.4,11.4,0,0,0,3.1-2.3,13.5,13.5,0,0,1-1.4-2.2,6.5,6.5,0,0,1-1.5,1.8l-.6-.5v.3H38v2.1Zm5.9.9a12.4,12.4,0,0,1-2.2-1.8,11.8,11.8,0,0,1-2.1,1.8ZM41.9,139h3.7v-2.9H41.9Zm.4-9.1a6.5,6.5,0,0,0,1.5,2.3,10.4,10.4,0,0,0,1.5-2.5H42.4Z"/><path d="M56.4,133.9a1.4,1.4,0,1,1-2.8,0,1.4,1.4,0,1,1,2.8,0Z"/><path d="M65.5,131.4v1.1a25.6,25.6,0,0,1,1.6,2.5l-.5.7a22.1,22.1,0,0,0-1.1-2.1v6.8h-.9v-6.8a20.3,20.3,0,0,1-1.7,4.1c-.1-.3-.4-.6-.5-.9a16.9,16.9,0,0,0,2.1-5.4H62.7v-.9h1.9v-3.1h1.2c-.1.1-.1.2-.3.2v2.9h1.6v.9Zm9.8-.9H73a6.7,6.7,0,0,0,2.7,2.3,1.4,1.4,0,0,0-.6.7,6.1,6.1,0,0,1-1.6-1.2v1.8H69v-1.8a6.1,6.1,0,0,1-1.6,1.2l-.6-.6a6.8,6.8,0,0,0,2.6-2.4H67.2v-.7h2.7a10.4,10.4,0,0,1,.4-1H67.7a1.9,1.9,0,0,0-.2-.7,29,29,0,0,0,6.4-.6l.7.7h-.2l-3,.4c0,.1-.1.2-.3.2l-.3.9h4.5Zm-.2,4.3v4.6c0,.9-.4,1-2.3,1a1.9,1.9,0,0,0-.3-.8h1.1c.6,0,.6,0,.6-.2v-3.9H68.3v4.9h-.9v-5.6Zm-2,4.2h-3v.6h-.7v-3.3h3.7Zm-.4-7.5-.6-1H70.4l-.6,1Zm0,1.9v-1.3H69.8v1.3Zm-.4,3.6H70.1v1.3h2.2Z"/><path d="M89.3,136.3h-5a13.1,13.1,0,0,0,5.3,3,2.7,2.7,0,0,0-.7.8,13.3,13.3,0,0,1-5.4-3.5v3.8h-1v-3.9a14.5,14.5,0,0,1-5.4,3.7,2.7,2.7,0,0,0-.7-.8,13.6,13.6,0,0,0,5.2-3.1H76.7v-.9h5.8v-1.2h1.2l-.2.2v.9h5.8ZM77,129.1l2.1.9-.5.8a8.2,8.2,0,0,0-2.1-1.1Zm-.1,4.7a21.1,21.1,0,0,0,2.2-2.6l.6.5c-.6.9-1.4,1.8-1.9,2.5h0v.2Zm.9-6.4a10.2,10.2,0,0,1,2.1.9l-.4.7a10.2,10.2,0,0,0-2.1-1Zm4.1,2.4a4.8,4.8,0,0,1-1.7,2.7l-.6-.5a4.4,4.4,0,0,0,1.6-2.5ZM87,128v.3c-.2,3.7-.4,4.9-.7,5.3s-.5.4-1.4.4h-.8a2.4,2.4,0,0,0-.2-.8h1.6c.2-.3.4-1.4.6-4.3H84.3c-.3,2.8-1.3,4.6-3.5,5.6l-.6-.7c2-.8,2.9-2.4,3.2-4.9H81.3V128H87Zm.8,1.3a11.6,11.6,0,0,1,1.8,3.2l-.8.4a9.9,9.9,0,0,0-1.8-3.3Z"/><rect width="110" height="110" style="fill:none"/><rect y="10" width="110" height="90" style="fill:none"/><path d="M2.5,77A2.1,2.1,0,0,1,.7,75.9a2.1,2.1,0,0,1,.9-2.7l10.7-5.7L24.2,27.6l-5-5.9a1.9,1.9,0,0,1,.2-2.8,1.9,1.9,0,0,1,2.8.2l5.7,6.7a2.2,2.2,0,0,1,.4,1.9L15.9,69.4a2.2,2.2,0,0,1-.9,1.2L3.4,76.8Z" style="fill:#0a6ab0"/><path d="M107.5,77l-.9-.2L95,70.6a2.2,2.2,0,0,1-.9-1.2L81.7,27.7a2.2,2.2,0,0,1,.4-1.9l5.7-6.7a2,2,0,1,1,3,2.6l-5,5.9L97.7,67.5l10.7,5.7a2.1,2.1,0,0,1,.9,2.7A2.1,2.1,0,0,1,107.5,77Z" style="fill:#0a6ab0"/><path d="M92.2,102.1a2.1,2.1,0,0,1-1.9-1.4L83.1,76.4a1.4,1.4,0,0,1,0-.9L63.9,10.7a1.9,1.9,0,0,1,1.3-2.5,2,2,0,0,1,2.5,1.3L87.2,75.2a2.7,2.7,0,0,1,0,.9l7,23.4a2,2,0,0,1-1.4,2.5Z" style="fill:#0a6ab0"/><path d="M17.7,102.1h-.6a2,2,0,0,1-1.3-2.5l26.7-90a2,2,0,0,1,3.8,1.2l-26.7,90A2,2,0,0,1,17.7,102.1Z" style="fill:#0a6ab0"/><path d="M55,67.9a.9.9,0,0,1-1-1V10.1a.9.9,0,0,1,1-1,1,1,0,0,1,1,1V66.9A1,1,0,0,1,55,67.9Z" style="fill:#0a6ab0"/><path d="M55,101.1a.9.9,0,0,1-1-1V79.7a1,1,0,0,1,1-1,1.1,1.1,0,0,1,1,1v20.4A1,1,0,0,1,55,101.1Z" style="fill:#0a6ab0"/></g></g></svg>