<svg xmlns="http://www.w3.org/2000/svg" viewBox="0 0 110 140.4"><g id="レイヤー_2" data-name="レイヤー 2"><g id="レイヤー_1-2" data-name="レイヤー 1"><path d="M43.4,132.3a14.6,14.6,0,0,1-1.7,2.4,7.3,7.3,0,0,0-.5-.9,19.9,19.9,0,0,0,3.5-6.3l1.1.4h-.3c-.4,1-.8,1.9-1.3,2.9h.1v9.3h-.9Zm11,3H51a10.3,10.3,0,0,0,3.8,3.7l-.7.8a13,13,0,0,1-3.7-4v4.6h-1v-4.6a11.5,11.5,0,0,1-3.9,4l-.7-.8a10.1,10.1,0,0,0,4-3.7H45.2v-.9h4.2v-1.6H46.3V128h7.3v4.8H50.4v1.6h4Zm-7.2-6.4v3h5.5v-3Z"/><path d="M62.8,127.4c0,.1-.1.2-.3.2a18.9,18.9,0,0,0,6.1,5.1,1.6,1.6,0,0,0-.6.8,24,24,0,0,1-6.1-5.2,18.8,18.8,0,0,1-5.8,5.3l-.6-.7a16.8,16.8,0,0,0,5.9-5.6Zm-.3,9.3v2.4h5.6v.9H56v-.9h5.5v-2.4H57.2v-.9h4.3v-2.3H57.8v-.9h8.5v.9H62.5v2.3h4.3v.9Z"/><rect width="110" height="110" style="fill:none"/><path d="M27.8,52.3A24.6,24.6,0,0,1,5.7,16.8a1.9,1.9,0,0,1,1.5-1.1,2.1,2.1,0,0,1,1.7.5L21.8,29.1h4.7l2.7-2.8V21.2L16.6,8.6a2.1,2.1,0,0,1-.5-1.7,1.9,1.9,0,0,1,1.1-1.5A24.6,24.6,0,0,1,51.1,35.5L57,41.4a2,2,0,0,1-2.8,2.8l-6.8-6.8a1.9,1.9,0,0,1-.5-2.1A20.7,20.7,0,0,0,42.4,13,21,21,0,0,0,21.6,7.9L32.6,19a2,2,0,0,1,.6,1.4v6.8a2,2,0,0,1-.6,1.4l-3.9,3.9a2,2,0,0,1-1.4.6H20.9a2,2,0,0,1-1.4-.6L8.2,21.2A20.6,20.6,0,0,0,35.6,46.7a2,2,0,0,1,2.6,1.1,1.9,1.9,0,0,1-1.1,2.6A23.5,23.5,0,0,1,27.8,52.3Z" style="fill:#0a6ab0"/><path d="M95.6,106.8a9.8,9.8,0,0,1-6.7-2.7L58.9,74a1.9,1.9,0,0,1,0-2.8,2.1,2.1,0,0,1,2.9,0l30,30a4.9,4.9,0,0,0,3.8,1.6,5.1,5.1,0,0,0,3.8-1.6l2-2a5.5,5.5,0,0,0,0-7.7L65.9,56a2.1,2.1,0,0,1,0-2.8,2.1,2.1,0,0,1,2.9,0l35.4,35.5a9.4,9.4,0,0,1,0,13.3l-2,2.1A9.4,9.4,0,0,1,95.6,106.8Z" style="fill:#0a6ab0"/><path d="M56,55.9a2,2,0,0,1-1.4-.6,1.9,1.9,0,0,1,0-2.8l28-28.1-.8-.8a1.6,1.6,0,0,1-.6-1.2l-.5-5.6a2.1,2.1,0,0,1,.9-1.8L97.7,3.4a2.3,2.3,0,0,1,2.6.2l6.1,6.1a2.1,2.1,0,0,1,.2,2.6L95,28.1l-.2.3h-.2a2,2,0,0,1-1.4.6H87.9a2.2,2.2,0,0,1-1.5-.6l-1-1.2-28,28A2,2,0,0,1,56,55.9ZM88.8,25.1h3.4l10.1-13.8L98.7,7.7,84.8,17.6l.3,3.7L86.8,23h.1Z" style="fill:#0a6ab0"/><path d="M14.4,107a9.1,9.1,0,0,1-6.6-2.8l-2-2a9.4,9.4,0,0,1,0-13.3L44.3,50.3a2,2,0,0,1,1.4-.6h8.1a2,2,0,0,1,1.4.6l4.7,4.6a2.5,2.5,0,0,1,.6,1.5V64a2.5,2.5,0,0,1-.6,1.4L21.1,104.2A9.5,9.5,0,0,1,14.4,107ZM46.6,53.7l-38,38a5.5,5.5,0,0,0,0,7.7l2,2a5.5,5.5,0,0,0,3.8,1.6,5.3,5.3,0,0,0,3.8-1.6L56.5,63.1V57.2l-3.6-3.5Z" style="fill:#0a6ab0"/><path d="M13.9,97.1a1.1,1.1,0,0,1-.7-1.8L48.8,59.7a1,1,0,0,1,1.4,1.4L14.6,96.8A.9.9,0,0,1,13.9,97.1Z" style="fill:#0a6ab0"/></g></g></svg>