<svg xmlns="http://www.w3.org/2000/svg" viewBox="0 0 110 140.4"><g id="レイヤー_2" data-name="レイヤー 2"><g id="レイヤー_1-2" data-name="レイヤー 1"><path d="M15,130.2a7.2,7.2,0,0,1-.9,3.7l-.7-.4a6.1,6.1,0,0,0,.8-3.4Zm.5-2.8h1.2c0,.1-.1.2-.3.2v12.8h-.9Zm2.2,4.5-1-2.1.6-.3a9.2,9.2,0,0,1,1,2Zm4.9.2h3.9v.8H17.8v-.8h3.8v-1H18.9v-.8h2.7v-.9H18.3v-.8h3.3v-1.2h1.3c-.1.1-.1.2-.3.2v1H26v.8H22.6v.9h2.8v.8H22.6Zm2.6,1.7v5.6c0,.9-.3,1-2.3,1a2.6,2.6,0,0,0-.3-.8h1c.6,0,.7,0,.7-.2v-1.3H19.9v2.3H19v-6.6Zm-.9.8H19.9v1h4.4Zm-4.4,2.8h4.4v-1H19.9Z"/><path d="M31.2,129.6v1.6H34v.8H27.5v-.8h2.8v-1.6H28.1v-.8h2.2v-1.4h.9v1.2h2.3v.8Zm.3,4.7a18,18,0,0,0,.8-2.1l1,.3H33l-.9,1.8h1.7v.8H31.2v1.6h2.4v.8H31.2v2.8h-.9v-2.8H27.9v-.8h2.4v-1.6H27.7v-.8h3.8Zm-2.3,0a12.1,12.1,0,0,0-.7-2h.8a9.4,9.4,0,0,1,.6,1.8Zm10.3-.9.5.2v.2a11.2,11.2,0,0,1-1.5,4.2,6.5,6.5,0,0,0,2.1,1.6,2.4,2.4,0,0,0-.6.8,6.4,6.4,0,0,1-2-1.6,12.2,12.2,0,0,1-1.7,1.5l-.6-.7a6.4,6.4,0,0,0,1.7-1.6,12.6,12.6,0,0,1-1.6-3.3l.8-.2a9.6,9.6,0,0,0,1.3,2.7,9.8,9.8,0,0,0,1.1-3H35.3v6.2h-.9V128h5.5v3.6c0,1-.5,1-2.4,1l-.3-.9h1c.7,0,.8,0,.8-.3v-2.6H35.3v4.5h4.2Z"/><path d="M42.6,131.8a24.5,24.5,0,0,1,3.8,1.2l-.4.9a23.9,23.9,0,0,0-3.8-1.3Zm.9,6.8c4.5-1.5,7.6-3.9,9.5-8.1l.9.6a15.4,15.4,0,0,1-9.5,8.3.2.2,0,0,1-.1.3Zm.7-10.3a26.1,26.1,0,0,1,3.7,1.4l-.4.8a31.8,31.8,0,0,0-3.7-1.4Z"/><path d="M65.8,129.2c0,.1-.1.1-.2.2a23.1,23.1,0,0,1-2.8,4.8,56.8,56.8,0,0,1,5.1,4.7l-.8.8a43,43,0,0,0-4.9-4.7,25,25,0,0,1-5.4,4.7l-.8-.8a19.6,19.6,0,0,0,8.2-9.1H57.4v-1H65Z"/><path d="M81.6,133.3H77.2l-.3.2a7.8,7.8,0,0,1-4.4,6.4,4.6,4.6,0,0,0-.7-.7c2.9-1.4,3.7-3.3,4-5.9H70.4v-1H81.6Zm-1.3-4H71.7v-.9h8.6Z"/><path d="M95.2,139.6a10.9,10.9,0,0,0-.8-1.5l-9.8.7a.3.3,0,0,1-.3.3l-.3-1.2h1.4c.9-2.7,2.3-6.9,3-9.7l1.4.4-.4.2-2.9,9.1,7.5-.5a35.3,35.3,0,0,0-2.5-3.5l.8-.4a24.6,24.6,0,0,1,3.9,5.8Z"/><rect width="110" height="110" style="fill:none"/><path d="M55,46.3a2,2,0,0,1-2-2V18.1a2,2,0,1,1,4,0V44.3A2,2,0,0,1,55,46.3Z" style="fill:#0a6ab0"/><path d="M55,93.9a2,2,0,0,1-2-2V65.7a2,2,0,0,1,4,0V91.9A2,2,0,0,1,55,93.9Z" style="fill:#0a6ab0"/><path d="M55,6.5a4.7,4.7,0,1,1-4.7,4.7A4.7,4.7,0,0,1,55,6.5m0-4a8.7,8.7,0,1,0,8.7,8.7A8.7,8.7,0,0,0,55,2.5Z" style="fill:#0a6ab0"/><path d="M55,94.1a4.7,4.7,0,1,1-4.7,4.7A4.7,4.7,0,0,1,55,94.1m0-4a8.7,8.7,0,1,0,8.7,8.7A8.7,8.7,0,0,0,55,90.1Z" style="fill:#0a6ab0"/><path d="M44.3,57H18.1a2,2,0,1,1,0-4H44.3a2,2,0,0,1,0,4Z" style="fill:#0a6ab0"/><path d="M91.9,57H65.7a2,2,0,0,1,0-4H91.9a2,2,0,0,1,0,4Z" style="fill:#0a6ab0"/><path d="M47.4,48.4l-.7-.2L34.2,35.7a1.4,1.4,0,0,1,0-1.5,1.4,1.4,0,0,1,1.5,0L48.2,46.7a1.4,1.4,0,0,1,0,1.5Z" style="fill:#0a6ab0"/><path d="M75,76a1,1,0,0,1-.7-.2L61.8,63.3a1.1,1.1,0,0,1,1.5-1.5L75.8,74.3a1.4,1.4,0,0,1,0,1.5A1.1,1.1,0,0,1,75,76Z" style="fill:#0a6ab0"/><path d="M32.3,37A4.6,4.6,0,0,1,29,35.7a4.7,4.7,0,1,1,6.7,0A5,5,0,0,1,32.3,37Zm0-7.4a2.7,2.7,0,0,0-1.9.8,2.8,2.8,0,0,0,0,3.8,2.7,2.7,0,0,0,3.8-3.8A2.7,2.7,0,0,0,32.3,29.6Z" style="fill:#0a6ab0"/><path d="M77.7,82.4A5.1,5.1,0,0,1,74.3,81,4.7,4.7,0,0,1,81,74.3h0A4.8,4.8,0,0,1,81,81,4.7,4.7,0,0,1,77.7,82.4Zm0-7.4a2.4,2.4,0,0,0-1.9.8,2.6,2.6,0,0,0,0,3.8,2.7,2.7,0,0,0,3.8-3.8A2.4,2.4,0,0,0,77.7,75Z" style="fill:#0a6ab0"/><path d="M35,76a1.1,1.1,0,0,1-.8-.2,1.4,1.4,0,0,1,0-1.5L46.7,61.8a1.1,1.1,0,0,1,1.5,1.5L35.7,75.8A1,1,0,0,1,35,76Z" style="fill:#0a6ab0"/><path d="M62.6,48.4l-.8-.2a1.4,1.4,0,0,1,0-1.5L74.3,34.2a1.4,1.4,0,0,1,1.5,0,1.4,1.4,0,0,1,0,1.5L63.3,48.2Z" style="fill:#0a6ab0"/><path d="M32.3,82.4A4.7,4.7,0,0,1,29,81a4.8,4.8,0,0,1,0-6.7h0A4.7,4.7,0,0,1,35.7,81,5.1,5.1,0,0,1,32.3,82.4Zm-1.9-6.6a2.7,2.7,0,0,0,3.8,3.8,2.7,2.7,0,1,0-3.8-3.8Z" style="fill:#0a6ab0"/><path d="M77.7,37a5,5,0,0,1-3.4-1.3,4.7,4.7,0,1,1,6.7,0A4.6,4.6,0,0,1,77.7,37Zm0-7.4a2.7,2.7,0,0,0-1.9.8,2.7,2.7,0,1,0,3.8,3.8,2.8,2.8,0,0,0,0-3.8A2.7,2.7,0,0,0,77.7,29.6Z" style="fill:#0a6ab0"/><path d="M55,67.7A12.7,12.7,0,1,1,67.7,55,12.7,12.7,0,0,1,55,67.7Zm0-21.4A8.7,8.7,0,1,0,63.7,55,8.7,8.7,0,0,0,55,46.3Z" style="fill:#0a6ab0"/><path d="M11.2,50.3A4.7,4.7,0,1,1,6.5,55a4.7,4.7,0,0,1,4.7-4.7m0-4A8.7,8.7,0,1,0,19.9,55a8.7,8.7,0,0,0-8.7-8.7Z" style="fill:#0a6ab0"/><path d="M98.8,50.3A4.7,4.7,0,1,1,94.1,55a4.7,4.7,0,0,1,4.7-4.7m0-4a8.7,8.7,0,1,0,8.7,8.7,8.7,8.7,0,0,0-8.7-8.7Z" style="fill:#0a6ab0"/></g></g></svg>