<svg xmlns="http://www.w3.org/2000/svg" viewBox="0 0 110 140.4"><g id="レイヤー_2" data-name="レイヤー 2"><g id="レイヤー_1-2" data-name="レイヤー 1"><path d="M30.3,136l1.6-.6.2.8-4,1.8-.2.2-.5-1.1,2-.7v-4.7H27.7v-.8h1.7v-3.4h1.1c0,.1-.1.1-.2.2v3.1h1.5v.8H30.3Zm3.6,2.3c0,.7.2.9,1.2.9h3.6c.8,0,.9-.4,1-2l.9.3c-.2,2-.5,2.6-1.9,2.6H35.1c-1.6,0-2.1-.4-2.1-1.8v-4.8l-1.4.6-.4-.8,1.8-.8v-3.8h1.2c0,.1-.1.2-.3.2v3.2l2.1-.9v-3.9h1.1c0,.1-.1.2-.3.2v3.3l2.3-1h.2l.8.3h-.2c0,2.7,0,4.9-.1,5.4s-.6,1-2.1,1-.1-.6-.3-.8h1c.3,0,.4-.1.5-.4A39.3,39.3,0,0,0,39,131l-2.2.9v5.4H36v-5l-2.1.8Z"/><path d="M47.3,134.6c0,1-.5,1-2.1,1a3.1,3.1,0,0,0-.2-.8h.7c.8,0,.8,0,.8-.3v-2.4H43.6a5.2,5.2,0,0,1-1.6,3.6l-.5-.5a4.7,4.7,0,0,0,1.3-3h-.9l-.2.2-.2-.9h1.4v-2.9h1.4c.1-.4.4-1,.5-1.4l1,.3h-.3a10.4,10.4,0,0,0-.4,1h2.2v2.7h.8v.7h-.8Zm5.5,1.3v3.3h1.7v.8H41.6v-.8h1.7v-3.3Zm-9.2-6.5v2.2h2.9v-2.1Zm.6,7.3v2.5h1.9v-2.5Zm.8-5.4a6.6,6.6,0,0,0-.7-1.5l.6-.2.8,1.4Zm-.4,1.3h1c-.1.1-.1.2-.3.2v1.7h-.7Zm4.4,4.1H47v2.5h2Zm4.1-5.2.5.3h-.1a5.2,5.2,0,0,1-1.8,2.3,11,11,0,0,0,2.9.9,1.8,1.8,0,0,0-.5.7,8.7,8.7,0,0,1-3.1-1.1,16.9,16.9,0,0,1-2.7,1l-.5-.7a13.5,13.5,0,0,0,2.4-.8,7.5,7.5,0,0,1-1.4-1.7l.6-.2h-1v-.7h4.7Zm-3.4-2.9a3,3,0,0,1-1.3,2.9l-.6-.6a2,2,0,0,0,1.1-2v-1h3.7V130c0,.3,0,.3.2.3h.7c.2,0,.3-.1.3-1.1l.7.3c-.1,1.2-.3,1.5-.9,1.5h-.9c-.7,0-.9-.2-.9-1v-1.4Zm-.1,3.7a4.9,4.9,0,0,0,1.4,1.5,4,4,0,0,0,1.4-1.5Zm2.2,4.4H49.9v2.5h1.9Z"/><path d="M61.4,131v8.3c0,1.1-.6,1.1-2.4,1.1a1.3,1.3,0,0,0-.3-.8h1.2c.6,0,.7,0,.7-.3v-2.7H57.2a7.7,7.7,0,0,1-1.1,3.8l-.7-.4a9.6,9.6,0,0,0,1.1-5.2v-2.9l-.4.5-.7-.5a12.6,12.6,0,0,0,2.2-4.5l1.1.3h-.3c-.1.3-.1.6-.2.8h1.9l.6.4h-.2a8.2,8.2,0,0,1-.9,1.9Zm-2.6,0c.2-.5.5-1,.7-1.6H57.9l-.8,1.6Zm-1.5,3.1v1.8h1.3v-1.8Zm0-2.4v1.7h1.3v-1.7Zm2,0v1.7h1.3v-1.7Zm0,4.2h1.3v-1.8H59.3Zm8.9-7.8v.3c-.2,2.4-.3,3.3-.6,3.6s-.4.4-1,.4H65.4a1.6,1.6,0,0,0-.3-.8h1.8c.2-.2.3-.9.4-2.6H64.9a4.7,4.7,0,0,1-2.8,3.9,1.7,1.7,0,0,0-.6-.6,4.2,4.2,0,0,0,2.5-3.3H62v-.8h6.2Zm.3,8.8v.9H65.7v2.6h-.9v-2.6h-3v-.9h3v-1.8H63.2a6.4,6.4,0,0,1-.8,1.4,1.5,1.5,0,0,0-.6-.5,10.7,10.7,0,0,0,1.2-3.2l1,.3h-.3a4.5,4.5,0,0,1-.3,1.1h1.4v-1.7h1.1c0,.1,0,.2-.2.2v1.5H68v.8H65.7v1.8Z"/><path d="M72.8,132.7l2,2.4-.6.8a15.2,15.2,0,0,0-1.4-2.1v6.6h-.9v-7.1a13.9,13.9,0,0,1-2.1,4.4,4.1,4.1,0,0,0-.5-.9,15.6,15.6,0,0,0,2.5-5.5H69.7v-.9h2.2v-3h1.2c0,.1-.1.2-.3.2v2.8h2v.9h-2Zm9.7-.4v.8H80.4v7.3h-1v-7.3H76.7a12.8,12.8,0,0,1-1.9,7.2,2.4,2.4,0,0,0-.8-.6c1.6-2.1,1.8-5,1.8-7.2v-3.9l.8.2a20.3,20.3,0,0,0,4.5-1.3l.8.8h-.2a36.9,36.9,0,0,1-5,1.2v2.7Z"/><rect width="110" height="110" style="fill:none"/><path d="M103.4,35.9a2.2,2.2,0,0,1-1.5-.6L72.3,4.8l-40,11.8a1.9,1.9,0,0,1-2.4-1.3,1.9,1.9,0,0,1,1.3-2.5L72.3.6a2.1,2.1,0,0,1,2,.5l30.5,31.4a1.9,1.9,0,0,1,0,2.8A2,2,0,0,1,103.4,35.9Z" style="fill:#0a6ab0"/><path d="M62.5,65.4h-.6L31.5,57.1A2,2,0,0,1,30,54.7L41.9,10.5a1.9,1.9,0,0,1,2.4-1.4,2,2,0,0,1,1.4,2.5L34.4,53.8,63,61.4a2.1,2.1,0,0,1,1.4,2.5A2,2,0,0,1,62.5,65.4Z" style="fill:#0a6ab0"/><path d="M82.7,70.8h-.5a1.9,1.9,0,0,1-1.4-2.4L92.6,24.1a2,2,0,0,1,2.5-1.4,2.1,2.1,0,0,1,1.4,2.5L84.7,69.3A2.1,2.1,0,0,1,82.7,70.8Z" style="fill:#0a6ab0"/><path d="M107.5,109.5a2.1,2.1,0,0,1-2-1.6c0-.2-2.8-14.2-12.5-14.2-4.7,0-5.9-3.7-6.9-6.7s-2.1-6.3-6.8-7.2a10.9,10.9,0,0,1-7.5-4.9c-1.9-3.2-1.9-7.1-1.7-9.5H2.5a2,2,0,0,1,0-4h70a2.1,2.1,0,0,1,2,2.5c-.1.1-1.5,5.3.7,8.9a7.2,7.2,0,0,0,4.9,3.1c6.9,1.4,8.6,6.2,9.8,9.8s1.5,4,3.1,4c5.5,0,10.1,3.1,13.3,8.9a38.4,38.4,0,0,1,3.2,8.5,2.1,2.1,0,0,1-1.6,2.4Z" style="fill:#0a6ab0"/><path d="M93.1,102.2H2.5a1,1,0,0,1-1-1,.9.9,0,0,1,1-1H93.1a.9.9,0,0,1,1,1A1,1,0,0,1,93.1,102.2Z" style="fill:#0a6ab0"/><path d="M65,78.9H2.5a.9.9,0,0,1-1-1,1,1,0,0,1,1-1H65a1.1,1.1,0,0,1,1,1A1,1,0,0,1,65,78.9Z" style="fill:#0a6ab0"/><path d="M76.9,90.6H11.5a1,1,0,0,1-1-1,.9.9,0,0,1,1-1H76.9a.9.9,0,0,1,1,1A1,1,0,0,1,76.9,90.6Z" style="fill:#0a6ab0"/></g></g></svg>