<?xml version="1.0" encoding="utf-8"?>
<!-- Generator: Adobe Illustrator 26.1.0, SVG Export Plug-In . SVG Version: 6.00 Build 0)  -->
<svg version="1.1" id="レイヤー_1" xmlns="http://www.w3.org/2000/svg" xmlns:xlink="http://www.w3.org/1999/xlink" x="0px"
	 y="0px" viewBox="0 0 110 140.5" style="enable-background:new 0 0 110 140.5;" xml:space="preserve">
<style type="text/css">
	.st0{fill:#0A6AB0;}
</style>
<path d="M33,133.7v-3.3h-4.6v2h-0.9v-2.7H33v-1h-4.7V128h10.3v0.7h-4.7v1h5.6v2.7h-0.9v-2h-4.7v3.3H33z M33.8,138.9
	c0,0.5,0.2,0.6,1.1,0.6h3.3c0.8,0,0.9-0.3,1-1.7l0.8,0.3c-0.1,1.7-0.4,2.1-1.8,2.1h-3.3c-1.5,0-2-0.2-2-1.3v-0.5h-3.3v0.7h-0.9v-4.9
	h9.6v4.2h-4.5V138.9z M28.9,133.3v-0.6h3.3v0.6H28.9z M29.1,131.2h3.1v0.7h-3.1V131.2z M32.9,134.9h-3.3v1.1h3.3V134.9z M29.6,137.7
	h3.3v-1.1h-3.3V137.7z M37.4,136v-1.1h-3.6v1.1L37.4,136z M33.8,137.7h3.6v-1.1h-3.6V137.7z M34.7,131.2h3.1v0.7h-3.1V131.2z
	 M34.7,133.3v-0.6h3.5v0.6H34.7z"/>
<path d="M53.5,129.7h-9.4c-0.5,1.2-1.3,2.3-2.3,3.2l-0.8-0.5c1.5-1.4,2.5-3.2,3-5.1l1.2,0.4h-0.3c-0.1,0.4-0.3,0.8-0.4,1.1h9V129.7z
	 M43.4,134.7l2.8,1.7c0.6-0.7,1.2-1.5,1.7-2.3l1.1,0.4h-0.4c-0.4,0.9-1,1.6-1.7,2.3c0.9,0.7,1.8,1.4,2.6,2.2l-0.7,0.8
	c-0.8-0.9-1.7-1.6-2.6-2.3c-1.3,1.2-2.7,2.1-4.2,2.9l-0.7-0.7c1.6-0.7,3-1.6,4.2-2.8l-2.8-1.7L43.4,134.7z M42.3,133h9.2
	c0,3.7,0.3,6.5,1.4,6.5s0.3-0.8,0.4-2.1l0.6,0.6c-0.1,1.8-0.3,2.4-1.1,2.4s-2.1-2.7-2.2-6.6h-8.3V133z M52.2,131.7h-8.3v-0.8h8.3
	L52.2,131.7z"/>
<path d="M58,133v4.6c1.1,1.7,3.1,1.7,5.7,1.7h4.5c-0.2,0.3-0.3,0.6-0.4,0.9H64c-3.1,0-5,0-6.4-1.7l-2.1,1.7c0,0.1-0.1,0.2-0.2,0.2
	l-0.5-1l2.3-1.6V134H55v-1H58z M55.9,127.7c0.9,0.6,1.8,1.4,2.4,2.3l-0.7,0.7c-0.6-0.9-1.5-1.8-2.4-2.4L55.9,127.7z M63.8,130.9
	l-2.9-1.2l0.6-0.6l2,0.9c0.8-0.4,1.5-0.8,2.2-1.3h-6.2V128h7.3l0.7,0.5h-0.2c-0.9,0.7-1.9,1.3-2.9,1.8l1.1,0.6h1.9v6.4
	c0,0.9-0.3,1-2.4,1l-0.3-0.8h1.1c0.6,0,0.7,0,0.7-0.3v-1.4h-2.7v2.3H63v-2.3h-2.6v2.4h-0.9v-7.4L63.8,130.9z M63,131.7h-2.6v1.3H63
	V131.7z M60.4,135.1H63v-1.3h-2.6V135.1z M66.5,133v-1.3h-2.7v1.3L66.5,133z M63.8,135.1h2.7v-1.3h-2.7V135.1z"/>
<path d="M70.9,132.3l-1.7,2.4c-0.1-0.3-0.3-0.6-0.5-0.9c1.5-1.9,2.7-4,3.5-6.3l1.1,0.4H73c-0.4,1-0.8,1.9-1.3,2.9h0.1v9.3h-0.9
	L70.9,132.3z M72.7,130H82v0.8h-9.3L72.7,130z M73.8,140.4v-4.5H81v4.4h-0.9v-0.6h-5.4v0.7L73.8,140.4z M80.9,132v0.8h-7V132H80.9z
	 M73.9,134.7v-0.8h7v0.8H73.9z M80.6,128.1v0.7h-6.5v-0.7H80.6z M80.1,136.7h-5.4v2.2h5.4V136.7z"/>
<path class="st0" d="M19.6,77.6c-0.5,0-1-0.2-1.4-0.6c-20.3-20.3-20.3-53.1,0-73.4c0,0,0,0,0,0c0.8-0.8,2.1-0.8,2.9,0
	c0.7,0.8,0.7,2,0,2.8C2.4,25,2.3,55.3,20.9,74c0.1,0.1,0.1,0.1,0.2,0.2c0.7,0.8,0.7,2,0,2.8C20.7,77.4,20.2,77.6,19.6,77.6z"/>
<path class="st0" d="M92.7,75.1c-0.5,0-0.9-0.2-1.3-0.5c-0.8-0.7-1-1.8-0.3-2.7c0,0,0.1-0.1,0.1-0.1c16.6-19,15.6-47.6-2.3-65.4
	c-0.7-0.8-0.7-2,0-2.8c0.8-0.8,2.1-0.8,2.9,0c19.3,19.3,20.3,50.2,2.4,70.8C93.8,74.9,93.3,75.1,92.7,75.1z"/>
<path class="st0" d="M29.9,67.3c-0.5,0-1-0.2-1.4-0.6c-7.1-7-11-16.5-11-26.4c0-10.8,4.7-21.1,12.9-28.2c0.8-0.7,2-0.7,2.7,0.1
	c0,0,0.1,0.1,0.1,0.1c0.7,0.8,0.7,2-0.1,2.7c0,0-0.1,0.1-0.1,0.1c-13.9,12-15.4,33.1-3.4,47c0.5,0.6,1.1,1.2,1.7,1.8
	c0.8,0.7,0.8,1.9,0.1,2.7c0,0-0.1,0.1-0.1,0.1C30.9,67.1,30.4,67.3,29.9,67.3z"/>
<path class="st0" d="M80.1,67.3c-0.5,0-1-0.2-1.4-0.6c-0.8-0.7-0.8-1.9-0.1-2.7c0,0,0.1-0.1,0.1-0.1c13-13,13.1-34.1,0.1-47.1
	c-0.2-0.2-0.3-0.3-0.5-0.5c-0.8-0.7-0.8-1.9-0.1-2.7c0,0,0.1-0.1,0.1-0.1c0.8-0.8,2-0.8,2.8-0.1c7.3,7.1,11.4,16.8,11.4,26.9
	c0,9.9-3.9,19.4-11,26.4C81.1,67.1,80.6,67.3,80.1,67.3z"/>
<path class="st0" d="M34.4,107h-0.6c-1-0.3-1.6-1.3-1.4-2.3c0-0.1,0-0.1,0.1-0.2l18.1-56.9c0.3-1,1.3-1.6,2.3-1.4
	c0.1,0,0.1,0,0.2,0.1c1,0.3,1.6,1.5,1.3,2.5l-18.1,56.8C36,106.4,35.3,107,34.4,107z"/>
<path class="st0" d="M75.6,107c-0.9,0-1.6-0.6-1.9-1.4L55.6,48.8c-0.3-1,0.3-2.2,1.3-2.5c1-0.4,2.1,0.1,2.4,1.1c0,0.1,0,0.1,0.1,0.2
	l18.1,56.8c0.4,1-0.1,2.1-1.1,2.4c-0.1,0-0.1,0-0.2,0.1L75.6,107z"/>
<path class="st0" d="M36.4,101.9c-0.3,0-0.6-0.2-0.8-0.5c-0.3-0.5-0.1-1.1,0.3-1.4l32.2-17.6c0.4-0.3,1-0.1,1.2,0.3
	c0,0,0,0.1,0.1,0.1c0.3,0.4,0.1,1-0.3,1.2c0,0-0.1,0-0.1,0.1l-32.1,17.7L36.4,101.9z"/>
<path class="st0" d="M72.5,101.3H72L41,84.1c-0.5-0.2-0.7-0.7-0.5-1.2c0,0,0-0.1,0.1-0.1c0.2-0.5,0.7-0.7,1.2-0.5c0,0,0.1,0,0.1,0.1
	l31.1,17c0.5,0.3,0.6,0.9,0.4,1.4C73.2,101.1,72.9,101.3,72.5,101.3z"/>
<path class="st0" d="M41.5,82.7c-0.4,0-0.7-0.2-0.9-0.5c-0.2-0.5-0.1-1.1,0.4-1.4l22.9-12.5c0.4-0.3,1-0.1,1.2,0.3
	c0,0,0,0.1,0.1,0.1c0.3,0.4,0.1,1-0.3,1.2c0,0-0.1,0-0.1,0.1L42,82.6L41.5,82.7z"/>
<path class="st0" d="M68.1,82.6h-0.5L44.6,70c-0.5-0.3-0.6-0.9-0.4-1.4c0.3-0.5,0.9-0.7,1.3-0.4c0,0,0,0,0.1,0l23,12.6
	c0.5,0.3,0.7,0.9,0.4,1.3c0,0,0,0,0,0.1C68.8,82.5,68.4,82.6,68.1,82.6z"/>
<path class="st0" d="M55,50.5c-5.6,0-10.2-4.6-10.2-10.2c0-5.6,4.6-10.2,10.2-10.2s10.2,4.6,10.2,10.2l0,0
	C65.2,45.9,60.6,50.5,55,50.5z M55,34.1c-3.4,0-6.2,2.8-6.2,6.2c0,3.4,2.8,6.2,6.2,6.2s6.2-2.8,6.2-6.2S58.4,34.1,55,34.1L55,34.1z"
	/>
</svg>
