<svg xmlns="http://www.w3.org/2000/svg" viewBox="0 0 110 140.4"><g id="レイヤー_2" data-name="レイヤー 2"><g id="レイヤー_1-2" data-name="レイヤー 1"><path d="M42,131.3a9,9,0,0,1,2.4,1.5l-.5.7a11,11,0,0,0-2.4-1.5Zm-.2,8.3a37.3,37.3,0,0,0,2.3-4.5l.7.5a44.3,44.3,0,0,1-2,4.3v.2c0,.1-.1.1-.1.2Zm2.7-9.8a10.3,10.3,0,0,0-2.3-1.6l.5-.7a9.1,9.1,0,0,1,2.4,1.6Zm10,5.4H53.3c-.1,1-.1,1.7-.2,2.3h1.3v.9H53c-.2,1.9-.7,2-2,2H49.9c-.1-.2-.1-.6-.3-.8h1.8c.5,0,.6-.4.7-1.2H46.8v.7h-.9c.2-1,.4-2.3.6-3.8H44.9v-.8h1.5c.2-1.1.3-2.1.4-3h6.6v3h1.2Zm-.1-5.2H47.2a11.3,11.3,0,0,1-1.5,2.7l-.8-.6a11.5,11.5,0,0,0,2.3-4.7l1.2.3h-.3l-.5,1.4h6.8Zm-5.3,7.5c.1-.6.1-1.4.2-2.3H47.2l-.3,2.3Zm.3-3.1c0-.7.1-1.5.1-2.1H47.6l-.3,2.1Zm.7.8c-.1.9-.1,1.7-.2,2.3h2.3c.1-.6.1-1.3.2-2.3Zm.2-2.9c0,.6-.1,1.4-.1,2.1h2.2a14.1,14.1,0,0,0,.1-2.1Z"/><path d="M65.5,127.5a.2.2,0,0,1-.2.2v6.2a11.9,11.9,0,0,0,3.3,2.2,2.5,2.5,0,0,0-.7.8,8.7,8.7,0,0,1-2.6-1.8v5.3h-1v-6.2a15.4,15.4,0,0,1-2.3-2.9c-.8,4.5-2.8,7.5-5.3,9a2,2,0,0,0-.7-.6,10.6,10.6,0,0,0,3.7-4.1,15,15,0,0,0-2.4-1.8l.5-.7,2.3,1.6a16.1,16.1,0,0,0,1.1-4.2H58.3a13.1,13.1,0,0,1-2.1,3.9l-.7-.6c1.3-1.4,2.2-3.9,2.7-6.4l1.2.2c0,.1-.1.2-.3.2a12.1,12.1,0,0,1-.5,1.8h3.2l.6.3v.2l-.2.8.5-.2a9.1,9.1,0,0,0,1.7,2.3v-5.5Z"/><rect width="110" height="110" style="fill:none"/><path d="M55,107a52,52,0,1,1,52-52A52,52,0,0,1,55,107ZM55,7a48,48,0,1,0,48,48A48,48,0,0,0,55,7Z" style="fill:#0a6ab0"/><path d="M55,34.9c-15.8,0-30.7-2.5-41.7-7.1a1,1,0,0,1-.6-1.3A1,1,0,0,1,14,26c10.9,4.4,25.4,6.9,41,6.9S85.1,30.4,96,26a1,1,0,0,1,1.3.5,1,1,0,0,1-.6,1.3C85.7,32.4,70.8,34.9,55,34.9Z" style="fill:#0a6ab0"/><path d="M96.4,84.1H96c-10.9-4.4-25.4-6.9-41-6.9S24.9,79.6,14,84a1,1,0,0,1-1.3-.5,1,1,0,0,1,.6-1.3c11-4.6,25.9-7.1,41.7-7.1h0c15.8,0,30.7,2.5,41.7,7.1a1,1,0,0,1-.3,1.9Z" style="fill:#0a6ab0"/><path d="M55,106c-10.9,0-28.3-23.3-28.3-51S44.1,4,55,4,83.3,27.3,83.3,55,65.9,106,55,106ZM55,6C46.2,6,28.7,27.2,28.7,55S46.2,104,55,104,81.3,82.8,81.3,55,63.8,6,55,6Z" style="fill:#0a6ab0"/><path d="M55,106a.9.9,0,0,1-1-1V5a1,1,0,0,1,2,0V105A.9.9,0,0,1,55,106Z" style="fill:#0a6ab0"/><path d="M105,56H5a1,1,0,0,1,0-2H105a1,1,0,0,1,0,2Z" style="fill:#0a6ab0"/></g></g></svg>