<?xml version="1.0" encoding="utf-8"?>
<!-- Generator: Adobe Illustrator 26.1.0, SVG Export Plug-In . SVG Version: 6.00 Build 0)  -->
<svg version="1.1" id="レイヤー_1" xmlns="http://www.w3.org/2000/svg" xmlns:xlink="http://www.w3.org/1999/xlink" x="0px"
	 y="0px" viewBox="0 0 138.4 140.4" style="enable-background:new 0 0 138.4 140.4;" xml:space="preserve">
<style type="text/css">
	.st0{fill:none;}
	.st1{fill:#0A6AB0;}
</style>
<path d="M4.6,136.3v0.8l-4.2,1c0,0.2,0,0.2-0.1,0.3L0,137.3l2-0.4v-3.6H0.3v-0.8H2v-3.3H0.2v-0.8h4.4v0.8H2.8v3.3h1.6v0.8H2.8v3.4
	L4.6,136.3z M9.2,136.2c0.2,0.5,0.5,1,0.9,1.5l2-1.3l0.8,0.6h-0.3l-2.1,1.1c0.8,0.7,1.7,1.2,2.6,1.5c-0.3,0.2-0.5,0.4-0.6,0.7
	c-1.8-0.6-3.2-2-3.9-3.7l-0.3,0.3v3.4H7.4v-2.7c-1.1,0.8-2.2,1.4-3.4,1.9l-0.6-0.7c1.7-0.5,3.3-1.4,4.6-2.6H5.5v-3H12v3H9.2z
	 M4.4,131.6h8.8v0.8H4.4L4.4,131.6z M12.4,127.9v2.9H5.1v-2.9L12.4,127.9z M7.3,130.1v-1.5H5.9v1.5H7.3z M6.3,134v1.5h4.8V134
	L6.3,134z M9.4,130.1v-1.5H8v1.5H9.4z M11.6,130.1v-1.5h-1.5v1.5H11.6z"/>
<path d="M16.9,136.1l1.6-0.6c0.1,0.3,0.2,0.5,0.2,0.8l-4,1.6l-0.2,0.2l-0.5-1l2-0.7v-4.7h-1.7v-0.8H16v-3.4h1.1
	c0,0.1-0.1,0.1-0.2,0.2v3.1h1.5v0.2h2.4c-0.1-0.6-0.3-1.1-0.6-1.6H21c0.3,0.5,0.6,1,0.7,1.6h2.1l0.7-1.7h-5.6v-0.7h3.4v-1.2h1.2
	c0,0.1-0.1,0.2-0.3,0.2v1h3.6v0.7h-2.1l0.9,0.3h-0.3l-0.7,1.4h2.6v0.8h-8.8v-0.2h-1.5V136.1z M22,137.1l-0.3,0.2
	c-0.3,1.4-1.1,2.5-3.7,3.1c-0.1-0.3-0.3-0.6-0.5-0.8c2.3-0.4,3.1-1.3,3.4-2.6L22,137.1z M24.4,139.1c0,0.3,0,0.4,0.4,0.4H26
	c0.3,0,0.4-0.2,0.5-1.5c0.2,0.2,0.5,0.3,0.8,0.3c-0.1,1.6-0.4,2-1.2,2h-1.4c-1,0-1.2-0.3-1.2-1.2v-2.2h-4.1v-4.2h6.9v4.2h-1.9V139.1
	z M20.3,133.4v1.1h5v-1.1H20.3z M20.3,135.1v1.1h5v-1.1H20.3z"/>
<path d="M36.1,133.9c-0.1,0.8-0.7,1.4-1.5,1.4c-0.8,0-1.4-0.6-1.4-1.4c0-0.8,0.6-1.4,1.4-1.5C35.4,132.4,36.1,133.1,36.1,133.9z"/>
<path d="M55.2,136v0.9h-1.8v2.3c0,1.1-0.5,1.2-3.1,1.2c-0.1-0.3-0.2-0.6-0.3-0.9h2.1c0.3,0,0.3-0.1,0.3-0.3v-2.3h-7.6v3.5h-0.9v-3.5
	h-1.8V136h1.8v-5.4h4.2v-1.5h-5.5v-0.8h12v0.8H49v1.5h4.4v5.4H55.2z M48.1,131.5h-3.3v1.8h3.3L48.1,131.5z M44.8,134.1v1.9h3.3v-1.9
	H44.8z M52.4,131.5H49v1.8h3.4V131.5z M49,136h3.4v-1.9H49V136z"/>
<path d="M63.1,139H69v0.9H56.3V139h5.8v-3.8h-4.3v-0.9h4.3v-3.2h-3.4c-0.5,0.9-1,1.8-1.7,2.6l-0.8-0.6c1.4-1.6,2.3-3.5,2.7-5.5
	l1.3,0.4h-0.4c-0.2,0.7-0.4,1.4-0.7,2.1h3v-2.8h1.3c0,0.1-0.1,0.2-0.3,0.2v2.6h5.2v0.9h-5.2v3.2h4.7v0.9h-4.7V139z"/>
<path d="M71.8,129.8h9.6v0.9h-4.3v6.8h5.3v1H70.8v-1h5.3v-6.8h-4.3V129.8z"/>
<path d="M94.8,131c0,0.1-0.1,0.2-0.3,0.2c-1,1.2-2.1,2.3-3.3,3.3h0.2c0,0.1-0.1,0.2-0.3,0.2v5.4h-1v-4.9c-1.6,1.1-3.2,2-5,2.7
	l-0.7-0.8c3.3-1.2,6.2-3.1,8.6-5.6h-7.1v-0.9h8.2L94.8,131z M92.5,130c-1.5-0.7-3-1.3-4.6-1.7l0.4-0.9c1.6,0.4,3.2,1,4.7,1.7
	L92.5,130z M92.6,134.5c1.4,0.7,2.8,1.5,4.1,2.5l-0.7,0.8c-1.3-1-2.7-1.9-4.1-2.6L92.6,134.5z"/>
<path d="M101.9,130c0,0.1-0.1,0.2-0.3,0.2c-0.1,3.8-0.4,7.2-2.6,9.7l-0.8-0.5c2.1-2.3,2.3-5.8,2.4-9.6L101.9,130z M105.5,138
	c2.3-1.1,4-3.1,4.7-5.6l0.9,0.6c-1,2.8-3.1,5.1-5.8,6.3l-0.2,0.3l-0.7-1v-10.5h1.3c0,0.2-0.1,0.3-0.3,0.3h0L105.5,138z"/>
<path d="M119.1,135.5l0.5,4.4h-1l-0.5-4.4l-5.3,0.7v-0.9l5.3-0.7l-0.4-3.2l-4.4,0.6v-0.9l4.4-0.6l-0.3-2.8h1.4
	c0,0.1-0.1,0.2-0.4,0.3l0.3,2.4l4.1-0.6l0.2,1l-4.2,0.5l0.4,3.2l5.3-0.7v0.9L119.1,135.5z M122,127.9c0.7,0.6,1.3,1.2,1.8,2
	l-0.6,0.4c-0.5-0.8-1-1.4-1.7-2L122,127.9z M123.7,126.9c0.7,0.6,1.4,1.3,1.9,2.1l-0.6,0.4c-0.5-0.7-1.1-1.4-1.8-2L123.7,126.9z"/>
<path d="M126.7,133.1h11.7v1h-11.2c-0.1,0.2-0.2,0.3-0.4,0.3L126.7,133.1z"/>
<rect x="13.2" y="0" class="st0" width="110" height="110"/>
<path class="st1" d="M78.6,64.8c-5,0-7.5-2.9-7.6-3.2l-0.3-0.3c-0.2-0.4-4.9-10.3,12-18.8h0.1c5.5-2.3,11.6-2.9,17.5-1.9
	c0.5,0.1,1,0.4,1.3,0.9c0.3,0.5,0.4,1,0.3,1.6c-1.5,5.8-4.6,11.1-8.9,15.2C86.9,63.3,82.1,64.8,78.6,64.8z M74.2,59.3
	c1,0.8,5.9,4.4,16.2-4.1c3.1-3,5.5-6.8,6.9-10.9c-4.3-0.4-8.7,0.2-12.8,1.8C72.6,52.1,73.8,58,74.2,59.3z"/>
<path class="st1" d="M64.7,64.8c-3.5,0-8.2-1.5-14.3-6.5c-4.4-4.1-7.5-9.4-8.9-15.2c-0.2-0.5-0.1-1.1,0.2-1.6
	c0.3-0.5,0.8-0.8,1.4-0.9c5.9-1,12-0.4,17.5,1.9l0,0c16.9,8.5,12.2,18.4,12,18.8l-0.2,0.3C70.4,63.8,67.6,64.9,64.7,64.8z M46,44.3
	c1.4,4.2,3.8,7.9,7,11c10.3,8.4,15.2,4.8,16.1,4s1.7-7.1-10.2-13.2C54.8,44.5,50.4,43.9,46,44.3z"/>
<path class="st1" d="M71.7,82c-1.1,0-2-0.9-2-2V60.4c0-1.1,0.9-2,2-2s2,0.9,2,2V80C73.7,81.1,72.8,82,71.7,82z"/>
<path class="st1" d="M70.9,62.1c-0.3,0-0.6-0.2-0.8-0.5c-0.3-0.4-0.2-1,0.2-1.3c0,0,0,0,0.1,0l17-10.9c0.5-0.3,1.1-0.2,1.4,0.3
	c0,0,0,0,0,0c0.2,0.4,0.1,1-0.3,1.3l-17,10.9L70.9,62.1z"/>
<path class="st1" d="M71.8,62.1l-0.5-0.2L54.3,51c-0.4-0.2-0.6-0.8-0.3-1.2c0,0,0-0.1,0-0.1c0.3-0.5,0.9-0.6,1.4-0.3c0,0,0,0,0,0
	l16.9,10.9c0.4,0.2,0.6,0.8,0.3,1.2c0,0,0,0.1,0,0.1C72.4,61.9,72.1,62.1,71.8,62.1z"/>
<path class="st1" d="M30.8,65.5c-0.6,0-1.1-0.2-1.5-0.6l-6-6.6l-6.1,6.6c-0.8,0.8-2,0.8-2.8,0.1c-0.8-0.8-0.8-2.1-0.1-2.9l7.5-8.1
	c0.8-0.8,2.1-0.8,2.9,0l7.6,8.1c0.7,0.8,0.7,2.1-0.1,2.9C31.8,65.3,31.3,65.5,30.8,65.5z"/>
<path class="st1" d="M106.2,102.4h-0.5L94.9,100c-0.5-0.2-1-0.5-1.3-1c-0.2-0.5-0.3-1.1-0.1-1.6l3.2-10.6c0.4-1,1.5-1.6,2.5-1.3
	c1.1,0.3,1.7,1.4,1.4,2.4c0,0,0,0,0,0.1l-2.7,8.5l8.7,2c1.1,0.2,1.7,1.3,1.5,2.4c0,0,0,0,0,0C107.9,101.8,107.1,102.4,106.2,102.4z"
	/>
<path class="st1" d="M85.3,18.7c-1.1,0.1-2.1-0.7-2.2-1.8c-0.1-1.1,0.7-2.1,1.8-2.2l8.7-2L91,4.2c-0.4-1,0.1-2.1,1.1-2.4
	c0.1,0,0.1,0,0.2-0.1c1-0.3,2.2,0.3,2.5,1.3l3.3,10.6c0.1,0.5,0.1,1.1-0.2,1.6c-0.3,0.5-0.8,0.8-1.3,1l-10.8,2.4L85.3,18.7z"/>
<path class="st1" d="M23.4,48.4H23c-1.1-0.2-1.8-1.2-1.6-2.3c0,0,0-0.1,0-0.1c1.1-5.5,3.1-10.8,5.9-15.7
	c14-24.4,45.2-32.9,69.6-18.9c0.1,0.1,0.2,0.1,0.3,0.2c0.9,0.6,1.2,1.8,0.7,2.7c-0.6,0.9-1.8,1.2-2.7,0.7C72.5,2,43.6,9.9,30.6,32.5
	c-2.5,4.4-4.3,9.3-5.3,14.3C25.2,47.7,24.3,48.4,23.4,48.4z"/>
<path class="st1" d="M96.4,100.2c-0.7,0-1.4-0.4-1.7-1c-0.5-0.9-0.2-2.1,0.7-2.7c22.5-13.2,30-42.1,16.8-64.6
	c-2.6-4.4-5.8-8.3-9.6-11.6c-0.8-0.7-1-1.8-0.3-2.7c0,0,0.1-0.1,0.1-0.1c0.7-0.8,2-0.9,2.8-0.2c21.3,18.5,23.5,50.8,5,72.1
	c-3.7,4.2-8,7.8-12.8,10.6L96.4,100.2z"/>
<path class="st1" d="M71.6,107c-28.1-0.1-50.9-22.8-51.1-50.9c0-1.1,0.9-2,2-2l0,0c1.1,0,2,0.9,2,2c0.1,26,21.3,47,47.3,46.9
	c5.1,0,10.2-0.9,15.1-2.6c1-0.3,2.2,0.3,2.5,1.3c0.3,1-0.2,2.1-1.2,2.5C82.9,106,77.2,107,71.6,107z"/>
</svg>
