<svg xmlns="http://www.w3.org/2000/svg" viewBox="0 0 110 140.3"><g id="レイヤー_2" data-name="レイヤー 2"><g id="レイヤー_1-2" data-name="レイヤー 1"><path d="M21.6,129.5h4.9v-2h1.4a.3.3,0,0,1-.3.3,7.5,7.5,0,0,0,0,1.5,22.4,22.4,0,0,0,4.6-.5v.9a21.9,21.9,0,0,1-4.7.5V133a24.3,24.3,0,0,0,4-.5v.9l-4.1.5v2.3a17.1,17.1,0,0,1,4.2,2.2l-.7.9a13.1,13.1,0,0,0-3.4-2.1v.7c0,1.3-.8,2.1-2.5,2.1s-3.1-.8-3.1-2.1,1.5-2.1,3.1-2.1l1.5.2a13.4,13.4,0,0,1-.1-2.1H25.3c-2.4,0-3-.3-3-1.2s.4-.9,1.3-1.5l.6.4c-.6.4-.9.7-.9,1s.6.5,2.4.5h1v-2.6h-5Zm5.2,7.3-1.6-.2c-1,0-2.1.5-2.1,1.3s1,1.2,2.2,1.2,1.5-.5,1.5-1.4Z"/><path d="M45.6,130.2a26.1,26.1,0,0,1-6,.8,18.3,18.3,0,0,1-.7,3.7,7.1,7.1,0,0,1,4-1.5c2.1,0,3.3,1.2,3.3,3.1s-2.8,3.7-7.3,3.8l-.3-.9c4-.1,6.6-.8,6.6-2.9s-.8-2.1-2.4-2.1a5.9,5.9,0,0,0-4.4,2.1l-.9-.5a12.7,12.7,0,0,0,1.1-4.8H35.3v-.9h3.4v-2.6l1.5.2c0,.2-.2.3-.4.3s-.1,1.4-.1,2.1a31.9,31.9,0,0,0,5.7-.9Z"/><path d="M48.9,131.6l1.5-.5a21.5,21.5,0,0,1,6.2-1.3c2.3,0,4.3,1.2,4.3,4.1s-3.4,4.8-8.1,5.3a6.9,6.9,0,0,0-.4-1c4.3-.4,7.5-1.5,7.5-4.2a3.1,3.1,0,0,0-3.4-3.2,25.8,25.8,0,0,0-6.9,1.7c0,.2-.1.3-.2.3Zm9.1-4a10.5,10.5,0,0,1,1.8,1.9l-.5.5a7.1,7.1,0,0,0-1.9-2Zm2-.6a11.3,11.3,0,0,1,1.9,1.9l-.6.5a8.4,8.4,0,0,0-1.8-2Z"/><path d="M71.3,140.3a39.1,39.1,0,0,0-5.5-5.2c-.7-.6-.9-1-.9-1.5a1.9,1.9,0,0,1,.7-1.3c1.3-1.1,3.7-3.4,5-4.8l1.2.8h-.4c-1.4,1.4-3.6,3.3-4.8,4.3s-.6.6-.6.9.3.5.8.9a50.7,50.7,0,0,1,5.5,5Z"/><path d="M79.4,135.6A20.2,20.2,0,0,1,79,133a29.1,29.1,0,0,1,.5-4.6l1.4.2c0,.2-.2.2-.4.3a18.3,18.3,0,0,0-.5,4,1.9,1.9,0,0,0,.1.8l1.1-2.2.5.6c-1,1.9-1.3,2.4-1.3,3v.4ZM87,128c-.1.2-.2.3-.4.3s.2,3.3.2,4.9-1,5.1-5.2,6.9l-.7-.8c3.8-1.5,4.9-3.8,4.9-6.1a42.2,42.2,0,0,0-.4-5.2Z"/><rect y="5" width="110" height="100" style="fill:none"/><rect width="110" height="110" style="fill:none"/><path d="M107.5,104.5H2.5a2,2,0,0,1,0-4h105a2,2,0,0,1,0,4Z" style="fill:#0a6ab0"/><path d="M70.6,104.5H34.8a2,2,0,0,1,0-4H68.6V35.8L36.8,11.5V33.8a2,2,0,0,1-4,0V7.5a1.9,1.9,0,0,1,1.1-1.8,2,2,0,0,1,2.1.2L71.8,33.2a2.1,2.1,0,0,1,.8,1.6v67.7A2,2,0,0,1,70.6,104.5Z" style="fill:#0a6ab0"/><path d="M42.2,104.5H10.4a2,2,0,0,1-2-2V42.9a2,2,0,0,1,2-2H42.2a2,2,0,0,1,2,2v59.6A2,2,0,0,1,42.2,104.5Zm-29.8-4H40.2V44.9H12.4Z" style="fill:#0a6ab0"/><path d="M100.4,104.5H70.6a2,2,0,0,1-2-2V55.9a2.1,2.1,0,0,1,.8-1.6L84.3,43.1a1.8,1.8,0,0,1,2.4,0l14.9,11.2a2.1,2.1,0,0,1,.8,1.6v46.6A2,2,0,0,1,100.4,104.5Zm-27.8-4H98.4V56.9L85.5,47.2,72.6,56.9Z" style="fill:#0a6ab0"/><path d="M35,56H17.7a1,1,0,0,1,0-2H35a1,1,0,0,1,0,2Z" style="fill:#0a6ab0"/><path d="M35,65.5H17.7a.9.9,0,0,1-1-1,1,1,0,0,1,1-1H35a1.1,1.1,0,0,1,1,1A1,1,0,0,1,35,65.5Z" style="fill:#0a6ab0"/><path d="M35,75.1H17.7a1,1,0,0,1-1-1,.9.9,0,0,1,1-1H35a1,1,0,0,1,1,1A1.1,1.1,0,0,1,35,75.1Z" style="fill:#0a6ab0"/><path d="M83.3,70H77.6a1,1,0,0,1-1-1V61.6a1,1,0,0,1,1-1h5.7a1.1,1.1,0,0,1,1,1V69A1.1,1.1,0,0,1,83.3,70Zm-4.7-2h3.7V62.6H78.6Z" style="fill:#0a6ab0"/><path d="M93.5,70H87.8a1,1,0,0,1-1-1V61.6a1,1,0,0,1,1-1h5.7a1.1,1.1,0,0,1,1,1V69A1.1,1.1,0,0,1,93.5,70Zm-4.7-2h3.7V62.6H88.8Z" style="fill:#0a6ab0"/><path d="M83.3,82.4H77.6a.9.9,0,0,1-1-1V74.1a.9.9,0,0,1,1-1h5.7a1,1,0,0,1,1,1v7.3A1,1,0,0,1,83.3,82.4Zm-4.7-2h3.7V75.1H78.6Z" style="fill:#0a6ab0"/><path d="M93.5,82.4H87.8a.9.9,0,0,1-1-1V74.1a.9.9,0,0,1,1-1h5.7a1,1,0,0,1,1,1v7.3A1,1,0,0,1,93.5,82.4Zm-4.7-2h3.7V75.1H88.8Z" style="fill:#0a6ab0"/><rect x="42.7" y="30.9" width="5.4" height="4.34" transform="translate(12.3 78.4) rotate(-90)" style="fill:#0a6ab0"/><rect x="50" y="40.5" width="5.4" height="4.34" transform="translate(10.1 95.3) rotate(-90)" style="fill:#0a6ab0"/><rect x="50" y="30.9" width="5.4" height="4.34" transform="translate(19.6 85.8) rotate(-90)" style="fill:#0a6ab0"/><rect x="57.4" y="40.5" width="5.4" height="4.34" transform="translate(17.4 102.7) rotate(-90)" style="fill:#0a6ab0"/><rect x="50" y="51.6" width="5.4" height="4.34" transform="translate(-1.1 106.5) rotate(-90)" style="fill:#0a6ab0"/><rect x="57.4" y="51.6" width="5.4" height="4.34" transform="translate(6.3 113.8) rotate(-90)" style="fill:#0a6ab0"/><rect x="50" y="62.7" width="5.4" height="4.34" transform="translate(-12.2 117.6) rotate(-90)" style="fill:#0a6ab0"/><rect x="57.4" y="62.7" width="5.4" height="4.34" transform="translate(-4.9 124.9) rotate(-90)" style="fill:#0a6ab0"/><rect x="50" y="73.9" width="5.4" height="4.34" transform="translate(-23.3 128.7) rotate(-90)" style="fill:#0a6ab0"/><rect x="57.4" y="73.9" width="5.4" height="4.34" transform="translate(-16 136.1) rotate(-90)" style="fill:#0a6ab0"/><rect x="50" y="85" width="5.4" height="4.34" transform="translate(-34.5 139.9) rotate(-90)" style="fill:#0a6ab0"/><rect x="57.4" y="85" width="5.4" height="4.34" transform="translate(-27.1 147.2) rotate(-90)" style="fill:#0a6ab0"/></g></g></svg>