<svg xmlns="http://www.w3.org/2000/svg" viewBox="0 0 115.2 140.4"><g id="レイヤー_2" data-name="レイヤー 2"><g id="レイヤー_1-2" data-name="レイヤー 1"><path d="M.5,131.3A9.7,9.7,0,0,1,3,132.8l-.5.7A18.3,18.3,0,0,0,0,132Zm12.7,1.4H10.6a7.4,7.4,0,0,0,2.8,3l-.7.7a7,7,0,0,1-2.1-2.1v3.1H6.1V139c0,.5.2.5,1.1.5h3.2c.8,0,.9-.2,1-1.5l.8.4c-.1,1.6-.4,2-1.7,2H7.2c-1.6,0-2-.3-2-1.3v-2.5H9.7V135H5.8v-.6a8.4,8.4,0,0,1-2.1,2.1l-.4-.5a35,35,0,0,1-2,3.9v.4l-1-.7A39.3,39.3,0,0,0,2.7,135l.7.6a10.1,10.1,0,0,0,2.5-2.9H3.3v-.8H5.8V130H3.9v-.8H5.8v-1.8H7l-.3.2v1.5h3v-1.8h1.2l-.3.2v1.5h2.2v.8H10.6v1.9h2.6ZM1.3,127.5a11.1,11.1,0,0,1,2.4,1.6l-.6.7a9.1,9.1,0,0,0-2.4-1.6Zm5.5,5.2a5.1,5.1,0,0,1-.9,1.6h4.6a8,8,0,0,1-.8-1.6ZM6.7,130v1.9h3V130Z"/><path d="M14.6,131.3a11,11,0,0,1,2.4,1.5l-.5.7L14.1,132Zm-.2,8.3a38.7,38.7,0,0,0,2.4-4.6l.7.6a43.4,43.4,0,0,1-2.1,4.3v.2c0,.1-.1.1-.1.2Zm.9-12.1a9.1,9.1,0,0,1,2.4,1.6l-.5.7a11.1,11.1,0,0,0-2.4-1.6Zm4.9,3h-.3a6.7,6.7,0,0,1-1.9,2.2l-.6-.5a5.6,5.6,0,0,0,1.8-2.2Zm2.6-1.6h4.3v.8H23.9v2.5c0,.9-.3.9-1.9.9a1.1,1.1,0,0,0-.3-.7h1.2a.2.2,0,0,0,.2-.2v-2.5H21.6v.7a2.8,2.8,0,0,1-1.9,2.9l-.6-.5a2.3,2.3,0,0,0,1.7-2.4v-.7H17.9v-.8h4v-1.5h1.2c0,.1-.1.2-.3.2Zm2.9,8.2h.2l.6.2a.3.3,0,0,1-.1.2c-.6,2.9-1.1,3-2.3,3H22.6a1.6,1.6,0,0,0-.3-.8h2.4a3.7,3.7,0,0,0,.6-1.7H19.1l-.2.6H18a24.5,24.5,0,0,0,.8-2.9h6.1v-1.1H18.1v-.8h7.7v2.6H19.6l-.3,1Zm.7-4.4a12,12,0,0,0-1.9-2.1l.6-.4a12.6,12.6,0,0,1,2,2Z"/><path d="M36,133.9a1.4,1.4,0,0,1-1.4,1.4,1.5,1.5,0,0,1-1.5-1.4,1.5,1.5,0,0,1,1.5-1.5A1.5,1.5,0,0,1,36,133.9Z"/><path d="M47.4,130.4c0,.1-.1.2-.3.2-.4,2-1.2,3.5-4.3,4.3a5.6,5.6,0,0,0-.5-.8c2.8-.6,3.6-1.9,3.8-3.8Zm1.6,5.7v3h5.8v.9H42.3v-.9h5.8v-3H43.8v-.8h9.6v.8Zm-5.4-6.2v2h-.9v-2.8h5.4v-1.7h1.2c0,.1-.1.2-.3.2v1.5h5.5v2.8h-1v-2Zm6.1.3h1.2c0,.1-.1.2-.3.2V133c0,.3.1.4.7.4h2.1c.5,0,.6-.1.6-1a2.5,2.5,0,0,0,.9.4c-.2,1.1-.4,1.4-1.3,1.4H51.2c-1.2,0-1.5-.2-1.5-1.2Z"/><path d="M56.5,131.3a9.7,9.7,0,0,1,2.5,1.5l-.5.7A18.3,18.3,0,0,0,56,132Zm12.7,1.4H66.6a7.4,7.4,0,0,0,2.8,3l-.7.7a7,7,0,0,1-2.1-2.1v3.1H62.1V139c0,.5.2.5,1.1.5h3.2c.8,0,.9-.2,1-1.5l.8.4c-.1,1.6-.4,2-1.7,2H63.2c-1.6,0-2-.3-2-1.3v-2.5h4.5V135H61.8v-.6a8.4,8.4,0,0,1-2.1,2.1l-.4-.5a35,35,0,0,1-2,3.9v.4l-1-.7a39.3,39.3,0,0,0,2.3-4.6l.7.6a10.1,10.1,0,0,0,2.5-2.9H59.3v-.8h2.5V130H59.9v-.8h1.9v-1.8H63l-.3.2v1.5h3v-1.8h1.2l-.3.2v1.5h2.2v.8H66.6v1.9h2.6Zm-11.9-5.2a11.1,11.1,0,0,1,2.4,1.6l-.6.7a9.1,9.1,0,0,0-2.4-1.6Zm5.5,5.2a5.1,5.1,0,0,1-.9,1.6h4.6a8,8,0,0,1-.8-1.6Zm-.1-2.7v1.9h3V130Z"/><path d="M78,133.9a1.4,1.4,0,0,1-1.4,1.4,1.5,1.5,0,0,1-1.5-1.4,1.5,1.5,0,0,1,1.5-1.5A1.5,1.5,0,0,1,78,133.9Z"/><path d="M84.6,131.3a11,11,0,0,1,2.4,1.5l-.5.7L84.1,132Zm-.2,8.3a27,27,0,0,0,2.2-4.5l.8.5a44.3,44.3,0,0,1-2,4.3v.4Zm2.7-9.8a9.1,9.1,0,0,0-2.4-1.6l.6-.7a11.1,11.1,0,0,1,2.4,1.6Zm10,5.4H95.8a14.8,14.8,0,0,1-.1,2.3H97v.9H95.6c-.2,1.9-.7,2-2,2H92.4a2.4,2.4,0,0,0-.2-.8H94c.4,0,.6-.4.7-1.2H89.4v.7h-.9c.2-1,.3-2.3.5-3.8H87.5v-.8H89a16.9,16.9,0,0,0,.3-3H96v3h1.2ZM97,130H89.8a8.8,8.8,0,0,1-1.6,2.7c-.1-.2-.5-.4-.7-.6a11.5,11.5,0,0,0,2.3-4.7l1.2.3h-.3l-.5,1.4H97Zm-5.3,7.5c0-.6.1-1.4.2-2.3H89.8l-.3,2.3Zm.3-3.1c0-.7.1-1.5.1-2.1h-2a16.5,16.5,0,0,1-.2,2.1Zm.7.8c-.1.9-.1,1.7-.2,2.3h2.3c.1-.6.1-1.3.2-2.3Zm.2-2.9c0,.6-.1,1.4-.1,2.1H95c0-.6.1-1.4.1-2.1Z"/><path d="M110.8,132.9H100.2v1.9c0,1.6-.2,4-1.4,5.5l-.8-.6c1.1-1.4,1.2-3.4,1.2-4.9V132h11.6Zm-.5-4.9c0,.1-.1.2-.3.2v2.6H99.3v-2.9h1.2c0,.1,0,.2-.2.2V130h3.8v-2.6h1.2c0,.1-.1.2-.3.2V130h4v-2.1Zm.7,8.6v.9h-4.8v2.9h-1v-2.9h-4.5v-.9h4.5v-1.7h-3.8v-.8h8.8v.8h-4v1.7Z"/><rect x="5.2" width="110" height="110" style="fill:none"/><path d="M68.9,109.1a10,10,0,0,1-8.7-5,10.2,10.2,0,0,1-17.5,0,10.2,10.2,0,0,1-17.5,0,10.1,10.1,0,0,1-8.8,5,1.1,1.1,0,0,1-1-1,1,1,0,0,1,1-1,8.1,8.1,0,0,0,7.8-5.7,1.2,1.2,0,0,1,1-.7,1,1,0,0,1,.9.7,8.3,8.3,0,0,0,7.8,5.7,8.2,8.2,0,0,0,7.8-5.7,1.1,1.1,0,0,1,1-.7,1,1,0,0,1,.9.7,8.3,8.3,0,0,0,7.8,5.7,8.2,8.2,0,0,0,7.8-5.7,1,1,0,0,1,1-.7,1,1,0,0,1,.9.7,8.2,8.2,0,0,0,7.8,5.7,8.2,8.2,0,0,0,7.9-6,1,1,0,0,1,1.2-.7,1,1,0,0,1,.7,1.3A10.3,10.3,0,0,1,68.9,109.1Z" style="fill:#0a6ab0"/><path d="M104,109.1a10.1,10.1,0,0,1-8.8-5,10,10,0,0,1-8.7,5,10.2,10.2,0,0,1-9.7-7,1,1,0,0,1,.6-1.3,1,1,0,0,1,1.3.7,8.2,8.2,0,0,0,15.6-.1,1,1,0,0,1,.9-.7h0a1.1,1.1,0,0,1,1,.7,8.2,8.2,0,0,0,7.8,5.7,1,1,0,0,1,1,1A1.1,1.1,0,0,1,104,109.1Z" style="fill:#0a6ab0"/><path d="M60.2,93.1a10.3,10.3,0,0,1-8.8-5,10.2,10.2,0,0,1-17.5,0,10.3,10.3,0,0,1-8.7,5,10.4,10.4,0,0,1-8.8-5,10.1,10.1,0,0,1-8.7,5,1.1,1.1,0,0,1-1-1,1,1,0,0,1,1-1,8.2,8.2,0,0,0,7.8-5.7.9.9,0,0,1,.9-.7.9.9,0,0,1,1,.7,8.2,8.2,0,0,0,15.6,0,.9.9,0,0,1,.9-.7.9.9,0,0,1,1,.7,8.2,8.2,0,0,0,15.6,0,.9.9,0,0,1,.9-.7h0a1,1,0,0,1,1,.7A8.1,8.1,0,0,0,68,85.1a1.1,1.1,0,0,1,1.3-.7,1.1,1.1,0,0,1,.7,1.2A10.4,10.4,0,0,1,60.2,93.1Z" style="fill:#0a6ab0"/><path d="M112.7,93.1a10.3,10.3,0,0,1-8.7-5,10.2,10.2,0,0,1-17.5,0,10.3,10.3,0,0,1-8.8,5A10.1,10.1,0,0,1,68.1,86a.9.9,0,0,1,.6-1.2,1,1,0,0,1,1.3.6,8.1,8.1,0,0,0,15.5,0,1,1,0,0,1,1-.7.9.9,0,0,1,.9.7,8.2,8.2,0,0,0,15.6,0,.9.9,0,0,1,1-.7.9.9,0,0,1,.9.7,8.2,8.2,0,0,0,7.8,5.7.9.9,0,0,1,1,1A1,1,0,0,1,112.7,93.1Z" style="fill:#0a6ab0"/><path d="M13.1,48.2a1.7,1.7,0,0,1-1-.3,1.9,1.9,0,0,1-.7-2.7l6.1-10.1a1.9,1.9,0,0,1,2.6-.7l10.3,5.7a2,2,0,0,1,.8,2.7,2,2,0,0,1-2.7.8l-8.6-4.7-5.1,8.3A1.9,1.9,0,0,1,13.1,48.2Z" style="fill:#0a6ab0"/><path d="M60.2,28.4A13.8,13.8,0,0,1,60.2.9a13.8,13.8,0,1,1,0,27.5Zm0-23.5A9.8,9.8,0,1,0,70,14.7,9.7,9.7,0,0,0,60.2,4.9Z" style="fill:#0a6ab0"/><path d="M60.2,73.8A43.4,43.4,0,0,1,20,47a2,2,0,0,1,1.1-2.6,1.9,1.9,0,0,1,2.6,1,39.5,39.5,0,0,0,73-.1,2,2,0,0,1,2.6-1.1,1.9,1.9,0,0,1,1.1,2.6A43.3,43.3,0,0,1,60.2,73.8Z" style="fill:#0a6ab0"/><path d="M107.3,48.2a1.9,1.9,0,0,1-1.7-1l-5.1-8.3-8.6,4.7a2,2,0,0,1-2.7-.8,2,2,0,0,1,.8-2.7l10.3-5.7a1.9,1.9,0,0,1,2.6.7L109,45.2a1.9,1.9,0,0,1-.7,2.7A1.7,1.7,0,0,1,107.3,48.2Z" style="fill:#0a6ab0"/><path d="M60.2,73.8a2,2,0,0,1-2-2V26.4a2,2,0,1,1,4,0V71.8A2,2,0,0,1,60.2,73.8Z" style="fill:#0a6ab0"/><path d="M76.3,43.2H44.1a2,2,0,0,1,0-4H76.3a2,2,0,0,1,0,4Z" style="fill:#0a6ab0"/></g></g></svg>