<svg xmlns="http://www.w3.org/2000/svg" viewBox="0 0 110 140.4"><g id="レイヤー_2" data-name="レイヤー 2"><g id="レイヤー_1-2" data-name="レイヤー 1"><path d="M47.3,129.4H41.2v2.4h.1a27.5,27.5,0,0,1,5.2,3l-.6.9a35.8,35.8,0,0,0-4.7-2.9v7.6h-1v-11H34.7v-1H47.3Z"/><path d="M53.1,131.1l.7.3-.2.2a11.5,11.5,0,0,1-4.5,7.5l-.8-.8a9.7,9.7,0,0,0,4.2-6.2H48.7v-1h4.4Zm2.4-1.1a18.5,18.5,0,0,0,1.2,3.3,29.5,29.5,0,0,0,3.5-3.6l1,.7h-.3a32.8,32.8,0,0,1-3.8,3.6,10.5,10.5,0,0,0,4.6,4.3,2,2,0,0,0-.7.9c-2.6-1.2-4.3-3.7-5.5-6.8V139c0,1.3-.6,1.4-3.2,1.4l-.4-1h1.4c1.2,0,1.2,0,1.2-.4V127.4h1.3c0,.1-.1.2-.3.2Z"/><path d="M65.6,133v4.6c1.1,1.6,3.1,1.6,5.6,1.6h4.4a2.9,2.9,0,0,0-.3,1H71.4c-2.9,0-4.8,0-6.2-1.7l-2.1,1.7c0,.1,0,.2-.1.2l-.6-1a26.8,26.8,0,0,0,2.3-1.7v-3.7H62.6V133Zm-2.1-5.3a14,14,0,0,1,2.5,2.2l-.7.7a11.2,11.2,0,0,0-2.5-2.3Zm4,3.7h2.4l.3-1.2H66.3v-.8h2.5a5,5,0,0,0-1-1.7l.8-.3a8.2,8.2,0,0,1,1.1,1.7l-.6.3h3l-.4-.2a17.4,17.4,0,0,0,1.1-1.8l1.1.3h-.3l-1.1,1.6h2.8v.8H71.1l-.3,1.2h3.3v6.9h-1v-.4H68.4v.4h-.9Zm5.6,1.9v-1.1H68.4v1.1Zm-4.7.7v1.2h4.7V134Zm0,3.1h4.7v-1.2H68.4Z"/><rect width="110" height="110" style="fill:none"/><rect y="5" width="110" height="100" style="fill:none"/><path d="M41.3,59.3H2a2,2,0,0,1,0-4H41.3a2,2,0,0,1,0,4Z" style="fill:#0a6ab0"/><path d="M65.3,63.5H47.5c-2.1,0-5.3-1-8.2-5.6s-5.5-14.3-5.5-23.7c0-16.7,5.9-29.3,13.7-29.3H65.3a2,2,0,0,1,0,4H47.5c-4.6,0-9.7,10.4-9.7,25.3,0,8.7,1.8,16.8,4.9,21.6.8,1.4,2.7,3.7,4.8,3.7H65.3a2,2,0,0,1,0,4Z" style="fill:#0a6ab0"/><path d="M65.3,63.5c-7.8,0-13.7-12.6-13.7-29.3S57.5,4.9,65.3,4.9,79,17.5,79,34.2a2,2,0,0,1-4,0c0-14.9-5.1-25.3-9.7-25.3s-9.7,10.4-9.7,25.3,5.1,25.3,9.7,25.3c1.6,0,3-1.3,3.9-2.4a2,2,0,1,1,3.1,2.5C70.2,62.2,67.8,63.5,65.3,63.5Z" style="fill:#0a6ab0"/><path d="M41.2,13.1H2a2,2,0,0,1,0-4H41.2a2,2,0,0,1,0,4Z" style="fill:#0a6ab0"/><path d="M81.6,73.5a1.1,1.1,0,0,1-1-1V66.9A16.9,16.9,0,0,0,63.7,50a1,1,0,0,1-1-1,.9.9,0,0,1,1-1A18.9,18.9,0,0,1,82.6,66.9v5.6A1,1,0,0,1,81.6,73.5Z" style="fill:#0a6ab0"/><path d="M93.7,73.5a1.1,1.1,0,0,1-1-1V70.9A29.2,29.2,0,0,0,63.6,41.7a.9.9,0,0,1-1-1,1,1,0,0,1,1-1A31.2,31.2,0,0,1,94.7,70.9v1.6A1,1,0,0,1,93.7,73.5Z" style="fill:#0a6ab0"/><path d="M107.5,82.3H2.5a2,2,0,0,1,0-4h105a2,2,0,0,1,0,4Z" style="fill:#0a6ab0"/><path d="M9.5,94.1h-7a1,1,0,0,1-1-1,.9.9,0,0,1,1-1h7a1,1,0,0,1,1,1A1.1,1.1,0,0,1,9.5,94.1Z" style="fill:#0a6ab0"/><path d="M58.5,94.1h-7a1.1,1.1,0,0,1-1-1,1,1,0,0,1,1-1h7a1,1,0,0,1,1,1A1.1,1.1,0,0,1,58.5,94.1Z" style="fill:#0a6ab0"/><path d="M83,94.1H76a1.1,1.1,0,0,1-1-1,1,1,0,0,1,1-1h7a1,1,0,0,1,1,1A1.1,1.1,0,0,1,83,94.1Z" style="fill:#0a6ab0"/><path d="M34,94.1H27a1.1,1.1,0,0,1-1-1,1,1,0,0,1,1-1h7a1,1,0,0,1,1,1A1.1,1.1,0,0,1,34,94.1Z" style="fill:#0a6ab0"/><path d="M107.5,94.1h-7a1.1,1.1,0,0,1-1-1,1,1,0,0,1,1-1h7a.9.9,0,0,1,1,1A1,1,0,0,1,107.5,94.1Z" style="fill:#0a6ab0"/><path d="M20.8,104.7h-7a1,1,0,0,1-1-1,1.1,1.1,0,0,1,1-1h7a1.1,1.1,0,0,1,1,1A1,1,0,0,1,20.8,104.7Z" style="fill:#0a6ab0"/><path d="M45.9,104.7H39a.9.9,0,0,1-1-1,1,1,0,0,1,1-1h6.9a1,1,0,0,1,1,1A.9.9,0,0,1,45.9,104.7Z" style="fill:#0a6ab0"/><path d="M71,104.7H64.1a.9.9,0,0,1-1-1,1,1,0,0,1,1-1H71a1,1,0,0,1,1,1A.9.9,0,0,1,71,104.7Z" style="fill:#0a6ab0"/><path d="M96.2,104.7h-7a1,1,0,0,1-1-1,1.1,1.1,0,0,1,1-1h7a1.1,1.1,0,0,1,1,1A1,1,0,0,1,96.2,104.7Z" style="fill:#0a6ab0"/></g></g></svg>