<svg xmlns="http://www.w3.org/2000/svg" viewBox="0 0 110 140.5"><g id="レイヤー_2" data-name="レイヤー 2"><g id="レイヤー_1-2" data-name="レイヤー 1"><path d="M20.9,131.4a7.4,7.4,0,0,1,2.5,1.4l-.5.8a11.8,11.8,0,0,0-2.5-1.5Zm-.2,8.2a32.4,32.4,0,0,0,2.6-4.3l.7.6a37.6,37.6,0,0,1-2.3,4.1v.4Zm2.8-9.7a9.1,9.1,0,0,0-2.4-1.6l.6-.6a10.8,10.8,0,0,1,2.4,1.4Zm10.2-1.7v1H32.5V139c0,1.3-.5,1.4-3.3,1.4a4.2,4.2,0,0,0-.4-1h1.6c1.1,0,1.2,0,1.2-.4v-9.8H24.2v-1Zm-4.1,8.4H26v.9h-.8v-6.1h4.4Zm-.9-4.3H26v3.4h2.7Z"/><path d="M36.1,128.2h1.3c-.1.1-.1.2-.3.2V133c0,2.7-.2,5.4-2.1,7.5l-.7-.7c1.6-1.9,1.8-4.4,1.8-6.8Zm4.6.5h1.2l-.2.2v10.2h-1Zm5-.6h1.2c0,.1-.1.1-.2.2v12h-1Z"/><path d="M56.4,133.9a1.4,1.4,0,1,1-2.8,0,1.4,1.4,0,1,1,2.8,0Z"/><path d="M67.5,138.4H64.6v1.2h-.9v-4.8a6.4,6.4,0,0,1-.8,1.4l-.5-.8c1-1.4,1.6-3.8,2-6.4H62.6v-.9h5.5v.9H65.3a18.6,18.6,0,0,1-.7,3.4h2.9Zm-.8-.9v-4.3H64.6v4.3Zm8.2-3.1-.2.2c-.9,3-2.9,4.9-6.6,5.8l-.6-.8c3.6-.8,5.5-2.5,6.3-5.4ZM70.5,130h-.3a12.7,12.7,0,0,1-1.9,4.4l-.7-.4a11.9,11.9,0,0,0,1.8-4.4Zm2-2.6c-.1.1-.1.2-.3.2v7.2c0,1-.5,1-2.4,1l-.3-.8h1c.8,0,.8,0,.8-.2v-7.4Zm1.5,2.2a21.5,21.5,0,0,1,1.6,4.1l-.9.3a20.7,20.7,0,0,0-1.5-4.1Z"/><path d="M80.8,128l.7.3v.2c-.5,1-1,2.5-1.6,3.6a4.3,4.3,0,0,1,1.6,3.1c0,2-1.3,1.9-2.5,1.9a1.1,1.1,0,0,0-.3-.8h1l.6-.2c.2-.1.3-.5.3-.9s0-1.5-1.6-3a23.7,23.7,0,0,0,1.3-3.4H78v11.6h-.9V128h3.7Zm8.7,2.7h-5c0,.7-.1,1.5-.1,2.2h4.2v.3c-.2,4.5-.4,6.1-.8,6.6s-.6.5-1.6.5H84.9a4.7,4.7,0,0,0-.3-.9h1.9l.5-.2c.3-.3.5-1.7.6-5.5H84.3c-.3,2.6-1.1,5.1-3.4,6.6l-.7-.7c3-1.8,3.3-5.4,3.4-9H81.2v-.9h3.4v-2.4h1.2l-.2.2v2.2h3.9Z"/><rect y="10" width="110" height="90" style="fill:none"/><rect width="110" height="110" style="fill:none"/><path d="M25.9,90.7A1.9,1.9,0,0,1,24,89L13.1,14.2H4.5V88.7a2,2,0,0,1-4,0V12.2a2,2,0,0,1,2-2H14.8a2.1,2.1,0,0,1,2,1.8L27.9,88.4a2,2,0,0,1-1.7,2.3Z" style="fill:#0a6ab0"/><path d="M26,100.2H2.5a2,2,0,0,1,0-4H26a2,2,0,0,1,0,4Z" style="fill:#0a6ab0"/><path d="M84.1,90.7h-.3a2,2,0,0,1-1.7-2.3L93.2,12a2.1,2.1,0,0,1,2-1.8h12.3a2,2,0,0,1,2,2V88.7a2,2,0,0,1-4,0V14.2H96.9L86,89A1.9,1.9,0,0,1,84.1,90.7Z" style="fill:#0a6ab0"/><path d="M107.5,100.2H84a2,2,0,0,1,0-4h23.5a2,2,0,0,1,0,4Z" style="fill:#0a6ab0"/><path d="M89.8,37.9A9.9,9.9,0,0,1,81.2,33a10.1,10.1,0,0,1-17.3,0,9.9,9.9,0,0,1-8.6,4.9A10,10,0,0,1,46.7,33a10,10,0,0,1-17.2,0,10,10,0,0,1-8.6,4.9,9.2,9.2,0,0,1-3.3-.6,1.1,1.1,0,0,1-.7-1.3,1,1,0,0,1,1.3-.6,8.6,8.6,0,0,0,2.7.5,8.2,8.2,0,0,0,7.7-5.6,1,1,0,0,1,.9-.7,1.2,1.2,0,0,1,1,.7,8,8,0,0,0,7.6,5.6,8.2,8.2,0,0,0,7.7-5.6,1,1,0,0,1,.9-.7,1.1,1.1,0,0,1,1,.7,8,8,0,0,0,7.6,5.6A8.2,8.2,0,0,0,63,30.3a1,1,0,0,1,.9-.7,1,1,0,0,1,1,.7,8,8,0,0,0,15.3,0,1,1,0,0,1,1-.7h0a1,1,0,0,1,.9.7,8.2,8.2,0,0,0,7.7,5.6,7.6,7.6,0,0,0,2.1-.3,1.1,1.1,0,0,1,1.2.7,1,1,0,0,1-.7,1.2A8.2,8.2,0,0,1,89.8,37.9Z" style="fill:#0a6ab0"/><path d="M76.8,56.2a8.3,8.3,0,0,1-7.2-4,8.7,8.7,0,0,1-14.6,0,8.6,8.6,0,0,1-7.3,4,1,1,0,0,1-1-1,1.1,1.1,0,0,1,1-1A6.5,6.5,0,0,0,54,49.6a1.1,1.1,0,0,1,2,0,6.5,6.5,0,0,0,6.3,4.6,6.5,6.5,0,0,0,6.3-4.6,1,1,0,0,1,1-.7,1,1,0,0,1,.9.7,6.5,6.5,0,0,0,6.3,4.6,1,1,0,0,1,1,1A.9.9,0,0,1,76.8,56.2Z" style="fill:#0a6ab0"/><path d="M47.7,56.2a8.6,8.6,0,0,1-7.3-4,8.3,8.3,0,0,1-7.2,4,.9.9,0,0,1-1-1,1,1,0,0,1,1-1,6.5,6.5,0,0,0,6.3-4.6,1,1,0,0,1,.9-.7,1,1,0,0,1,1,.7,6.5,6.5,0,0,0,6.3,4.6,1,1,0,0,1,1,1A.9.9,0,0,1,47.7,56.2Z" style="fill:#0a6ab0"/></g></g></svg>