<?xml version="1.0" encoding="utf-8"?>
<!-- Generator: Adobe Illustrator 26.1.0, SVG Export Plug-In . SVG Version: 6.00 Build 0)  -->
<svg version="1.1" id="レイヤー_1" xmlns="http://www.w3.org/2000/svg" xmlns:xlink="http://www.w3.org/1999/xlink" x="0px"
	 y="0px" viewBox="0 0 110 140.1" style="enable-background:new 0 0 110 140.1;" xml:space="preserve">
<style type="text/css">
	.st0{fill:#0A6AB0;}
</style>
<path d="M21.4,130.1h-0.2c-1.5,2.2-3.5,4.1-5.7,5.6c1,0.9,2,1.8,2.9,2.8l-0.9,0.7c-1.9-2.1-4.1-3.9-6.6-5.4l0.7-0.7
	c1.1,0.6,2.1,1.3,3.1,2c1.9-1.3,3.5-2.9,4.9-4.7H9.4v-1h11.1L21.4,130.1z"/>
<path d="M33.6,131l-0.3,0.2c-1,1.2-2.1,2.3-3.4,3.3h0.2c0,0.1-0.1,0.2-0.3,0.2v5.4h-1v-4.9c-1.6,1.1-3.2,2-5,2.7l-0.6-0.8
	c3.2-1.1,6.2-3.1,8.5-5.6h-7.1v-0.9h8.2L33.6,131z M31.3,130c-1.5-0.7-3.1-1.3-4.7-1.7l0.5-0.9c1.6,0.4,3.2,1,4.7,1.7L31.3,130z
	 M31.4,134.5c1.4,0.7,2.7,1.5,4,2.5l-0.7,0.8c-1.2-1-2.6-1.9-4-2.6L31.4,134.5z"/>
<path d="M38,131.8c1.3,0.3,2.6,0.8,3.8,1.3l-0.4,0.9c-1.2-0.6-2.5-1-3.8-1.3L38,131.8z M38.9,138.7c4.4-1.5,7.6-4,9.5-8.2l0.8,0.7
	c-1.8,4.1-5.2,6.7-9.4,8.2c0,0.2,0,0.3-0.1,0.4L38.9,138.7z M39.6,128.4c1.3,0.3,2.5,0.8,3.7,1.3l-0.5,0.9c-1.2-0.6-2.4-1.1-3.7-1.4
	L39.6,128.4z M46.1,127.9c0.7,0.6,1.3,1.3,1.8,2l-0.5,0.4c-0.5-0.7-1.1-1.4-1.8-2L46.1,127.9z M48.1,127.1c0.7,0.6,1.3,1.3,1.8,2
	l-0.6,0.4c-0.5-0.7-1.1-1.4-1.7-2L48.1,127.1z"/>
<path d="M54.1,130.8c1.4,0.5,2.7,1.2,4,2c1-1.5,1.8-3.2,2.5-4.9l1.4,0.5c-0.1,0.2-0.3,0.2-0.5,0.2c-0.7,1.6-1.6,3.2-2.5,4.7
	c1,0.6,2.1,1.3,3,2.1l-0.6,0.9l-3-2.2c-1.6,2.2-3.6,4.2-5.9,5.8l-0.8-0.7c2.3-1.5,4.2-3.4,5.8-5.6l-3.9-2L54.1,130.8z"/>
<path d="M66.5,128.9c1.5,0.5,2.9,1.1,4.2,1.9l-0.5,0.9c-1.3-0.8-2.7-1.5-4.1-2L66.5,128.9z M66.5,138.6c5-1.5,8.3-4.3,9.9-8.2l1,0.6
	c-2,4.1-5.6,7.1-10,8.4l-0.2,0.3L66.5,138.6z"/>
<path d="M89.3,135.2c-1.4-0.7-3.4-1.7-4.9-2.3v7h-1v-12.1h1.4l-0.4,0.2v4.1l0.2-0.3c1.8,0.7,3.6,1.5,5.3,2.4L89.3,135.2z"/>
<path class="st0" d="M54.4,107c-3.1,0-6.3-0.3-9.4-0.8c-0.9-0.2-1.6-1-1.6-1.9l-0.2-5.4c-0.1-2.2-1.5-4-3.6-4.7l-3.2-1.3
	c-2-0.9-4.3-0.6-5.9,0.9l-3.9,3.7c-0.7,0.6-1.8,0.7-2.6,0.1c-2.3-1.7-4.5-3.5-6.5-5.5c-2.2-2.3-4.2-4.7-6-7.3
	C10.9,84,11,83,11.6,82.3l3.5-3.7c1.5-1.6,1.8-4,0.8-5.9l-1.4-3.3c-0.7-2.1-2.6-3.5-4.8-3.6l-5.1-0.2c-1,0-1.8-0.7-1.9-1.7
	C2.2,61.1,2,58.2,2,55.4c0-3.1,0.3-6.3,0.8-9.4c0.2-0.9,1-1.6,1.9-1.6l5-0.2c2.2-0.1,4.1-1.5,4.8-3.6l1.4-3.3c1-1.9,0.7-4.3-0.8-5.9
	l-3.6-3.8c-0.6-0.7-0.7-1.8-0.1-2.6c1.7-2.3,3.5-4.5,5.5-6.5c2.3-2.2,4.7-4.2,7.3-6c0.8-0.6,1.8-0.5,2.5,0.1l3.8,3.6
	c1.6,1.5,3.9,1.8,5.9,0.9l3.2-1.3c2.1-0.7,3.5-2.5,3.6-4.7l0.2-5.5c0-1,0.7-1.8,1.7-1.9c5.9-1,12-0.9,17.9,0.1
	c0.9,0.2,1.6,1,1.6,1.9l0.2,5.7c0.1,2.1,1.5,4,3.5,4.7l3.1,1.3c1.9,0.9,4.2,0.5,5.8-0.9l4.2-4c0.7-0.6,1.8-0.7,2.6-0.1
	c2.3,1.7,4.5,3.5,6.5,5.5c2.2,2.3,4.2,4.7,6,7.3c0.6,0.8,0.5,1.8-0.1,2.5l-4,4.2c-1.5,1.5-1.9,3.8-1,5.8l1.2,3
	c0.8,2,2.7,3.4,4.9,3.5l5.9,0.2c1,0,1.8,0.7,1.9,1.7c0.5,2.8,0.7,5.7,0.7,8.5c0,3.1-0.3,6.3-0.8,9.4c-0.2,0.9-1,1.6-1.9,1.6
	l-5.8,0.2c-2.2,0.1-4.1,1.5-4.9,3.5l-1.2,3c-0.9,2-0.5,4.3,1,5.8l4.1,4.3c0.6,0.7,0.7,1.8,0.1,2.6c-1.7,2.3-3.5,4.5-5.5,6.5
	c-2.3,2.2-4.7,4.2-7.3,6C83,98.1,82,98,81.3,97.4l-4.1-3.9c-1.6-1.4-3.9-1.8-5.8-0.9l-3.1,1.3c-2,0.7-3.4,2.6-3.5,4.7l-0.2,5.8
	c0,1-0.7,1.8-1.7,1.9C60.1,106.8,57.2,107,54.4,107z M47.3,102.5c4.4,0.6,8.9,0.7,13.4,0.1v-4.1c0.2-3.7,2.6-7,6.1-8.4
	c1-0.3,1.9-0.7,2.8-1.2c3.4-1.6,7.5-0.9,10.2,1.7l2.9,2.7c2-1.4,3.8-3,5.5-4.7c1.5-1.5,2.8-3,4.1-4.7l-2.9-3.1
	c-2.6-2.7-3.3-6.7-1.8-10.2l1.2-2.7c1.3-3.6,4.6-6,8.4-6.1h4.2c0.3-2.4,0.5-4.7,0.5-7.1c0-2.1-0.1-4.2-0.4-6.3h-4.2
	c-3.8-0.1-7.1-2.5-8.4-6.1l-1.2-2.7c-1.5-3.5-0.8-7.5,1.8-10.2l2.8-3c-1.4-2-3-3.8-4.7-5.5c-1.5-1.5-3-2.8-4.7-4.1l-3,2.8
	c-2.7,2.6-6.8,3.3-10.2,1.7c-0.9-0.5-1.8-0.9-2.8-1.2c-3.5-1.4-5.9-4.7-6.1-8.4v-4C56.4,7.1,51.9,7,47.4,7.6v3.8
	c-0.2,3.8-2.7,7.1-6.3,8.4l-3.1,1c-3.4,1.5-7.4,0.9-10.2-1.6l-2.6-2.5c-2,1.4-3.8,3-5.5,4.7c-1.5,1.5-2.8,3-4.1,4.7l2.4,2.6
	c2.6,2.8,3.2,6.9,1.5,10.3l-1.2,3c-1.3,3.6-4.6,6-8.4,6.2H6.5C6.2,50.6,6,53,6,55.4c0,2.1,0.1,4.2,0.4,6.3h3.5
	c3.8,0.2,7.1,2.7,8.4,6.3l1.2,3c1.7,3.4,1.1,7.5-1.5,10.3l-2.3,2.5c1.4,2,3,3.8,4.7,5.5c1.5,1.5,3,2.8,4.7,4.1l2.7-2.6
	c2.8-2.5,6.8-3.1,10.2-1.6c0.9,0.5,1.9,0.9,2.9,1.2c3.6,1.3,6.1,4.6,6.3,8.4L47.3,102.5z"/>
<path class="st0" d="M53.6,85.9c-8.2,0-16.1-3.2-21.9-9.1c-0.4-0.3-0.5-1-0.2-1.4s1-0.5,1.4-0.2c0.1,0.1,0.1,0.1,0.2,0.2
	C44.7,86.3,63,85.8,74,74.1C84.4,63,84.4,45.7,74,34.6c-0.3-0.4-0.2-1.1,0.2-1.4c0.4-0.3,0.8-0.3,1.2,0c12,12.1,12,31.7-0.1,43.7
	C69.5,82.6,61.7,85.9,53.6,85.9z"/>
<path class="st0" d="M23.7,56c-0.5,0.1-0.9-0.3-1-0.8c0-0.1,0-0.1,0-0.2c0-17.1,13.8-30.9,30.9-30.9c0.5,0,1,0.5,1,1
	c0,0.6-0.4,1-1,1c-16,0-28.9,12.9-28.9,28.9C24.7,55.6,24.3,56,23.7,56z"/>
<path class="st0" d="M53.6,72.2c-9.5,0-17.2-7.7-17.2-17.2s7.7-17.2,17.2-17.2S70.8,45.5,70.8,55l0,0C70.7,64.5,63.1,72.1,53.6,72.2
	z M53.6,41.8c-7.3,0-13.2,5.9-13.2,13.2c0,7.3,5.9,13.2,13.2,13.2c7.3,0,13.2-5.9,13.2-13.2C66.7,47.7,60.9,41.9,53.6,41.8z"/>
</svg>
