<?xml version="1.0" encoding="UTF-8"?><svg xmlns="http://www.w3.org/2000/svg" viewBox="0 0 225.7 28"><g id="a"/><g id="b"><g id="c"><g><path d="M132.2,24.2c-1,1.2-2.4,2.1-4.2,2.8-1.8,.7-3.8,1-6,1-2.3,0-4.3-.5-6.1-1.5-1.7-1-3.1-2.4-4.1-4.4s-1.5-4.2-1.5-6.7v-1.8c0-2.7,.4-5,1.3-6.9,.9-2,2.2-3.5,3.8-4.5,1.7-1,3.7-1.6,5.9-1.6,3.2,0,5.6,.7,7.4,2.2,1.8,1.5,2.9,3.7,3.2,6.6h-5.3c-.3-1.5-.8-2.6-1.6-3.3-.8-.7-2-1-3.5-1-1.9,0-3.3,.7-4.2,2.1-1,1.4-1.4,3.5-1.4,6.3v1.7c0,2.8,.6,4.9,1.6,6.3,1.1,1.4,2.6,2.1,4.7,2.1,2.1,0,3.5-.5,4.4-1.3v-4.6h-5v-4h10.5v10.6Z" style="fill:#0099d9;"/><path d="M177.6,21.8h-9.6l-1.8,5.6h-5.8L170,.7h5.1l10.2,26.5h-5.8l-1.9-5.4Zm-8.2-4.4h6.7l-3.4-10-3.2,10Z" style="fill:#0099d9;"/><polygon points="192.4 22.8 204.1 22.7 204.1 27.1 187 27.2 186.8 .6 192.3 .5 192.4 22.8" style="fill:#0099d9;"/><path d="M220.2,20c0-1-.4-1.8-1.1-2.4-.7-.6-2.1-1.1-4-1.7-1.9-.6-3.4-1.2-4.5-1.8-3-1.6-4.6-3.8-4.6-6.6,0-1.4,.4-2.7,1.2-3.9,.8-1.1,2-2,3.5-2.7C212.2,.3,213.9,0,215.8,0c1.9,0,3.6,.3,5.1,1,1.5,.7,2.7,1.6,3.5,2.9,.8,1.3,1.3,2.7,1.3,4.3h-5.5c0-1.2-.4-2.1-1.2-2.8-.8-.7-1.9-1-3.2-1-1.3,0-2.4,.3-3.1,.9-.7,.6-1.1,1.3-1.1,2.2,0,.9,.4,1.6,1.3,2.2,.9,.6,2.2,1.1,3.9,1.6,3.1,.9,5.4,2.1,6.9,3.4,1.4,1.4,2.2,3.1,2.2,5.2,0,2.3-.8,4.1-2.6,5.4-1.7,1.3-4.1,2-7,2-2,0-3.9-.3-5.6-1.1-1.7-.7-3-1.8-3.9-3.1-.9-1.3-1.3-2.8-1.4-4.5h5.5c0,2.9,1.8,4.4,5.3,4.3,1.3,0,2.3-.3,3.1-.8,.7-.5,1.1-1.3,1.1-2.2" style="fill:#0099d9;"/><path d="M160,8.7l-5.3,2.6c.3,.6,.4,1.2,.5,1.9l5.9-.6c-.2-1.4-.6-2.7-1.1-3.9" style="fill:#c60f28;"/><path d="M155.3,14.3c0,.6,0,1.1-.2,1.6l5.7,1.6c.3-1,.4-2.1,.4-3.3s0-.6,0-.8l-5.9,.6c0,0,0,.2,0,.3" style="fill:#e83819;"/><path d="M154.9,16.7c-.2,.6-.5,1.2-.8,1.7l4.7,3.6c.8-1.1,1.4-2.3,1.8-3.6l-5.7-1.6Z" style="fill:#00a6d9;"/><path d="M141.1,10.4c.3-.6,.7-1.1,1.2-1.6l-4-4.4c-1,1-1.9,2.1-2.5,3.3l5.3,2.6Z" style="fill:#28a838;"/><path d="M150.9,7.3c.6,.3,1.2,.6,1.7,1l4-4.4c-1-.9-2.2-1.7-3.5-2.2l-2.1,5.5Z" style="fill:#d7a600;"/><path d="M154.3,10.5l5.3-2.6c-.7-1.2-1.5-2.3-2.5-3.3l-4,4.4c.5,.5,.9,1,1.2,1.6" style="fill:#00973b;"/><path d="M140.1,14.3c0-.1,0-.2,0-.4l-5.9-.5c0,.3,0,.6,0,.9,0,1.1,.1,2.2,.4,3.3l5.7-1.6c-.1-.5-.2-1.1-.2-1.6" style="fill:#427935;"/><path d="M153.6,19.1c-.4,.5-.9,1-1.4,1.3l3.1,5c1.2-.8,2.2-1.7,3-2.8l-4.7-3.6Z" style="fill:#fabd00;"/><path d="M141.9,19.2l-4.7,3.6c.9,1.1,1.9,2,3.1,2.8l3.1-5c-.5-.4-1-.8-1.5-1.3" style="fill:#f5a200;"/><path d="M140.2,13.1c.1-.7,.3-1.3,.6-1.9l-5.3-2.6c-.6,1.2-1,2.6-1.2,4l5.9,.5Z" style="fill:#0075ba;"/><path d="M154.5,25.9l-3.1-5c-.6,.3-1.2,.6-1.8,.7l1.1,5.8c1.4-.3,2.6-.8,3.8-1.5" style="fill:#970b31;"/><path d="M148.8,21.8c-.4,0-.7,0-1.1,0s-.6,0-.9,0l-1.1,5.8c.6,0,1.3,.1,2,.1s1.5,0,2.2-.2l-1.1-5.8Z" style="fill:#ed6a02;"/><path d="M148.2,6.7c.7,0,1.3,.2,1.9,.4l2.1-5.5c-1.3-.4-2.6-.7-4-.8V6.7Z" style="fill:#e5001e;"/><path d="M146,21.7c-.7-.2-1.3-.4-1.9-.7l-3.1,5c1.2,.7,2.5,1.2,3.9,1.5l1.1-5.8Z" style="fill:#dc007a;"/><path d="M145.4,7c.6-.2,1.3-.3,1.9-.3V.8c-1.4,0-2.8,.3-4.1,.7l2.1,5.5Z" style="fill:#003067;"/><path d="M141.4,18.5c-.4-.6-.7-1.2-.9-1.8l-5.7,1.6c.4,1.4,1.1,2.6,1.9,3.7l4.7-3.6Z" style="fill:#d39200;"/><path d="M143,8.3c.5-.4,1-.7,1.6-1l-2.1-5.5c-1.3,.5-2.4,1.3-3.5,2.1l4,4.4Z" style="fill:#004c88;"/><path d="M6.2,9.4c0-.4-.1-.7-.4-.9-.3-.2-.8-.5-1.5-.7-.7-.2-1.3-.5-1.7-.7C1.1,6.4,.3,5.4,.3,4.1s.2-1.2,.5-1.7c.4-.5,.9-.9,1.6-1.1,.7-.3,1.4-.4,2.3-.4s1.6,.1,2.2,.4c.6,.3,1.2,.7,1.5,1.2,.4,.5,.5,1.2,.5,1.8h-2.7c0-.5-.1-.8-.4-1.1-.3-.3-.7-.4-1.2-.4s-.9,.1-1.2,.3c-.3,.2-.4,.5-.4,.8s.2,.6,.5,.8c.3,.2,.9,.5,1.6,.7,.8,.3,1.4,.5,1.9,.8,1.2,.7,1.8,1.7,1.8,2.9s-.4,1.8-1.1,2.3c-.8,.6-1.8,.9-3.1,.9s-1.8-.2-2.5-.5c-.7-.3-1.3-.8-1.7-1.4-.4-.6-.6-1.2-.6-2H2.7c0,.6,.2,1.1,.5,1.3,.3,.3,.8,.4,1.5,.4s.8,0,1.1-.3c.3-.2,.4-.5,.4-.8" style="fill:#0099d9;"/><path d="M19.4,1.1v7.4c0,.8-.2,1.6-.5,2.2-.4,.6-.9,1.1-1.5,1.4-.7,.3-1.5,.5-2.4,.5-1.4,0-2.5-.4-3.3-1.1-.8-.7-1.2-1.7-1.2-3V1.1h2.8v7.5c0,1.2,.6,1.9,1.7,1.9s1-.2,1.3-.5c.3-.3,.4-.8,.4-1.5V1.1h2.7Z" style="fill:#0099d9;"/><path d="M27.2,9.4c0-.4-.1-.7-.4-.9-.3-.2-.8-.5-1.5-.7-.7-.2-1.3-.5-1.7-.7-1.5-.7-2.2-1.7-2.2-3s.2-1.2,.5-1.7c.4-.5,.9-.9,1.6-1.1,.7-.3,1.4-.4,2.3-.4s1.5,.1,2.2,.4c.6,.3,1.2,.7,1.5,1.2,.4,.5,.5,1.2,.5,1.8h-2.7c0-.5-.1-.8-.4-1.1-.3-.3-.7-.4-1.2-.4s-.9,.1-1.2,.3c-.3,.2-.4,.5-.4,.8s.2,.6,.5,.8c.3,.2,.9,.5,1.6,.7,.8,.3,1.4,.5,1.9,.8,1.2,.7,1.8,1.7,1.8,2.9s-.4,1.8-1.1,2.3c-.8,.6-1.8,.9-3.1,.9s-1.8-.2-2.5-.5c-.7-.3-1.3-.8-1.7-1.4-.4-.6-.6-1.2-.6-2h2.7c0,.6,.2,1.1,.5,1.3,.3,.3,.8,.4,1.5,.4s.8,0,1.1-.3c.3-.2,.4-.5,.4-.8" style="fill:#0099d9;"/><polygon points="40.4 3.2 37 3.2 37 12.4 34.2 12.4 34.2 3.2 30.9 3.2 30.9 1.1 40.4 1.1 40.4 3.2" style="fill:#0099d9;"/><path d="M47.2,10.3h-3.8l-.7,2.1h-2.9L44.1,1.1h2.6l4.2,11.4h-2.9l-.7-2.1Zm-3.1-2.1h2.4l-1.2-3.9-1.2,3.9Z" style="fill:#0099d9;"/><rect x="52" y="1.1" width="2.7" height="11.4" style="fill:#0099d9;"/><polygon points="66.3 12.4 63.6 12.4 59.5 5.4 59.5 12.4 56.8 12.4 56.8 1.1 59.5 1.1 63.6 8.1 63.6 1.1 66.3 1.1 66.3 12.4" style="fill:#0099d9;"/><path d="M74.8,10.3h-3.8l-.7,2.1h-2.9l4.2-11.4h2.6l4.2,11.4h-2.9l-.7-2.1Zm-3.1-2.1h2.4l-1.2-3.9-1.2,3.9Z" style="fill:#0099d9;"/><path d="M79.4,12.4V1.1h4.1c1.5,0,2.6,.3,3.3,.8,.8,.5,1.1,1.3,1.1,2.3s-.1,1.1-.4,1.5c-.3,.4-.7,.7-1.2,.9,.6,.2,1,.4,1.4,.9,.3,.4,.5,.9,.5,1.6,0,1.1-.4,1.9-1.1,2.5-.7,.6-1.7,.8-3.1,.9h-4.6Zm2.7-6.6h1.4c.6,0,1-.1,1.3-.3,.3-.2,.4-.5,.4-.9s-.1-.8-.4-1c-.3-.2-.7-.3-1.3-.3h-1.3v2.6Zm0,1.8v2.7h1.8c.5,0,.9-.1,1.1-.3,.3-.2,.4-.5,.4-1,0-.9-.5-1.4-1.4-1.4h-1.9Z" style="fill:#0099d9;"/><polygon points="92.6 10.3 97.3 10.3 97.3 12.4 89.8 12.4 89.8 1.1 92.6 1.1 92.6 10.3" style="fill:#0099d9;"/><polygon points="105.7 7.6 101.4 7.6 101.4 10.3 106.5 10.3 106.5 12.4 98.7 12.4 98.7 1.1 106.5 1.1 106.5 3.2 101.4 3.2 101.4 5.6 105.7 5.6 105.7 7.6" style="fill:#0099d9;"/><path d="M.3,27.8v-11.1H3.9c1,0,1.9,.2,2.7,.7,.8,.4,1.4,1.1,1.8,1.9,.4,.8,.7,1.7,.7,2.7v.5c0,1-.2,1.9-.6,2.7-.4,.8-1,1.4-1.8,1.9-.8,.5-1.7,.7-2.6,.7H.3Zm2.7-9.1v7h.9c.8,0,1.4-.3,1.8-.8,.4-.5,.6-1.4,.6-2.4v-.5c0-1.1-.2-1.9-.6-2.4-.4-.5-1-.8-1.8-.8h-.9Z" style="fill:#0099d9;"/><polygon points="16.8 23.1 12.8 23.1 12.8 25.7 17.6 25.7 17.6 27.8 10.2 27.8 10.2 16.7 17.6 16.7 17.6 18.7 12.8 18.7 12.8 21.1 16.8 21.1 16.8 23.1" style="fill:#0099d9;"/><polygon points="23.4 24.8 25.7 16.7 28.7 16.7 24.9 27.8 22 27.8 18.3 16.7 21.2 16.7 23.4 24.8" style="fill:#0099d9;"/><polygon points="36.1 23.1 32.1 23.1 32.1 25.7 36.8 25.7 36.8 27.8 29.5 27.8 29.5 16.7 36.8 16.7 36.8 18.7 32.1 18.7 32.1 21.1 36.1 21.1 36.1 23.1" style="fill:#0099d9;"/><polygon points="40.4 25.7 44.7 25.7 44.7 27.8 37.7 27.8 37.7 16.7 40.4 16.7 40.4 25.7" style="fill:#0099d9;"/><path d="M54.7,22.5c0,1.1-.2,2-.6,2.9-.4,.8-1,1.5-1.7,1.9-.7,.5-1.6,.7-2.5,.7s-1.8-.2-2.5-.7c-.7-.4-1.3-1.1-1.7-1.9-.4-.8-.6-1.7-.6-2.8v-.6c0-1.1,.2-2.1,.6-2.9,.4-.8,1-1.5,1.7-1.9,.7-.5,1.6-.7,2.6-.7s1.8,.2,2.5,.7c.7,.4,1.3,1.1,1.7,1.9,.4,.8,.6,1.8,.6,2.8v.5Zm-2.7-.5c0-1.1-.2-1.9-.6-2.5-.4-.6-.9-.9-1.6-.9-1.3,0-2.1,1-2.1,3v.8c0,1.1,.2,1.9,.5,2.5,.4,.6,.9,.9,1.6,.9s1.2-.3,1.6-.9c.4-.6,.6-1.4,.6-2.5v-.5Z" style="fill:#0099d9;"/><path d="M58.4,24v3.8h-2.7v-11.1h4.4c.9,0,1.6,.2,2.3,.5,.7,.3,1.2,.8,1.5,1.3,.4,.6,.5,1.2,.5,2,0,1.1-.4,2-1.2,2.6-.8,.7-1.8,1-3.2,1h-1.7Zm0-2.1h1.8c.5,0,.9-.1,1.2-.4,.3-.3,.4-.6,.4-1.1s-.1-.9-.4-1.2c-.3-.3-.7-.5-1.1-.5h-1.8v3.2Z" style="fill:#0099d9;"/><polygon points="69 16.7 71.5 24.4 74 16.7 77.5 16.7 77.5 27.8 74.8 27.8 74.8 25.2 75.1 19.9 72.4 27.8 70.6 27.8 67.9 19.9 68.2 25.2 68.2 27.8 65.5 27.8 65.5 16.7 69 16.7" style="fill:#0099d9;"/><polygon points="85.3 23.1 81.4 23.1 81.4 25.7 86.1 25.7 86.1 27.8 78.7 27.8 78.7 16.7 86.1 16.7 86.1 18.7 81.4 18.7 81.4 21.1 85.3 21.1 85.3 23.1" style="fill:#0099d9;"/><polygon points="96.3 27.8 93.6 27.8 89.7 20.9 89.7 27.8 87 27.8 87 16.7 89.7 16.7 93.6 23.6 93.6 16.7 96.3 16.7 96.3 27.8" style="fill:#0099d9;"/><polygon points="106.5 18.7 103.2 18.7 103.2 27.8 100.5 27.8 100.5 18.7 97.2 18.7 97.2 16.7 106.5 16.7 106.5 18.7" style="fill:#0099d9;"/></g></g></g></svg>