<svg xmlns="http://www.w3.org/2000/svg" xmlns:xlink="http://www.w3.org/1999/xlink" width="500.675" height="38.754" viewBox="0 0 500.675 38.754">
  <defs>
    <clipPath id="clip-path">
      <rect id="長方形_1587" data-name="長方形 1587" width="500.675" height="38.754" fill="none"/>
    </clipPath>
  </defs>
  <g id="グループ_1735" data-name="グループ 1735" transform="translate(0 0)">
    <g id="グループ_1734" data-name="グループ 1734" transform="translate(0 0)" clip-path="url(#clip-path)">
      <path id="パス_784" data-name="パス 784" d="M19.379,0A19.377,19.377,0,1,0,38.751,19.374,19.369,19.369,0,0,0,19.379,0m0,36.431A17.056,17.056,0,1,1,36.435,19.374,17.055,17.055,0,0,1,19.379,36.431" transform="translate(0 0)" fill="#005fb1"/>
      <rect id="長方形_1573" data-name="長方形 1573" width="11.188" height="2.731" transform="translate(13.784 18.01)" fill="#005fb1"/>
      <rect id="長方形_1574" data-name="長方形 1574" width="11.188" height="2.733" transform="translate(13.784 13.646)" fill="#005fb1"/>
      <path id="パス_785" data-name="パス 785" d="M37.489,18.581l-1.774-1.77-1.981,1.915L22.407,7.4l1.909-1.979L22.544,3.644,20.57,5.617,18.592,3.644,16.823,5.419l1.9,1.979L7.4,18.726,5.424,16.812l-1.773,1.77,1.982,1.981L3.651,22.546l1.773,1.768L7.4,22.409,18.726,33.731l-1.9,1.979,1.769,1.777L20.57,35.5l1.974,1.983,1.773-1.777-1.909-1.979L33.735,22.409l1.981,1.906,1.774-1.768-1.983-1.983ZM20.57,31.885l-5.6-5.591H26.162Zm5.593-5.591v-2.73H14.974v2.73L9.248,20.563l5.727-5.729,5.6-5.589L31.9,20.563Z" transform="translate(-1.191 -1.188)" fill="#005fb1"/>
      <rect id="長方形_1575" data-name="長方形 1575" width="21.131" height="2.636" transform="translate(50.302 8.219)" fill="#005fb1"/>
      <rect id="長方形_1576" data-name="長方形 1576" width="18.452" height="2.632" transform="translate(51.642 17.874)" fill="#005fb1"/>
      <rect id="長方形_1577" data-name="長方形 1577" width="24.417" height="2.632" transform="translate(48.658 28.117)" fill="#005fb1"/>
      <path id="パス_786" data-name="パス 786" d="M132.137,23.86V17.419a.331.331,0,0,1,.332-.328h5.285V15.117h-5.285a.333.333,0,0,1-.332-.332V10.053H129.5v4.731a.329.329,0,0,1-.328.332h-6.868a.333.333,0,0,1-.332-.332V10.053H119.34v4.731a.331.331,0,0,1-.328.332H113.7V17.09h5.307a.329.329,0,0,1,.328.328V23.86a.328.328,0,0,1-.328.328h-5.727v1.974h5.727a.333.333,0,0,1,.328.333c0,2.843-2.263,6.291-5.233,6.72v2c4.87-.192,7.867-4.616,7.867-8.722a.335.335,0,0,1,.332-.333h6.868a.331.331,0,0,1,.328.333v8.534h2.635V26.495a.335.335,0,0,1,.332-.333h5.705V24.188h-5.705a.33.33,0,0,1-.332-.328m-2.635,0a.326.326,0,0,1-.328.328h-6.868a.33.33,0,0,1-.332-.328V17.419a.331.331,0,0,1,.332-.328h6.868a.327.327,0,0,1,.328.328Z" transform="translate(-36.943 -3.278)" fill="#005fb1"/>
      <path id="パス_787" data-name="パス 787" d="M197.44,11.6V35.533h2.632V13.9a.331.331,0,0,1,.33-.328h16.956a.333.333,0,0,1,.331.328V32c0,.64-.706,2-2.759,2.135v1.983c3.626-.077,5.39-1.424,5.39-4.118V11.6Z" transform="translate(-64.387 -3.782)" fill="#005fb1"/>
      <rect id="長方形_1578" data-name="長方形 1578" width="9.911" height="1.977" transform="translate(139.54 12.584)" fill="#005fb1"/>
      <path id="パス_788" data-name="パス 788" d="M207.066,34.743h9.911v-9h-9.911Zm2.634-6.689a.331.331,0,0,1,.33-.33h3.98a.328.328,0,0,1,.327.33v4.38a.327.327,0,0,1-.327.33h-3.98a.331.331,0,0,1-.33-.33Z" transform="translate(-67.526 -8.396)" fill="#005fb1"/>
      <path id="パス_789" data-name="パス 789" d="M180.37,24.188h-5.708a.328.328,0,0,1-.33-.328V17.419a.329.329,0,0,1,.33-.328h5.285V15.117h-5.285a.331.331,0,0,1-.33-.332V10.053H171.7v4.731a.329.329,0,0,1-.328.332H164.5a.331.331,0,0,1-.33-.332V10.053h-2.636v4.731a.33.33,0,0,1-.329.332H155.9V17.09H161.2a.328.328,0,0,1,.329.328V23.86a.327.327,0,0,1-.329.328H155.48v1.974h24.89Zm-8.67-.328a.326.326,0,0,1-.328.328H164.5a.329.329,0,0,1-.33-.328V17.419a.329.329,0,0,1,.33-.328h6.872a.327.327,0,0,1,.328.328Z" transform="translate(-50.703 -3.278)" fill="#005fb1"/>
      <path id="パス_790" data-name="パス 790" d="M154.941,41.906v1.978c7.787-.133,8.954-4.868,9.046-7.264h-2.634c-.132,3.374-2.34,5.2-6.411,5.286" transform="translate(-50.528 -11.942)" fill="#005fb1"/>
      <path id="パス_791" data-name="パス 791" d="M182.189,36.621h-2.634c.092,2.4,1.262,7.131,9.046,7.263V41.907c-4.071-.09-6.275-1.913-6.411-5.286" transform="translate(-58.554 -11.942)" fill="#005fb1"/>
      <path id="パス_792" data-name="パス 792" d="M255.56,14.076v1.142a.328.328,0,0,1-.33.33h-7.405v1.977h7.405a.33.33,0,0,1,.33.329V19a.33.33,0,0,1-.33.328h-4.921V21.3h4.921a.328.328,0,0,1,.33.33V22.77a.328.328,0,0,1-.33.328h-4.921v1.979h4.921a.33.33,0,0,1,.33.33v1.138a.33.33,0,0,1-.33.329h-6.9v1.978h6.9a.328.328,0,0,1,.33.328v2.057h2.634V29.179a.329.329,0,0,1,.329-.328h6.155V26.873h-6.155a.331.331,0,0,1-.329-.329V25.407a.331.331,0,0,1,.329-.33h4.706V23.1h-4.706a.329.329,0,0,1-.329-.328V21.628a.329.329,0,0,1,.329-.33h5.4V17.853a.331.331,0,0,1,.333-.329h.929V15.548h-.929a.329.329,0,0,1-.333-.33V11.774h-5.4a.331.331,0,0,1-.329-.33V10.052H255.56v1.392a.33.33,0,0,1-.33.33h-4.921v1.974h4.921a.333.333,0,0,1,.33.328m2.634,0a.334.334,0,0,1,.329-.328h2.442a.333.333,0,0,1,.331.328v1.142a.328.328,0,0,1-.331.33h-2.442a.329.329,0,0,1-.329-.33Zm0,3.777a.331.331,0,0,1,.329-.329h2.442a.33.33,0,0,1,.331.329V19a.33.33,0,0,1-.331.328h-2.442a.331.331,0,0,1-.329-.328Z" transform="translate(-80.817 -3.278)" fill="#005fb1"/>
      <path id="パス_793" data-name="パス 793" d="M242.495,29.97a.325.325,0,0,1-.09-.413,19.346,19.346,0,0,0,2.43-7.934V19.317H241a.323.323,0,0,1-.281-.16.346.346,0,0,1,0-.335l3.127-5.459a.378.378,0,0,1,.054-.069l.682-1.21a.27.27,0,0,1,.018-.046l.457-.815h-7.556V13.2h3.6a.328.328,0,0,1,.284.495l-4.725,8.216h2.3l.255-.449a.335.335,0,0,1,.29-.168h3.039a.328.328,0,0,1,.328.33,15.611,15.611,0,0,1-1.842,6.226.315.315,0,0,1-.264.185.319.319,0,0,1-.294-.132,8.293,8.293,0,0,1-1.566-3.474h-1.356a9.448,9.448,0,0,0,2.134,5.452.337.337,0,0,1,.025.378c-.2.334-1.844,2.99-2.809,3.582v1.385c1.662-.323,3.171-2.024,4.173-3.45a.3.3,0,0,1,.22-.135.316.316,0,0,1,.251.066,16.75,16.75,0,0,0,10.54,3.25h9.9V32.98h-9.9a15.113,15.113,0,0,1-9.579-3.01" transform="translate(-77.174 -3.66)" fill="#005fb1"/>
      <rect id="長方形_1579" data-name="長方形 1579" width="6.861" height="1.975" transform="translate(189.645 7.192)" fill="#005fb1"/>
      <rect id="長方形_1580" data-name="長方形 1580" width="7.987" height="1.977" transform="translate(189.08 14.873)" fill="#005fb1"/>
      <rect id="長方形_1581" data-name="長方形 1581" width="7.987" height="1.975" transform="translate(189.08 18.716)" fill="#005fb1"/>
      <path id="パス_794" data-name="パス 794" d="M280.579,42.712h7.987v-9.24h-7.987Zm2.62-6.936a.331.331,0,0,1,.328-.328h2.093a.329.329,0,0,1,.33.328v4.629a.328.328,0,0,1-.33.33h-2.093a.329.329,0,0,1-.328-.33Z" transform="translate(-91.499 -10.915)" fill="#005fb1"/>
      <rect id="長方形_1582" data-name="長方形 1582" width="9.988" height="1.981" transform="translate(188.081 11.029)" fill="#005fb1"/>
      <path id="パス_795" data-name="パス 795" d="M307.733,17.54a.348.348,0,0,1-.33.352h-1.817a.326.326,0,0,1-.328-.305l-.006-6.914h-8.482v5.192c0,1.751-.776,3.312-1.722,3.61v2.009c2.1-.226,3.7-2.614,3.7-5.619v-2.89a.331.331,0,0,1,.333-.328h3.9a.321.321,0,0,1,.235.1.334.334,0,0,1,.094.239c-.03,1.049-.03,2.51-.03,4.557a2.122,2.122,0,0,0,2.025,2.33h2.557c1.138,0,1.846-1.211,1.846-2.33v-1h-1.976Z" transform="translate(-96.218 -3.48)" fill="#005fb1"/>
      <path id="パス_796" data-name="パス 796" d="M303.136,37.03a.326.326,0,0,1,.1-.272,11.87,11.87,0,0,0,4.049-8.43v-.554H295.923v1.974h8.613a.334.334,0,0,1,.331.331c0,1.384-1.292,3.524-3.293,5.456a.328.328,0,0,1-.46,0,8.947,8.947,0,0,1-2.481-4.027h-1.993a9.619,9.619,0,0,0,2.863,5.252.36.36,0,0,1,.1.268.335.335,0,0,1-.146.239,9.137,9.137,0,0,1-4.408,1.754v1.652a12.208,12.208,0,0,0,6.138-2.254.312.312,0,0,1,.184-.057.3.3,0,0,1,.181.057,13.715,13.715,0,0,0,7.223,2.256V39.021a11,11,0,0,1-5.485-1.748.34.34,0,0,1-.154-.243" transform="translate(-96.218 -9.057)" fill="#005fb1"/>
      <path id="パス_797" data-name="パス 797" d="M322.072,14.582h17.045a.331.331,0,0,1,.33.328V31.8a.328.328,0,0,1-.33.328H322.072v1.978h20.01v-21.5h-20.01Z" transform="translate(-105.03 -4.112)" fill="#005fb1"/>
      <rect id="長方形_1583" data-name="長方形 1583" width="7.845" height="1.974" transform="translate(242.611 8.496)" fill="#005fb1"/>
      <path id="パス_798" data-name="パス 798" d="M360.015,35.158v2.634c12.754-.106,21.024-6.526,21.2-16.439h-2c-.809,9.367-10.416,13.7-19.208,13.805" transform="translate(-117.404 -6.963)" fill="#005fb1"/>
      <rect id="長方形_1584" data-name="長方形 1584" width="7.852" height="1.974" transform="translate(346.923 8.496)" fill="#005fb1"/>
      <path id="パス_799" data-name="パス 799" d="M514.8,35.158v2.634c12.759-.106,21.023-6.526,21.2-16.439h-2.63c-.2,10.048-9.627,13.715-18.574,13.805" transform="translate(-167.882 -6.963)" fill="#005fb1"/>
      <path id="パス_800" data-name="パス 800" d="M479.3,14.59c0,4.007-1.716,7.56-2.957,8.135v2.041c1.588-.166,3.095-1.482,4.176-3.673a.319.319,0,0,1,.294-.181h13.069a.329.329,0,0,1,.328.365c-.869,7.735-4.842,11.09-13.269,11.174v1.979c11.275-.1,16.093-5.128,16.093-16.77v-6.62H479.3Zm2.148,3.935a16,16,0,0,0,.487-3.935V13.347a.329.329,0,0,1,.328-.33h11.8a.333.333,0,0,1,.334.33v4.312c0,.23-.011.445-.019.66l0,.294a.334.334,0,0,1-.333.319H481.765a.316.316,0,0,1-.255-.128.325.325,0,0,1-.065-.281" transform="translate(-155.338 -3.6)" fill="#005fb1"/>
      <path id="パス_801" data-name="パス 801" d="M416.036,16.612V11.868H413.4v4.744a.329.329,0,0,1-.328.328h-8.842a.327.327,0,0,1-.329-.328V11.868H401.27v4.744a.33.33,0,0,1-.332.328h-3.854v1.978h3.854a.332.332,0,0,1,.332.33v6.143H403.9V19.248a.329.329,0,0,1,.329-.33h8.842a.331.331,0,0,1,.328.33v6.473a7.81,7.81,0,0,1-7.934,8.114v1.977c6.337-.136,10.569-4.156,10.569-10.091V19.248a.331.331,0,0,1,.332-.33h4.021V16.94h-4.021a.329.329,0,0,1-.332-.328" transform="translate(-129.492 -3.87)" fill="#005fb1"/>
      <path id="パス_802" data-name="パス 802" d="M439.338,25.721c0,4.553-2.3,7.9-5.535,8.106v1.98c4.825-.179,8.167-4.275,8.167-10.086V11.867h-2.632Z" transform="translate(-141.467 -3.87)" fill="#005fb1"/>
      <path id="パス_803" data-name="パス 803" d="M456.969,32.978a.326.326,0,0,1-.4-.32V11.868h-2.633V35.812h1.316c4.573,0,11.157-3.495,11.379-9.826h-2.02c-.807,4.092-4.593,6.322-7.644,6.992" transform="translate(-148.033 -3.87)" fill="#005fb1"/>
      <rect id="長方形_1585" data-name="長方形 1585" width="12.464" height="1.977" transform="translate(453.694 14.873)" fill="#005fb1"/>
      <path id="パス_804" data-name="パス 804" d="M661.447,19.982v2.551l14-9.68a.337.337,0,0,1,.373,0l14,9.68V19.982L675.629,9.523Z" transform="translate(-215.703 -3.105)" fill="#005fb1"/>
      <path id="パス_805" data-name="パス 805" d="M665.215,31.316h6.016a.331.331,0,0,1,.256.54l-5.326,6.564v2.189h21.388V38.415l-3.516-4.336H680.8l3.262,4.017a.339.339,0,0,1,.039.35.332.332,0,0,1-.3.187H669.921a.346.346,0,0,1-.3-.187.334.334,0,0,1,.044-.35l5.4-6.659a.323.323,0,0,1,.255-.121H688.5V29.342h-23.29Z" transform="translate(-216.932 -9.569)" fill="#005fb1"/>
      <path id="パス_806" data-name="パス 806" d="M640.728,14.854c-.094-1.556-.14-3.117-.146-4.638h-2.634c0,1.1.038,2.712.146,4.6a.327.327,0,0,1-.086.241.356.356,0,0,1-.244.108H623.247v1.973h14.717a.334.334,0,0,1,.33.294c.74,8,2.924,17.5,9.062,17.831V33.221c-4.443-1.367-5.935-10.393-6.428-15.719a.3.3,0,0,1,.08-.251.33.33,0,0,1,.243-.107h6.1V15.17h-6.3a.331.331,0,0,1-.323-.315" transform="translate(-203.246 -3.331)" fill="#005fb1"/>
      <path id="パス_807" data-name="パス 807" d="M632.108,35.91a.34.34,0,0,1-.12-.261v-6.3a.323.323,0,0,1,.325-.328H636.9V27.043H624.434v1.978h4.589a.326.326,0,0,1,.327.328v7.008a.334.334,0,0,1-.256.32l-4.932,1.057v2.016l13.355-2.856v-2.02l-5.132,1.1a.346.346,0,0,1-.277-.063" transform="translate(-203.544 -8.819)" fill="#005fb1"/>
      <rect id="長方形_1586" data-name="長方形 1586" width="3.328" height="1.804" transform="translate(439.733 7.835)" fill="#005fb1"/>
      <path id="パス_808" data-name="パス 808" d="M729.957,32.342a.333.333,0,0,1-.333-.328V21.041a.334.334,0,0,1,.333-.328h4.628V18.738h-4.628a.334.334,0,0,1-.333-.33V10.052h-2.63v8.357a.331.331,0,0,1-.334.33h-4.625v1.975h4.625a.332.332,0,0,1,.334.328V32.014a.33.33,0,0,1-.334.328h-5.8v1.977h14.89V32.342Z" transform="translate(-235.08 -3.278)" fill="#005fb1"/>
      <path id="パス_809" data-name="パス 809" d="M715.478,24.817,712.8,21.465a.325.325,0,0,1-.008-.4,29.907,29.907,0,0,0,3.739-6.37h-4.212a.336.336,0,0,1-.334-.333V10.216h-2.63v4.147a.335.335,0,0,1-.332.333H705.4v1.972h6.722a.331.331,0,0,1,.284.168.346.346,0,0,1,0,.332c-2.309,3.854-6.727,8.9-8.227,9.737v2.123a13.807,13.807,0,0,0,4.611-3.321.342.342,0,0,1,.359-.068.332.332,0,0,1,.2.307v9.067h2.63V25.119a.329.329,0,0,1,.2-.3.321.321,0,0,1,.362.079l2.931,3.1Z" transform="translate(-229.637 -3.331)" fill="#005fb1"/>
      <path id="パス_810" data-name="パス 810" d="M553.049,34.691h2.634V22.567a.329.329,0,0,1,.118-.25.323.323,0,0,1,.265-.074l12.97,2.119V22.175l-13.078-2.134a.331.331,0,0,1-.275-.325v-8.3h-2.634Z" transform="translate(-180.354 -3.723)" fill="#005fb1"/>
      <path id="パス_811" data-name="パス 811" d="M601.637,35.108h2.632V27.4a.329.329,0,0,1,.588-.2c2.4,3.064,5.19,5.513,6.617,5.859l.078-2.029c-1.594-.728-4.967-4.576-6.551-6.952a.334.334,0,0,1-.015-.338.331.331,0,0,1,.289-.174h5.618V21.587H604.6a.33.33,0,0,1-.33-.329v-4.44a.33.33,0,0,1,.33-.329h5.616V14.513H604.6a.33.33,0,0,1-.33-.329V10.217h-2.632v3.967a.33.33,0,0,1-.329.329H599.57a.331.331,0,0,1-.323-.4,21.66,21.66,0,0,0,.493-2.989h-1.969c-.1,2.227-1.1,6.5-2,7.857v1.688c1.247-.464,2.163-2.367,2.727-3.959a.33.33,0,0,1,.311-.218h2.494a.33.33,0,0,1,.329.329v4.44a.33.33,0,0,1-.329.329h-5.836v1.976h5.111a.331.331,0,0,1,.29.176.335.335,0,0,1-.019.34c-1.652,2.384-5.1,6.176-6.409,6.922v2.052c1.431-.359,4.207-2.8,6.6-5.855a.333.333,0,0,1,.367-.107.329.329,0,0,1,.221.31Z" transform="translate(-193.854 -3.332)" fill="#005fb1"/>
      <path id="パス_812" data-name="パス 812" d="M585.043,35.108h2.632V23.585a.33.33,0,0,1,.57-.225l1.748,1.848V22.032l-2.245-2.8a.323.323,0,0,1-.073-.206V17.907a.331.331,0,0,1,.33-.33h2.487V15.6h-2.487a.331.331,0,0,1-.33-.33V10.217h-2.632v5.056a.33.33,0,0,1-.329.33h-3.342v1.975h3.264a.33.33,0,0,1,.311.433c-1.339,4.081-3.34,8.02-4.452,8.839v2.016c1.187-.442,2.6-1.936,3.935-4.189a.329.329,0,0,1,.613.168Z" transform="translate(-189.304 -3.332)" fill="#005fb1"/>
    </g>
  </g>
</svg>
