<?xml version="1.0" encoding="utf-8"?>
<!-- Generator: Adobe Illustrator 26.0.3, SVG Export Plug-In . SVG Version: 6.00 Build 0)  -->
<svg version="1.1" id="レイヤー_1" xmlns="http://www.w3.org/2000/svg" xmlns:xlink="http://www.w3.org/1999/xlink" x="0px"
	 y="0px" viewBox="0 0 110 140.1" style="enable-background:new 0 0 110 140.1;" xml:space="preserve">
<style type="text/css">
	.st0{fill:none;}
	.st1{fill:#0A6AB0;}
	.st2{fill:#231815;}
	.st3{font-family:'Roboto-Bold';}
	.st4{font-size:13px;}
	.st5{font-family:'ShinGoPro-Regular-90ms-RKSJ-H';}
	.st6{letter-spacing:-6;}
</style>
<g id="レイヤー_2_00000070816252768914055980000003511263511081431460_">
	<g id="レイヤー_1-2">
		<rect y="0" class="st0" width="110" height="110"/>
		<path class="st1" d="M55.4,107c-3.1,0-6.3-0.3-9.4-0.8c-0.9-0.2-1.6-1-1.6-1.9l-0.2-5.4c-0.1-2.2-1.5-4-3.6-4.7l-3.2-1.3
			c-2-0.9-4.3-0.6-5.9,0.9l-3.9,3.7c-0.7,0.6-1.8,0.7-2.6,0.1c-2.3-1.7-4.5-3.5-6.5-5.5c-2.2-2.3-4.2-4.7-6-7.3
			C11.9,84,12,83,12.6,82.3l3.5-3.7c1.5-1.6,1.8-4,0.8-5.9l-1.4-3.3c-0.7-2.1-2.6-3.5-4.8-3.6l-5.1-0.2c-1,0-1.8-0.7-1.9-1.7
			C3.2,61.1,3,58.2,3,55.4c0-3.1,0.3-6.3,0.8-9.4c0.2-0.9,1-1.6,1.9-1.6l5-0.2c2.2-0.1,4.1-1.5,4.8-3.6l1.4-3.3
			c1-1.9,0.7-4.3-0.8-5.9l-3.6-3.8c-0.6-0.7-0.7-1.8-0.1-2.6c1.7-2.3,3.5-4.5,5.5-6.5c2.3-2.2,4.7-4.2,7.3-6
			c0.8-0.6,1.8-0.5,2.5,0.1l3.8,3.6c1.6,1.5,3.9,1.8,5.9,0.9l3.2-1.3c2.1-0.7,3.5-2.5,3.6-4.7l0.2-5.5c0-1,0.7-1.8,1.7-1.9
			c5.9-1,12-0.9,17.9,0.1c0.9,0.2,1.6,1,1.6,1.9l0.2,5.7c0.1,2.1,1.5,4,3.5,4.7l3.1,1.3c1.9,0.9,4.2,0.5,5.8-0.9l4.2-4
			c0.7-0.6,1.8-0.7,2.6-0.1c2.3,1.7,4.5,3.5,6.5,5.5c2.2,2.3,4.2,4.7,6,7.3c0.6,0.8,0.5,1.8-0.1,2.5l-4,4.2c-1.5,1.5-1.9,3.8-1,5.8
			l1.2,3c0.8,2,2.7,3.4,4.9,3.5l5.9,0.2c1,0,1.8,0.7,1.9,1.7c0.5,2.8,0.7,5.7,0.7,8.5c0,3.1-0.3,6.3-0.8,9.4c-0.2,0.9-1,1.6-1.9,1.6
			l-5.8,0.2c-2.2,0.1-4.1,1.5-4.9,3.5l-1.2,3c-0.9,2-0.5,4.3,1,5.8l4.1,4.3c0.6,0.7,0.7,1.8,0.1,2.6c-1.7,2.3-3.5,4.5-5.5,6.5
			c-2.3,2.2-4.7,4.2-7.3,6C84,98.1,83,98,82.3,97.4l-4.1-3.9c-1.6-1.4-3.9-1.8-5.8-0.9l-3.1,1.3c-2,0.7-3.4,2.6-3.5,4.7l-0.2,5.8
			c0,1-0.7,1.8-1.7,1.9C61.1,106.8,58.2,107,55.4,107z M48.3,102.5c4.4,0.6,8.9,0.7,13.4,0.1v-4.1c0.2-3.7,2.6-7,6.1-8.4
			c1-0.3,1.9-0.7,2.8-1.2c3.4-1.6,7.5-0.9,10.2,1.7l2.9,2.7c2-1.4,3.8-3,5.5-4.7c1.5-1.5,2.8-3,4.1-4.7l-2.9-3.1
			c-2.6-2.7-3.3-6.7-1.8-10.2l1.2-2.7c1.3-3.6,4.6-6,8.4-6.1h4.2c0.3-2.4,0.5-4.7,0.5-7.1c0-2.1-0.1-4.2-0.4-6.3h-4.2
			c-3.8-0.1-7.1-2.5-8.4-6.1l-1.2-2.7c-1.5-3.5-0.8-7.5,1.8-10.2l2.8-3c-1.4-2-3-3.8-4.7-5.5c-1.5-1.5-3-2.8-4.7-4.1l-3,2.8
			c-2.7,2.6-6.8,3.3-10.2,1.7c-0.9-0.5-1.8-0.9-2.8-1.2c-3.5-1.4-5.9-4.7-6.1-8.4v-4C57.4,7.1,52.9,7,48.4,7.6v3.8
			c-0.2,3.8-2.7,7.1-6.3,8.4l-3.1,1c-3.4,1.5-7.4,0.9-10.2-1.6l-2.6-2.5c-2,1.4-3.8,3-5.5,4.7c-1.5,1.5-2.8,3-4.1,4.7l2.4,2.6
			c2.6,2.8,3.2,6.9,1.5,10.3l-1.2,3c-1.3,3.6-4.6,6-8.4,6.2H7.5C7.2,50.6,7,53,7,55.4c0,2.1,0.1,4.2,0.4,6.3h3.5
			c3.8,0.2,7.1,2.7,8.4,6.3l1.2,3c1.7,3.4,1.1,7.5-1.5,10.3l-2.3,2.5c1.4,2,3,3.8,4.7,5.5c1.5,1.5,3,2.8,4.7,4.1l2.7-2.6
			c2.8-2.5,6.8-3.1,10.2-1.6c0.9,0.5,1.9,0.9,2.9,1.2c3.6,1.3,6.1,4.6,6.3,8.4L48.3,102.5z"/>
		<path class="st1" d="M54.6,85.9c-8.2,0-16.1-3.2-21.9-9.1c-0.4-0.3-0.5-1-0.2-1.4s1-0.5,1.4-0.2c0.1,0.1,0.1,0.1,0.2,0.2
			C45.7,86.3,64,85.8,75,74.1C85.4,63,85.4,45.7,75,34.6c-0.3-0.4-0.2-1.1,0.2-1.4c0.4-0.3,0.8-0.3,1.2,0c12,12.1,12,31.7-0.1,43.7
			C70.5,82.6,62.7,85.9,54.6,85.9z"/>
		<path class="st1" d="M24.7,56c-0.5,0.1-0.9-0.3-1-0.8c0-0.1,0-0.1,0-0.2c0-17.1,13.8-30.9,30.9-30.9c0.5,0,1,0.5,1,1
			c0,0.6-0.4,1-1,1c-16,0-28.9,12.9-28.9,28.9C25.7,55.6,25.3,56,24.7,56z"/>
		<path class="st1" d="M54.6,72.2c-9.5,0-17.2-7.7-17.2-17.2s7.7-17.2,17.2-17.2S71.8,45.5,71.8,55l0,0
			C71.7,64.5,64.1,72.1,54.6,72.2z M54.6,41.8c-7.3,0-13.2,5.9-13.2,13.2c0,7.3,5.9,13.2,13.2,13.2c7.3,0,13.2-5.9,13.2-13.2
			C67.7,47.7,61.9,41.9,54.6,41.8z"/>
	</g>
</g>
<text transform="matrix(1 0 0 1 17.1941 125.0595)"><tspan x="0" y="0" class="st2 st3 st4">Management</tspan><tspan x="-11.5" y="13.5" class="st2 st5 st4">（</tspan><tspan x="1.5" y="13.2" class="st2 st3 st4">CM/PPP/PFI</tspan><tspan x="75.5" y="13.5" class="st2 st5 st4 st6">）</tspan></text>
</svg>
