<?xml version="1.0" encoding="utf-8"?>
<!-- Generator: Adobe Illustrator 26.1.0, SVG Export Plug-In . SVG Version: 6.00 Build 0)  -->
<svg version="1.1" id="レイヤー_1" xmlns="http://www.w3.org/2000/svg" xmlns:xlink="http://www.w3.org/1999/xlink" x="0px"
	 y="0px" viewBox="0 0 138.4 140.4" style="enable-background:new 0 0 138.4 140.4;" xml:space="preserve">
<style type="text/css">
	.st0{fill:none;}
	.st1{fill:#0A6AB0;}
	.st2{fill:#231815;}
	.st3{font-family:'Roboto-Bold';}
	.st4{font-size:13px;}
</style>
<g id="レイヤー_2_00000046329264126065639280000016582382271770232993_">
	<g id="レイヤー_1-2">
		<rect x="13.2" y="0" class="st0" width="110" height="110"/>
		<path class="st1" d="M78.6,64.8c-5,0-7.5-2.9-7.6-3.2l-0.3-0.3c-0.2-0.4-4.9-10.3,12-18.8h0.1c5.5-2.3,11.6-2.9,17.5-1.9
			c0.5,0.1,1,0.4,1.3,0.9s0.4,1,0.3,1.6c-1.5,5.8-4.6,11.1-8.9,15.2C86.9,63.3,82.1,64.8,78.6,64.8z M74.2,59.3
			c1,0.8,5.9,4.4,16.2-4.1c3.1-3,5.5-6.8,6.9-10.9c-4.3-0.4-8.7,0.2-12.8,1.8C72.6,52.1,73.8,58,74.2,59.3z"/>
		<path class="st1" d="M64.7,64.8c-3.5,0-8.2-1.5-14.3-6.5c-4.4-4.1-7.5-9.4-8.9-15.2c-0.2-0.5-0.1-1.1,0.2-1.6s0.8-0.8,1.4-0.9
			c5.9-1,12-0.4,17.5,1.9l0,0c16.9,8.5,12.2,18.4,12,18.8l-0.2,0.3C70.4,63.8,67.6,64.9,64.7,64.8z M46,44.3c1.4,4.2,3.8,7.9,7,11
			c10.3,8.4,15.2,4.8,16.1,4s1.7-7.1-10.2-13.2C54.8,44.5,50.4,43.9,46,44.3z"/>
		<path class="st1" d="M71.7,82c-1.1,0-2-0.9-2-2V60.4c0-1.1,0.9-2,2-2s2,0.9,2,2V80C73.7,81.1,72.8,82,71.7,82z"/>
		<path class="st1" d="M70.9,62.1c-0.3,0-0.6-0.2-0.8-0.5c-0.3-0.4-0.2-1,0.2-1.3c0,0,0,0,0.1,0l17-10.9c0.5-0.3,1.1-0.2,1.4,0.3
			l0,0c0.2,0.4,0.1,1-0.3,1.3l-17,10.9L70.9,62.1z"/>
		<path class="st1" d="M71.8,62.1l-0.5-0.2L54.3,51c-0.4-0.2-0.6-0.8-0.3-1.2v-0.1c0.3-0.5,0.9-0.6,1.4-0.3l0,0l16.9,10.9
			c0.4,0.2,0.6,0.8,0.3,1.2v0.1C72.4,61.9,72.1,62.1,71.8,62.1z"/>
		<path class="st1" d="M30.8,65.5c-0.6,0-1.1-0.2-1.5-0.6l-6-6.6l-6.1,6.6c-0.8,0.8-2,0.8-2.8,0.1c-0.8-0.8-0.8-2.1-0.1-2.9l7.5-8.1
			c0.8-0.8,2.1-0.8,2.9,0l7.6,8.1c0.7,0.8,0.7,2.1-0.1,2.9C31.8,65.3,31.3,65.5,30.8,65.5z"/>
		<path class="st1" d="M106.2,102.4h-0.5L94.9,100c-0.5-0.2-1-0.5-1.3-1c-0.2-0.5-0.3-1.1-0.1-1.6l3.2-10.6c0.4-1,1.5-1.6,2.5-1.3
			c1.1,0.3,1.7,1.4,1.4,2.4c0,0,0,0,0,0.1l-2.7,8.5l8.7,2c1.1,0.2,1.7,1.3,1.5,2.4l0,0C107.9,101.8,107.1,102.4,106.2,102.4z"/>
		<path class="st1" d="M85.3,18.7c-1.1,0.1-2.1-0.7-2.2-1.8s0.7-2.1,1.8-2.2l8.7-2L91,4.2c-0.4-1,0.1-2.1,1.1-2.4
			c0.1,0,0.1,0,0.2-0.1c1-0.3,2.2,0.3,2.5,1.3l3.3,10.6c0.1,0.5,0.1,1.1-0.2,1.6c-0.3,0.5-0.8,0.8-1.3,1l-10.8,2.4L85.3,18.7z"/>
		<path class="st1" d="M23.4,48.4H23c-1.1-0.2-1.8-1.2-1.6-2.3V46c1.1-5.5,3.1-10.8,5.9-15.7c14-24.4,45.2-32.9,69.6-18.9
			c0.1,0.1,0.2,0.1,0.3,0.2c0.9,0.6,1.2,1.8,0.7,2.7c-0.6,0.9-1.8,1.2-2.7,0.7C72.5,2,43.6,9.9,30.6,32.5c-2.5,4.4-4.3,9.3-5.3,14.3
			C25.2,47.7,24.3,48.4,23.4,48.4z"/>
		<path class="st1" d="M96.4,100.2c-0.7,0-1.4-0.4-1.7-1c-0.5-0.9-0.2-2.1,0.7-2.7c22.5-13.2,30-42.1,16.8-64.6
			c-2.6-4.4-5.8-8.3-9.6-11.6c-0.8-0.7-1-1.8-0.3-2.7l0.1-0.1c0.7-0.8,2-0.9,2.8-0.2c21.3,18.5,23.5,50.8,5,72.1
			c-3.7,4.2-8,7.8-12.8,10.6L96.4,100.2z"/>
		<path class="st1" d="M71.6,107c-28.1-0.1-50.9-22.8-51.1-50.9c0-1.1,0.9-2,2-2l0,0c1.1,0,2,0.9,2,2c0.1,26,21.3,47,47.3,46.9
			c5.1,0,10.2-0.9,15.1-2.6c1-0.3,2.2,0.3,2.5,1.3s-0.2,2.1-1.2,2.5C82.9,106,77.2,107,71.6,107z"/>
	</g>
</g>
<text transform="matrix(1 0 0 1 17.324 124.6646)" class="st2 st3 st4">Environment and </text>
<text transform="matrix(1 0 0 1 13.4996 137.6646)" class="st2 st3 st4">Renewable Energy</text>
</svg>
