<?xml version="1.0" encoding="utf-8"?>
<!-- Generator: Adobe Illustrator 26.0.3, SVG Export Plug-In . SVG Version: 6.00 Build 0)  -->
<svg version="1.1" id="レイヤー_1" xmlns="http://www.w3.org/2000/svg" xmlns:xlink="http://www.w3.org/1999/xlink" x="0px"
	 y="0px" viewBox="0 0 110 140.4" style="enable-background:new 0 0 110 140.4;" xml:space="preserve">
<style type="text/css">
	.st0{fill:none;}
	.st1{fill:#0A6AB0;}
	.st2{fill:#231815;}
	.st3{font-family:'Roboto-Bold';}
	.st4{font-size:13px;}
</style>
<g id="レイヤー_2_00000167387729221814821410000017402386963669084291_">
	<g id="レイヤー_1-2">
		<rect y="0" class="st0" width="110" height="110"/>
		<path class="st1" d="M103.4,35.9c-0.6,0-1.1-0.2-1.5-0.6L72.3,4.8l-40,11.8c-1,0.3-2.1-0.2-2.4-1.2c0,0,0,0,0-0.1
			c-0.4-1,0.1-2.1,1.1-2.4c0.1,0,0.1,0,0.2-0.1L72.3,0.6c0.7-0.2,1.5,0,2,0.5l30.5,31.4c0.8,0.7,0.8,1.9,0.1,2.7
			c0,0-0.1,0.1-0.1,0.1C104.4,35.7,103.9,35.9,103.4,35.9z"/>
		<path class="st1" d="M62.5,65.4h-0.6l-30.4-8.3c-1.1-0.2-1.7-1.3-1.5-2.4c0,0,0,0,0,0l11.9-44.2c0.2-1,1.2-1.7,2.3-1.4
			c0,0,0.1,0,0.1,0c1.1,0.3,1.7,1.4,1.4,2.4c0,0,0,0,0,0.1L34.4,53.8L63,61.4c1.1,0.3,1.7,1.4,1.4,2.5
			C64.2,64.8,63.4,65.4,62.5,65.4z"/>
		<path class="st1" d="M82.7,70.8h-0.5c-1-0.2-1.7-1.2-1.4-2.3c0,0,0-0.1,0-0.1l11.8-44.3c0.3-1.1,1.4-1.7,2.4-1.4c0,0,0,0,0.1,0
			c1.1,0.3,1.7,1.4,1.4,2.5L84.7,69.3C84.4,70.2,83.6,70.8,82.7,70.8z"/>
		<path class="st1" d="M107.5,109.5c-1,0-1.8-0.7-2-1.6c0-0.2-2.8-14.2-12.5-14.2c-4.7,0-5.9-3.7-6.9-6.7s-2.1-6.3-6.8-7.2
			c-3.1-0.5-5.8-2.3-7.5-4.9c-1.9-3.2-1.9-7.1-1.7-9.5H2.5c-1.1,0-2-0.9-2-2s0.9-2,2-2h70c1.2,0,2.1,1,2,2.2c0,0.1,0,0.2,0,0.3
			c-0.1,0.1-1.5,5.3,0.7,8.9c1.1,1.7,2.9,2.8,4.9,3.1c6.9,1.4,8.6,6.2,9.8,9.8s1.5,4,3.1,4c5.5,0,10.1,3.1,13.3,8.9
			c1.4,2.7,2.5,5.6,3.2,8.5c0.2,1.1-0.5,2.2-1.6,2.4L107.5,109.5z"/>
		<path class="st1" d="M93.1,102.2H2.5c-0.6,0-1-0.4-1-1c-0.1-0.5,0.3-0.9,0.8-1c0.1,0,0.1,0,0.2,0h90.6c0.5-0.1,0.9,0.3,1,0.8
			c0,0.1,0,0.1,0,0.2C94.1,101.8,93.7,102.2,93.1,102.2z"/>
		<path class="st1" d="M65,78.9H2.5c-0.5,0.1-0.9-0.3-1-0.8c0-0.1,0-0.1,0-0.2c0-0.6,0.4-1,1-1H65c0.5,0,1,0.5,1,1
			C66,78.5,65.6,78.9,65,78.9z"/>
		<path class="st1" d="M76.9,90.6H11.5c-0.6,0-1-0.4-1-1c-0.1-0.5,0.3-0.9,0.8-1c0.1,0,0.1,0,0.2,0h65.4c0.5-0.1,0.9,0.3,1,0.8
			c0,0.1,0,0.1,0,0.2C77.9,90.2,77.5,90.6,76.9,90.6z"/>
	</g>
</g>
<g>
	<text transform="matrix(1 0 0 1 7.1412 137.4911)" class="st2 st3 st4">Ground Analysis</text>
</g>
</svg>
