<?xml version="1.0" encoding="utf-8"?>
<!-- Generator: Adobe Illustrator 26.0.3, SVG Export Plug-In . SVG Version: 6.00 Build 0)  -->
<svg version="1.1" id="レイヤー_1" xmlns="http://www.w3.org/2000/svg" xmlns:xlink="http://www.w3.org/1999/xlink" x="0px"
	 y="0px" viewBox="0 0 110 140.5" style="enable-background:new 0 0 110 140.5;" xml:space="preserve">
<style type="text/css">
	.st0{fill:none;}
	.st1{fill:#0A6AB0;}
	.st2{fill:#231815;}
	.st3{font-family:'Roboto-Bold';}
	.st4{font-size:13px;}
</style>
<rect y="10" class="st0" width="110" height="90"/>
<rect y="0" class="st0" width="110" height="110"/>
<path class="st1" d="M25.9,90.7c-1,0-1.8-0.7-1.9-1.7L13.1,14.2H4.5v74.5c0,1.1-0.9,2-2,2s-2-0.9-2-2V12.2c0-1.1,0.9-2,2-2h12.3
	c1,0,1.9,0.8,2,1.8l11.1,76.4c0.2,1.1-0.6,2.1-1.7,2.3c0,0,0,0,0,0L25.9,90.7z"/>
<path class="st1" d="M26,100.2H2.5c-1.1,0-2-0.9-2-2s0.9-2,2-2H26c1.1,0,2,0.9,2,2S27.1,100.2,26,100.2z"/>
<path class="st1" d="M84.1,90.7h-0.3c-1.1-0.2-1.9-1.2-1.7-2.3c0,0,0,0,0,0L93.2,12c0.1-1,1-1.8,2-1.8h12.3c1.1,0,2,0.9,2,2v76.5
	c0,1.1-0.9,2-2,2s-2-0.9-2-2V14.2h-8.6L86,89C85.9,90,85.1,90.7,84.1,90.7z"/>
<path class="st1" d="M107.5,100.2H84c-1.1,0-2-0.9-2-2s0.9-2,2-2h23.5c1.1,0,2,0.9,2,2S108.6,100.2,107.5,100.2z"/>
<path class="st1" d="M89.8,37.9c-3.5,0-6.8-1.8-8.6-4.9c-2.9,4.8-9.1,6.3-13.9,3.4c-1.4-0.8-2.6-2-3.4-3.4c-1.8,3.1-5.1,4.9-8.6,4.9
	c-3.5,0-6.8-1.9-8.6-4.9c-2.8,4.7-9,6.3-13.7,3.5c-1.4-0.9-2.6-2.1-3.5-3.5c-1.8,3-5.1,4.9-8.6,4.9c-1.1,0-2.2-0.2-3.3-0.6
	c-0.5-0.2-0.8-0.8-0.7-1.3c0.2-0.5,0.8-0.8,1.3-0.6c0,0,0,0,0,0c0.9,0.3,1.8,0.5,2.7,0.5c3.5,0,6.6-2.3,7.7-5.6
	c0.1-0.4,0.5-0.7,0.9-0.7c0.4,0,0.8,0.3,1,0.7c1,3.3,4.1,5.6,7.6,5.6c3.5,0,6.6-2.3,7.7-5.6c0.1-0.4,0.5-0.7,0.9-0.7
	c0.4,0,0.8,0.3,1,0.7c1,3.3,4.1,5.6,7.6,5.6c3.5,0,6.6-2.3,7.7-5.6c0.1-0.4,0.5-0.7,0.9-0.7c0.5,0,0.9,0.3,1,0.7
	c1.3,4.2,5.8,6.6,10,5.3c2.5-0.8,4.5-2.8,5.3-5.3c0.1-0.4,0.5-0.7,1-0.7l0,0c0.4,0,0.8,0.3,0.9,0.7c1.1,3.3,4.2,5.6,7.7,5.6
	c0.7,0,1.4-0.1,2.1-0.3c0.5-0.1,1,0.2,1.2,0.7c0.1,0.5-0.2,1.1-0.7,1.2C91.6,37.8,90.7,37.9,89.8,37.9z"/>
<path class="st1" d="M76.8,56.2c-2.9,0-5.7-1.5-7.2-4c-2.6,4-8,5.2-12,2.6c-1-0.7-1.9-1.5-2.6-2.6c-1.6,2.5-4.3,4-7.3,4
	c-0.6,0-1-0.4-1-1c0-0.5,0.5-1,1-1c2.9,0,5.5-1.8,6.3-4.6c0.3-0.6,0.9-0.8,1.5-0.5c0.2,0.1,0.4,0.3,0.5,0.5c0.8,2.8,3.4,4.6,6.3,4.6
	c2.9,0,5.5-1.8,6.3-4.6c0.1-0.4,0.5-0.7,1-0.7c0.4,0,0.8,0.3,0.9,0.7c0.8,2.8,3.4,4.6,6.3,4.6c0.6,0,1,0.4,1,1
	c0.1,0.5-0.3,0.9-0.8,1C76.9,56.2,76.9,56.2,76.8,56.2z"/>
<path class="st1" d="M47.7,56.2c-3,0-5.7-1.5-7.3-4c-1.5,2.5-4.3,4-7.2,4c-0.5,0.1-0.9-0.3-1-0.8c0-0.1,0-0.1,0-0.2c0-0.6,0.4-1,1-1
	c2.9,0,5.5-1.8,6.3-4.6c0.1-0.4,0.5-0.7,0.9-0.7c0.5,0,0.9,0.3,1,0.7c0.8,2.8,3.4,4.6,6.3,4.6c0.6,0,1,0.4,1,1
	c0.1,0.5-0.3,0.9-0.8,1C47.8,56.2,47.8,56.2,47.7,56.2z"/>
<text transform="matrix(1 0 0 1 6.481 140.5)" class="st2 st3 st4">Rivers and Sabo</text>
</svg>
