<?xml version="1.0" encoding="utf-8"?>
<!-- Generator: Adobe Illustrator 26.0.3, SVG Export Plug-In . SVG Version: 6.00 Build 0)  -->
<svg version="1.1" id="レイヤー_1" xmlns="http://www.w3.org/2000/svg" xmlns:xlink="http://www.w3.org/1999/xlink" x="0px"
	 y="0px" viewBox="0 0 110 140.4" style="enable-background:new 0 0 110 140.4;" xml:space="preserve">
<style type="text/css">
	.st0{fill:none;}
	.st1{fill:#0A6AB0;}
	.st2{fill:#231815;}
	.st3{font-family:'Roboto-Bold';}
	.st4{font-size:13px;}
</style>
<g id="レイヤー_2_00000145755502096127684680000015271932572311676846_">
	<g id="レイヤー_1-2">
		<rect y="0" class="st0" width="110" height="110"/>
		<path class="st1" d="M55,107C26.3,107,3,83.7,3,55S26.3,3,55,3s52,23.3,52,52S83.7,107,55,107z M55,7C28.5,7,7,28.5,7,55
			s21.5,48,48,48s48-21.5,48-48S81.5,7,55,7z"/>
		<path class="st1" d="M55,34.9c-15.8,0-30.7-2.5-41.7-7.1c-0.5-0.2-0.8-0.8-0.6-1.3c0,0,0,0,0,0c0.2-0.5,0.8-0.7,1.3-0.5
			c10.9,4.4,25.4,6.9,41,6.9s30.1-2.5,41-6.9c0.5-0.2,1.1,0,1.3,0.5c0.2,0.5-0.1,1.1-0.6,1.3c0,0,0,0,0,0
			C85.7,32.4,70.8,34.9,55,34.9z"/>
		<path class="st1" d="M96.4,84.1H96c-10.9-4.4-25.4-6.9-41-6.9S24.9,79.6,14,84c-0.5,0.2-1.1,0-1.3-0.5c-0.2-0.5,0.1-1.1,0.6-1.3
			c0,0,0,0,0,0c11-4.6,25.9-7.1,41.7-7.1l0,0c15.8,0,30.7,2.5,41.7,7.1c0.5,0.2,0.7,0.8,0.5,1.3C97,83.8,96.7,84.1,96.4,84.1z"/>
		<path class="st1" d="M55,106c-10.9,0-28.3-23.3-28.3-51S44.1,4,55,4s28.3,23.3,28.3,51S65.9,106,55,106z M55,6
			c-8.8,0-26.3,21.2-26.3,49s17.5,49,26.3,49s26.3-21.2,26.3-49S63.8,6,55,6z"/>
		<path class="st1" d="M55,106c-0.5,0.1-0.9-0.3-1-0.8c0-0.1,0-0.1,0-0.2V5c0-0.6,0.4-1,1-1s1,0.4,1,1v100c0.1,0.5-0.3,0.9-0.8,1
			C55.1,106,55.1,106,55,106z"/>
		<path class="st1" d="M105,56H5c-0.6,0-1-0.4-1-1s0.4-1,1-1h100c0.6,0,1,0.4,1,1S105.6,56,105,56z"/>
	</g>
</g>
<text transform="matrix(1 0 0 1 1.9997 138.1779)" class="st2 st3 st4">Overseas Projects</text>
</svg>
