<?xml version="1.0" encoding="utf-8"?>
<!-- Generator: Adobe Illustrator 26.0.3, SVG Export Plug-In . SVG Version: 6.00 Build 0)  -->
<svg version="1.1" id="レイヤー_1" xmlns="http://www.w3.org/2000/svg" xmlns:xlink="http://www.w3.org/1999/xlink" x="0px"
	 y="0px" viewBox="0 0 110 140.4" style="enable-background:new 0 0 110 140.4;" xml:space="preserve">
<style type="text/css">
	.st0{fill:none;}
	.st1{fill:#0A6AB0;}
	.st2{fill:#231815;}
	.st3{font-family:'Roboto-Bold';}
	.st4{font-size:13px;}
</style>
<g id="レイヤー_2_00000104681381708229232990000008833334280925910917_">
	<g id="レイヤー_1-2">
		<rect y="0" class="st0" width="110" height="110"/>
		<rect y="5" class="st0" width="110" height="100"/>
		<path class="st1" d="M41.3,59.3H2c-1.1,0-2-0.9-2-2s0.9-2,2-2h39.3c1.1,0,2,0.9,2,2S42.4,59.3,41.3,59.3z"/>
		<path class="st1" d="M65.3,63.5H47.5c-2.1,0-5.3-1-8.2-5.6s-5.5-14.3-5.5-23.7c0-16.7,5.9-29.3,13.7-29.3h17.8c1.1,0,2,0.9,2,2
			s-0.9,2-2,2H47.5c-4.6,0-9.7,10.4-9.7,25.3c0,8.7,1.8,16.8,4.9,21.6c0.8,1.4,2.7,3.7,4.8,3.7h17.8c1.1,0,2,0.9,2,2
			S66.4,63.5,65.3,63.5z"/>
		<path class="st1" d="M65.3,63.5c-7.8,0-13.7-12.6-13.7-29.3S57.5,4.9,65.3,4.9S79,17.5,79,34.2c0,1.1-0.9,2-2,2s-2-0.9-2-2
			c0-14.9-5.1-25.3-9.7-25.3s-9.7,10.4-9.7,25.3s5.1,25.3,9.7,25.3c1.6,0,3-1.3,3.9-2.4c0.6-0.9,1.9-1.2,2.8-0.6
			c0.9,0.6,1.2,1.9,0.6,2.8c-0.1,0.1-0.1,0.2-0.2,0.3C70.2,62.2,67.8,63.5,65.3,63.5z"/>
		<path class="st1" d="M41.2,13.1H2c-1.1,0-2-0.9-2-2s0.9-2,2-2h39.2c1.1,0,2,0.9,2,2S42.3,13.1,41.2,13.1z"/>
		<path class="st1" d="M81.6,73.5c-0.5,0-1-0.5-1-1v-5.6C80.6,57.6,73,50,63.7,50l0,0c-0.6,0-1-0.4-1-1c-0.1-0.5,0.3-0.9,0.8-1
			c0.1,0,0.1,0,0.2,0c10.4,0,18.9,8.5,18.9,18.9v5.6C82.6,73.1,82.2,73.5,81.6,73.5z"/>
		<path class="st1" d="M93.7,73.5c-0.5,0-1-0.5-1-1v-1.6c0-16.1-13-29.1-29.1-29.2c-0.5,0.1-0.9-0.3-1-0.8c0-0.1,0-0.1,0-0.2
			c0-0.6,0.4-1,1-1c17.2,0.1,31.1,14,31.1,31.2v1.6C94.7,73.1,94.3,73.5,93.7,73.5z"/>
		<path class="st1" d="M107.5,82.3H2.5c-1.1,0-2-0.9-2-2s0.9-2,2-2h105c1.1,0,2,0.9,2,2S108.6,82.3,107.5,82.3z"/>
		<path class="st1" d="M9.5,94.1h-7c-0.6,0-1-0.4-1-1c-0.1-0.5,0.3-0.9,0.8-1c0.1,0,0.1,0,0.2,0h7c0.6,0,1,0.4,1,1
			C10.5,93.6,10,94.1,9.5,94.1z"/>
		<path class="st1" d="M58.5,94.1h-7c-0.5,0-1-0.5-1-1c0-0.6,0.4-1,1-1h7c0.6,0,1,0.4,1,1C59.5,93.6,59,94.1,58.5,94.1z"/>
		<path class="st1" d="M83,94.1h-7c-0.5,0-1-0.5-1-1c0-0.6,0.4-1,1-1h7c0.6,0,1,0.4,1,1C84,93.6,83.5,94.1,83,94.1z"/>
		<path class="st1" d="M34,94.1h-7c-0.5,0-1-0.5-1-1c0-0.6,0.4-1,1-1h7c0.6,0,1,0.4,1,1C35,93.6,34.5,94.1,34,94.1z"/>
		<path class="st1" d="M107.5,94.1h-7c-0.5,0-1-0.5-1-1c0-0.6,0.4-1,1-1h7c0.5-0.1,0.9,0.3,1,0.8c0,0.1,0,0.1,0,0.2
			C108.5,93.7,108.1,94.1,107.5,94.1z"/>
		<path class="st1" d="M20.8,104.7h-7c-0.6,0-1-0.4-1-1c0-0.5,0.5-1,1-1h7c0.5,0,1,0.5,1,1C21.8,104.3,21.4,104.7,20.8,104.7z"/>
		<path class="st1" d="M45.9,104.7H39c-0.5,0.1-0.9-0.3-1-0.8c0-0.1,0-0.1,0-0.2c0-0.6,0.4-1,1-1h6.9c0.6,0,1,0.4,1,1
			c0.1,0.5-0.3,0.9-0.8,1C46,104.7,46,104.7,45.9,104.7z"/>
		<path class="st1" d="M71,104.7h-6.9c-0.5,0.1-0.9-0.3-1-0.8c0-0.1,0-0.1,0-0.2c0-0.6,0.4-1,1-1H71c0.6,0,1,0.4,1,1
			c0.1,0.5-0.3,0.9-0.8,1C71.1,104.7,71.1,104.7,71,104.7z"/>
		<path class="st1" d="M96.2,104.7h-7c-0.6,0-1-0.4-1-1c0-0.5,0.5-1,1-1h7c0.5,0,1,0.5,1,1C97.2,104.3,96.8,104.7,96.2,104.7z"/>
	</g>
</g>
<g>
	<text transform="matrix(1 0 0 1 16.4415 124.656)"><tspan x="0" y="0" class="st2 st3 st4">Drainage and</tspan><tspan x="15.6" y="13" class="st2 st3 st4">Sewage</tspan></text>
</g>
</svg>
