<?xml version="1.0" encoding="utf-8"?>
<!-- Generator: Adobe Illustrator 26.0.3, SVG Export Plug-In . SVG Version: 6.00 Build 0)  -->
<svg version="1.1" id="レイヤー_1" xmlns="http://www.w3.org/2000/svg" xmlns:xlink="http://www.w3.org/1999/xlink" x="0px"
	 y="0px" viewBox="0 0 110 140.4" style="enable-background:new 0 0 110 140.4;" xml:space="preserve">
<style type="text/css">
	.st0{fill:none;}
	.st1{fill:#0A6AB0;}
	.st2{fill:#231815;}
	.st3{font-family:'Roboto-Bold';}
	.st4{font-size:13px;}
</style>
<g id="レイヤー_2_00000000926709784517933840000000760705533815167637_">
	<g id="レイヤー_1-2">
		<rect y="0" class="st0" width="110" height="110"/>
		<path class="st1" d="M27.8,52.3c-13.6,0-24.6-11-24.6-24.6c0-3.8,0.9-7.5,2.5-10.9c0.3-0.6,0.8-1,1.5-1.1c0.6-0.1,1.2,0.1,1.7,0.5
			l12.9,12.9h4.7l2.7-2.8v-5.1L16.6,8.6c-0.4-0.5-0.6-1.1-0.5-1.7c0.1-0.7,0.5-1.2,1.1-1.5C29.5-0.5,44.1,4.7,50,17
			c2.8,5.8,3.2,12.4,1.1,18.5l5.9,5.9c0.7,0.9,0.5,2.1-0.4,2.8c-0.7,0.5-1.7,0.5-2.4,0l-6.8-6.8c-0.6-0.5-0.8-1.4-0.5-2.1
			c3.1-7.7,1.3-16.4-4.5-22.3c-5.5-5.4-13.5-7.3-20.8-5.1l11,11.1c0.4,0.4,0.6,0.9,0.6,1.4v6.8c0,0.5-0.2,1-0.6,1.4l-3.9,3.9
			c-0.4,0.4-0.9,0.6-1.4,0.6h-6.4c-0.5,0-1-0.2-1.4-0.6L8.2,21.2c-3.6,10.8,2.3,22.5,13.1,26c4.7,1.5,9.7,1.4,14.3-0.5
			c1-0.4,2.2,0.1,2.6,1.1c0.4,1,0,2.1-0.9,2.5c-0.1,0-0.1,0.1-0.2,0.1C34.2,51.7,31,52.3,27.8,52.3z"/>
		<path class="st1" d="M95.6,106.8c-2.5,0-4.9-1-6.7-2.7L58.9,74c-0.8-0.7-0.8-1.9-0.1-2.7c0,0,0.1-0.1,0.1-0.1
			c0.8-0.8,2.1-0.8,2.9,0l30,30c1,1.1,2.4,1.7,3.8,1.6c1.4,0,2.8-0.6,3.8-1.6l2-2c2.1-2.1,2.1-5.6,0-7.7L65.9,56
			c-0.7-0.8-0.7-2,0-2.8c0.8-0.8,2.1-0.8,2.9,0l35.4,35.5c3.7,3.7,3.7,9.6,0,13.3c0,0,0,0,0,0l-2,2.1
			C100.4,105.8,98.1,106.8,95.6,106.8z"/>
		<path class="st1" d="M56,55.9c-0.5,0-1-0.2-1.4-0.6c-0.8-0.7-0.8-1.9-0.1-2.7c0,0,0.1-0.1,0.1-0.1l28-28.1l-0.8-0.8
			c-0.4-0.3-0.6-0.7-0.6-1.2l-0.5-5.6c0-0.7,0.3-1.4,0.9-1.8L97.7,3.4c0.8-0.5,1.9-0.4,2.6,0.2l6.1,6.1c0.7,0.7,0.7,1.8,0.2,2.6
			L95,28.1l-0.2,0.3h-0.2c-0.4,0.4-0.9,0.6-1.4,0.6h-5.3c-0.6,0-1.1-0.2-1.5-0.6l-1-1.2l-28,28C57,55.6,56.5,55.9,56,55.9z
			 M88.8,25.1h3.4l10.1-13.8l-3.6-3.6l-13.9,9.9l0.3,3.7l1.7,1.7h0.1L88.8,25.1z"/>
		<path class="st1" d="M14.4,107c-2.5,0-4.9-1-6.6-2.8l-2-2c-3.7-3.7-3.7-9.6,0-13.3c0,0,0,0,0,0l38.5-38.6c0.4-0.4,0.9-0.6,1.4-0.6
			h8.1c0.5,0,1,0.2,1.4,0.6l4.7,4.6c0.4,0.4,0.6,0.9,0.6,1.5V64c0,0.5-0.3,1-0.6,1.4l-38.8,38.8C19.3,106,16.9,107,14.4,107z
			 M46.6,53.7l-38,38c-2.1,2.1-2.1,5.6,0,7.7l2,2c1,1,2.4,1.6,3.8,1.6c1.4,0,2.8-0.6,3.8-1.6l38.3-38.3v-5.9l-3.6-3.5H46.6z"/>
		<path class="st1" d="M13.9,97.1c-0.6-0.1-1-0.6-0.9-1.2c0-0.2,0.1-0.4,0.2-0.6l35.6-35.6c0.4-0.3,1.1-0.2,1.4,0.2
			c0.3,0.4,0.3,0.8,0,1.2L14.6,96.8C14.4,97,14.2,97.1,13.9,97.1z"/>
	</g>
</g>
<text transform="matrix(1 0 0 1 15.6661 140.4003)" class="st2 st3 st4">Conservation</text>
</svg>
