<?xml version="1.0" encoding="utf-8"?>
<!-- Generator: Adobe Illustrator 26.0.3, SVG Export Plug-In . SVG Version: 6.00 Build 0)  -->
<svg version="1.1" id="レイヤー_1" xmlns="http://www.w3.org/2000/svg" xmlns:xlink="http://www.w3.org/1999/xlink" x="0px"
	 y="0px" viewBox="0 0 110 140.5" style="enable-background:new 0 0 110 140.5;" xml:space="preserve">
<style type="text/css">
	.st0{fill:none;}
	.st1{fill:#0A6AB0;}
	.st2{fill:#231815;}
	.st3{font-family:'Roboto-Bold';}
	.st4{font-size:13px;}
</style>
<g id="レイヤー_2_00000056421533044336358500000002521911840172532354_">
	<g id="レイヤー_1-2">
		<rect y="0" class="st0" width="110" height="110"/>
		<path class="st1" d="M19.6,77.6c-0.5,0-1-0.2-1.4-0.6c-20.3-20.3-20.3-53.1,0-73.4c0,0,0,0,0,0c0.8-0.8,2.1-0.8,2.9,0
			c0.7,0.8,0.7,2,0,2.8C2.4,25,2.3,55.3,20.9,74c0.1,0.1,0.1,0.1,0.2,0.2c0.7,0.8,0.7,2,0,2.8C20.7,77.4,20.2,77.6,19.6,77.6z"/>
		<path class="st1" d="M92.7,75.1c-0.5,0-0.9-0.2-1.3-0.5c-0.8-0.7-1-1.8-0.3-2.7c0,0,0.1-0.1,0.1-0.1c16.6-19,15.6-47.6-2.3-65.4
			c-0.7-0.8-0.7-2,0-2.8c0.8-0.8,2.1-0.8,2.9,0c19.3,19.3,20.3,50.2,2.4,70.8C93.8,74.9,93.3,75.1,92.7,75.1z"/>
		<path class="st1" d="M29.9,67.3c-0.5,0-1-0.2-1.4-0.6c-7.1-7-11-16.5-11-26.4c0-10.8,4.7-21.1,12.9-28.2c0.8-0.7,2-0.7,2.7,0.1
			c0,0,0.1,0.1,0.1,0.1c0.7,0.8,0.7,2-0.1,2.7c0,0-0.1,0.1-0.1,0.1c-13.9,12-15.4,33.1-3.4,47c0.5,0.6,1.1,1.2,1.7,1.8
			c0.8,0.7,0.8,1.9,0.1,2.7c0,0-0.1,0.1-0.1,0.1C30.9,67.1,30.4,67.3,29.9,67.3z"/>
		<path class="st1" d="M80.1,67.3c-0.5,0-1-0.2-1.4-0.6c-0.8-0.7-0.8-1.9-0.1-2.7c0,0,0.1-0.1,0.1-0.1c13-13,13.1-34.1,0.1-47.1
			c-0.2-0.2-0.3-0.3-0.5-0.5c-0.8-0.7-0.8-1.9-0.1-2.7c0,0,0.1-0.1,0.1-0.1c0.8-0.8,2-0.8,2.8-0.1c7.3,7.1,11.4,16.8,11.4,26.9
			c0,9.9-3.9,19.4-11,26.4C81.1,67.1,80.6,67.3,80.1,67.3z"/>
		<path class="st1" d="M34.4,107h-0.6c-1-0.3-1.6-1.3-1.4-2.3c0-0.1,0-0.1,0.1-0.2l18.1-56.9c0.3-1,1.3-1.6,2.3-1.4
			c0.1,0,0.1,0,0.2,0.1c1,0.3,1.6,1.5,1.3,2.5l-18.1,56.8C36,106.4,35.3,107,34.4,107z"/>
		<path class="st1" d="M75.6,107c-0.9,0-1.6-0.6-1.9-1.4L55.6,48.8c-0.3-1,0.3-2.2,1.3-2.5c1-0.4,2.1,0.1,2.4,1.1
			c0,0.1,0,0.1,0.1,0.2l18.1,56.8c0.4,1-0.1,2.1-1.1,2.4c-0.1,0-0.1,0-0.2,0.1L75.6,107z"/>
		<path class="st1" d="M36.4,101.9c-0.3,0-0.6-0.2-0.8-0.5c-0.3-0.5-0.1-1.1,0.3-1.4l32.2-17.6c0.4-0.3,1-0.1,1.2,0.3
			c0,0,0,0.1,0.1,0.1c0.3,0.4,0.1,1-0.3,1.2c0,0-0.1,0-0.1,0.1l-32.1,17.7L36.4,101.9z"/>
		<path class="st1" d="M72.5,101.3H72L41,84.1c-0.5-0.2-0.7-0.7-0.5-1.2c0,0,0-0.1,0.1-0.1c0.2-0.5,0.7-0.7,1.2-0.5
			c0,0,0.1,0,0.1,0.1l31.1,17c0.5,0.3,0.6,0.9,0.4,1.4C73.2,101.1,72.9,101.3,72.5,101.3z"/>
		<path class="st1" d="M41.5,82.7c-0.4,0-0.7-0.2-0.9-0.5c-0.2-0.5-0.1-1.1,0.4-1.4l22.9-12.5c0.4-0.3,1-0.1,1.2,0.3
			c0,0,0,0.1,0.1,0.1c0.3,0.4,0.1,1-0.3,1.2c0,0-0.1,0-0.1,0.1L42,82.6L41.5,82.7z"/>
		<path class="st1" d="M68.1,82.6h-0.5L44.6,70c-0.5-0.3-0.6-0.9-0.4-1.4c0.3-0.5,0.9-0.7,1.3-0.4c0,0,0,0,0.1,0l23,12.6
			c0.5,0.3,0.7,0.9,0.4,1.3c0,0,0,0,0,0.1C68.8,82.5,68.4,82.6,68.1,82.6z"/>
		<path class="st1" d="M55,50.5c-5.6,0-10.2-4.6-10.2-10.2c0-5.6,4.6-10.2,10.2-10.2s10.2,4.6,10.2,10.2l0,0
			C65.2,45.9,60.6,50.5,55,50.5z M55,34.1c-3.4,0-6.2,2.8-6.2,6.2c0,3.4,2.8,6.2,6.2,6.2s6.2-2.8,6.2-6.2S58.4,34.1,55,34.1L55,34.1
			z"/>
	</g>
</g>
<text transform="matrix(1 0 0 1 41.7198 127.1034)"><tspan x="0" y="0" class="st2 st3 st4">Tele</tspan><tspan x="-36" y="13" class="st2 st3 st4">communications</tspan></text>
</svg>
