<?xml version="1.0" encoding="utf-8"?>
<!-- Generator: Adobe Illustrator 26.0.3, SVG Export Plug-In . SVG Version: 6.00 Build 0)  -->
<svg version="1.1" id="レイヤー_1" xmlns="http://www.w3.org/2000/svg" xmlns:xlink="http://www.w3.org/1999/xlink" x="0px"
	 y="0px" viewBox="0 0 115.2 140.4" style="enable-background:new 0 0 115.2 140.4;" xml:space="preserve">
<style type="text/css">
	.st0{fill:none;}
	.st1{fill:#0A6AB0;}
	.st2{fill:#231815;}
	.st3{font-family:'Roboto-Bold';}
	.st4{font-size:13px;}
</style>
<g id="レイヤー_2_00000167377798452406625640000017025859251619137722_">
	<g id="レイヤー_1-2">
		<rect x="5.2" y="0" class="st0" width="110" height="110"/>
		<path class="st1" d="M68.9,109.1c-3.6,0-6.9-1.9-8.7-5c-2.9,4.8-9.2,6.4-14,3.5c-1.4-0.9-2.6-2.1-3.5-3.5c-2.9,4.8-9.2,6.4-14,3.5
			c-1.4-0.9-2.6-2.1-3.5-3.5c-1.8,3.1-5.2,5-8.8,5c-0.5,0-1-0.5-1-1c0-0.6,0.4-1,1-1c3.6,0,6.7-2.3,7.8-5.7c0.2-0.4,0.6-0.7,1-0.7
			c0.4,0,0.8,0.3,0.9,0.7c1.1,3.4,4.2,5.7,7.8,5.7c3.6,0,6.7-2.3,7.8-5.7c0.2-0.4,0.6-0.7,1-0.7c0.4,0,0.8,0.3,0.9,0.7
			c1.1,3.4,4.2,5.7,7.8,5.7c3.6,0,6.7-2.3,7.8-5.7c0.1-0.4,0.5-0.7,1-0.7c0.4,0,0.8,0.3,0.9,0.7c1.1,3.4,4.2,5.7,7.8,5.7
			c3.7,0,6.9-2.5,7.9-6c0.1-0.5,0.7-0.8,1.2-0.7c0.5,0.1,0.9,0.7,0.7,1.2c0,0,0,0.1,0,0.1C77.4,106.1,73.4,109.1,68.9,109.1z"/>
		<path class="st1" d="M104,109.1c-3.6,0-7-1.9-8.8-5c-1.8,3.1-5.1,5-8.7,5c-4.4,0-8.3-2.8-9.7-7c-0.2-0.5,0.1-1.1,0.6-1.3
			c0,0,0,0,0,0c0.5-0.2,1.1,0.1,1.3,0.6c0,0,0,0.1,0,0.1c1.4,4.3,6.1,6.6,10.4,5.2c2.5-0.8,4.4-2.8,5.2-5.3c0.1-0.4,0.5-0.7,0.9-0.7
			l0,0c0.4,0,0.8,0.3,1,0.7c1.1,3.4,4.2,5.7,7.8,5.7c0.6,0,1,0.4,1,1C105,108.6,104.5,109.1,104,109.1z"/>
		<path class="st1" d="M60.2,93.1c-3.6,0-6.9-1.9-8.8-5c-2.9,4.8-9.2,6.4-14,3.5c-1.4-0.9-2.6-2.1-3.5-3.5c-1.8,3.1-5.1,5-8.7,5
			c-3.6,0-6.9-1.9-8.8-5c-1.8,3.1-5.1,5-8.7,5c-0.5,0-1-0.5-1-1c0-0.6,0.4-1,1-1c3.6,0,6.7-2.3,7.8-5.7c0.1-0.4,0.5-0.7,0.9-0.7
			c0.5-0.1,0.9,0.2,1,0.7c1.4,4.3,6,6.7,10.3,5.3c2.5-0.8,4.5-2.8,5.3-5.3c0.1-0.4,0.5-0.7,0.9-0.7c0.5-0.1,0.9,0.2,1,0.7
			c1.4,4.3,6,6.7,10.3,5.3c2.5-0.8,4.5-2.8,5.3-5.3c0.1-0.4,0.5-0.7,0.9-0.7l0,0c0.5,0,0.9,0.3,1,0.7c1.3,4.3,5.8,6.7,10.1,5.4
			c2.7-0.8,4.8-3,5.5-5.7c0.2-0.5,0.8-0.8,1.3-0.7c0.5,0.2,0.8,0.7,0.7,1.2C68.7,90,64.8,93,60.2,93.1z"/>
		<path class="st1" d="M112.7,93.1c-3.6,0-6.9-1.9-8.7-5c-2.9,4.8-9.2,6.4-14,3.5c-1.4-0.9-2.6-2.1-3.5-3.5c-1.9,3.1-5.2,5-8.8,5
			c-4.4,0-8.3-2.9-9.6-7.1c-0.2-0.5,0-1,0.5-1.2c0,0,0.1,0,0.1,0c0.5-0.2,1.1,0.1,1.3,0.6c0,0,0,0,0,0c1.3,4.3,5.8,6.7,10.1,5.4
			c2.6-0.8,4.6-2.8,5.4-5.4c0.1-0.4,0.5-0.7,1-0.7c0.4,0,0.8,0.3,0.9,0.7c1.4,4.3,6,6.7,10.3,5.3c2.5-0.8,4.5-2.8,5.3-5.3
			c0.1-0.5,0.5-0.8,1-0.7c0.4,0,0.8,0.3,0.9,0.7c1.1,3.4,4.2,5.7,7.8,5.7c0.5-0.1,0.9,0.3,1,0.8c0,0.1,0,0.1,0,0.2
			C113.7,92.7,113.3,93.1,112.7,93.1L112.7,93.1z"/>
		<path class="st1" d="M13.1,48.2c-0.4,0-0.7-0.1-1-0.3c-0.9-0.5-1.3-1.6-0.8-2.6c0,0,0-0.1,0.1-0.1l6.1-10.1
			c0.5-0.9,1.7-1.2,2.6-0.7c0,0,0,0,0,0l10.3,5.7c1,0.5,1.3,1.7,0.8,2.7c-0.5,1-1.7,1.3-2.7,0.8l-8.6-4.7l-5.1,8.3
			C14.5,47.8,13.8,48.2,13.1,48.2z"/>
		<path class="st1" d="M60.2,28.4c-7.6-0.6-13.2-7.3-12.6-14.9c0.6-6.7,5.9-12,12.6-12.6c7.6-0.6,14.3,5,14.9,12.6
			s-5,14.3-12.6,14.9C61.8,28.5,61,28.5,60.2,28.4z M60.2,4.9c-5.4,0-9.8,4.4-9.8,9.8s4.4,9.8,9.8,9.8s9.8-4.4,9.8-9.8l0,0
			c0.1-5.4-4.2-9.7-9.6-9.8C60.3,4.9,60.3,4.9,60.2,4.9z"/>
		<path class="st1" d="M60.2,73.8C42.6,73.8,26.7,63.3,20,47c-0.4-1,0.1-2.2,1.1-2.6c0.9-0.5,2.1-0.1,2.5,0.9c0,0,0,0.1,0.1,0.1
			c8.4,20.1,31.5,29.7,51.6,21.3c9.7-4,17.4-11.7,21.4-21.4c0.4-1,1.6-1.5,2.6-1.1c1,0.3,1.5,1.4,1.2,2.4c0,0.1,0,0.1-0.1,0.2
			C93.8,63.2,77.9,73.8,60.2,73.8z"/>
		<path class="st1" d="M107.3,48.2c-0.7,0-1.4-0.4-1.7-1l-5.1-8.3l-8.6,4.7c-1,0.5-2.2,0.2-2.7-0.8c-0.5-1-0.2-2.2,0.8-2.7l10.3-5.7
			c0.9-0.5,2.1-0.2,2.6,0.7c0,0,0,0,0,0l6.1,10.1c0.6,0.9,0.3,2.1-0.6,2.6c0,0-0.1,0.1-0.1,0.1C108,48.1,107.7,48.2,107.3,48.2z"/>
		<path class="st1" d="M60.2,73.8c-1.1,0-2-0.9-2-2V26.4c0-1.1,0.9-2,2-2s2,0.9,2,2v45.4C62.2,72.9,61.3,73.8,60.2,73.8z"/>
		<path class="st1" d="M76.3,43.2H44.1c-1.1,0-2-0.9-2-2s0.9-2,2-2h32.2c1.1,0,2,0.9,2,2S77.4,43.2,76.3,43.2z"/>
	</g>
</g>
<g>
	<text transform="matrix(1 0 0 1 13.5504 127.4356)"><tspan x="0" y="0" class="st2 st3 st4">Ports, Airports</tspan><tspan x="10" y="12.8" class="st2 st3 st4">and Coasts</tspan></text>
</g>
</svg>
