<?xml version="1.0" encoding="utf-8"?>
<!-- Generator: Adobe Illustrator 26.0.3, SVG Export Plug-In . SVG Version: 6.00 Build 0)  -->
<svg version="1.1" id="レイヤー_1" xmlns="http://www.w3.org/2000/svg" xmlns:xlink="http://www.w3.org/1999/xlink" x="0px"
	 y="0px" viewBox="0 0 110 140.4" style="enable-background:new 0 0 110 140.4;" xml:space="preserve">
<style type="text/css">
	.st0{fill:none;}
	.st1{fill:#0A6AB0;}
	.st2{font-family:'Roboto-Bold';}
	.st3{font-size:13px;}
</style>
<g id="レイヤー_2_00000028306882763171640770000009297773543348770950_">
	<g id="レイヤー_1-2">
		<rect y="0" class="st0" width="110" height="110"/>
		<rect y="10" class="st0" width="110" height="90"/>
		<path class="st1" d="M2.5,77c-0.8,0-1.4-0.4-1.8-1.1c-0.4-1-0.1-2.2,0.9-2.7l10.7-5.7l11.9-39.9l-5-5.9c-0.7-0.8-0.7-2,0.1-2.7
			c0,0,0.1-0.1,0.1-0.1c0.8-0.7,2-0.7,2.7,0.1c0,0,0.1,0.1,0.1,0.1l5.7,6.7c0.4,0.5,0.6,1.2,0.4,1.9L15.9,69.4
			c-0.2,0.5-0.5,0.9-0.9,1.2L3.4,76.8L2.5,77z"/>
		<path class="st1" d="M107.5,77l-0.9-0.2L95,70.6c-0.4-0.3-0.7-0.7-0.9-1.2L81.7,27.7c-0.2-0.7,0-1.4,0.4-1.9l5.7-6.7
			c0.6-0.9,1.9-1.2,2.8-0.5c0.9,0.6,1.2,1.9,0.5,2.8c-0.1,0.1-0.2,0.3-0.3,0.4l-5,5.9l11.9,39.9l10.7,5.7c1,0.5,1.3,1.7,0.9,2.7
			C108.9,76.6,108.3,77,107.5,77z"/>
		<path class="st1" d="M92.2,102.1c-0.9,0-1.6-0.6-1.9-1.4l-7.2-24.3c-0.1-0.3-0.1-0.6,0-0.9L63.9,10.7c-0.4-1,0.1-2.1,1.1-2.4
			c0.1,0,0.1,0,0.2-0.1c1-0.3,2.2,0.3,2.5,1.3l19.5,65.7c0.1,0.3,0.1,0.6,0,0.9l7,23.4c0.3,1.1-0.3,2.2-1.3,2.5c0,0,0,0-0.1,0
			L92.2,102.1z"/>
		<path class="st1" d="M17.7,102.1h-0.6c-1-0.3-1.6-1.5-1.3-2.5l26.7-90c0.4-1,1.6-1.5,2.6-1.1c0.9,0.4,1.4,1.3,1.2,2.3l-26.7,90
			C19.3,101.6,18.5,102.1,17.7,102.1z"/>
		<path class="st1" d="M55,67.9c-0.5,0.1-0.9-0.3-1-0.8c0-0.1,0-0.1,0-0.2V10.1c-0.1-0.5,0.3-0.9,0.8-1c0.1,0,0.1,0,0.2,0
			c0.6,0,1,0.4,1,1v56.8C56,67.5,55.6,67.9,55,67.9z"/>
		<path class="st1" d="M55,101.1c-0.5,0.1-0.9-0.3-1-0.8c0-0.1,0-0.1,0-0.2V79.7c0-0.6,0.4-1,1-1c0.5,0,1,0.5,1,1v20.4
			C56,100.7,55.6,101.1,55,101.1z"/>
	</g>
</g>
<text transform="matrix(1 0 0 1 0.5149 138.4002)" class="st2 st3">Roads and Bridges</text>
</svg>
