<?xml version="1.0" encoding="utf-8"?>
<!-- Generator: Adobe Illustrator 26.0.3, SVG Export Plug-In . SVG Version: 6.00 Build 0)  -->
<svg version="1.1" id="レイヤー_1" xmlns="http://www.w3.org/2000/svg" xmlns:xlink="http://www.w3.org/1999/xlink" x="0px"
	 y="0px" viewBox="0 0 110 140.4" style="enable-background:new 0 0 110 140.4;" xml:space="preserve">
<style type="text/css">
	.st0{fill:none;}
	.st1{fill:#0A6AB0;}
	.st2{fill:#231815;}
	.st3{font-family:'Roboto-Bold';}
	.st4{font-size:13px;}
</style>
<g id="レイヤー_2_00000028319087943418960050000015507086484654804894_">
	<g id="レイヤー_1-2">
		<rect y="0" class="st0" width="110" height="110"/>
		<path class="st1" d="M55,46.3c-1.1,0-2-0.9-2-2V18.1c0-1.1,0.9-2,2-2s2,0.9,2,2v26.2C57,45.4,56.1,46.3,55,46.3z"/>
		<path class="st1" d="M55,93.9c-1.1,0-2-0.9-2-2V65.7c0-1.1,0.9-2,2-2s2,0.9,2,2v26.2C57,93,56.1,93.9,55,93.9z"/>
		<path class="st1" d="M55,6.5c2.6,0,4.7,2.1,4.7,4.7s-2.1,4.7-4.7,4.7s-4.7-2.1-4.7-4.7S52.4,6.5,55,6.5L55,6.5 M55,2.5
			c-4.8,0-8.7,3.9-8.7,8.7s3.9,8.7,8.7,8.7s8.7-3.9,8.7-8.7S59.8,2.5,55,2.5L55,2.5z"/>
		<path class="st1" d="M55,94.1c2.6,0,4.7,2.1,4.7,4.7c0,2.6-2.1,4.7-4.7,4.7s-4.7-2.1-4.7-4.7l0,0C50.3,96.2,52.4,94.1,55,94.1
			 M55,90.1c-4.8,0-8.7,3.9-8.7,8.7s3.9,8.7,8.7,8.7s8.7-3.9,8.7-8.7l0,0C63.7,94,59.8,90.1,55,90.1z"/>
		<path class="st1" d="M44.3,57H18.1c-1.1,0-2-0.9-2-2s0.9-2,2-2h26.2c1.1,0,2,0.9,2,2S45.4,57,44.3,57z"/>
		<path class="st1" d="M91.9,57H65.7c-1.1,0-2-0.9-2-2s0.9-2,2-2h26.2c1.1,0,2,0.9,2,2S93,57,91.9,57z"/>
		<path class="st1" d="M47.4,48.4l-0.7-0.2L34.2,35.7c-0.3-0.5-0.3-1,0-1.5c0.5-0.3,1-0.3,1.5,0l12.5,12.5c0.3,0.5,0.3,1,0,1.5
			L47.4,48.4z"/>
		<path class="st1" d="M75,76c-0.3,0-0.5,0-0.7-0.2L61.8,63.3c-0.3-0.5-0.1-1.2,0.4-1.5c0.3-0.2,0.8-0.2,1.1,0l12.5,12.5
			c0.3,0.5,0.3,1,0,1.5C75.6,76,75.3,76,75,76z"/>
		<path class="st1" d="M32.3,37c-1.2,0-2.4-0.4-3.3-1.3c-1.8-1.9-1.8-4.8,0.1-6.6c1.9-1.8,4.8-1.8,6.6,0.1c1.8,1.8,1.8,4.8,0,6.6
			C34.8,36.5,33.6,37,32.3,37z M32.3,29.6c-0.7,0-1.4,0.3-1.9,0.8c-1,1.1-1,2.7,0,3.8c1.2,0.9,2.9,0.8,3.8-0.4c0.8-1,0.8-2.4,0-3.4
			C33.7,29.9,33,29.6,32.3,29.6z"/>
		<path class="st1" d="M77.7,82.4c-1.3,0-2.5-0.5-3.4-1.4c-1.9-1.9-1.9-4.8,0-6.7s4.8-1.9,6.7,0l0,0c1.8,1.9,1.8,4.8,0,6.7
			C80.1,81.9,78.9,82.4,77.7,82.4z M77.7,75c-0.7,0-1.4,0.3-1.9,0.8c-1,1-1.1,2.6-0.1,3.7c0,0,0.1,0.1,0.1,0.1
			c1.2,0.9,2.9,0.8,3.8-0.4c0.8-1,0.8-2.4,0-3.4C79.1,75.3,78.4,75,77.7,75z"/>
		<path class="st1" d="M35,76c-0.3,0-0.6,0-0.8-0.2c-0.3-0.5-0.3-1,0-1.5l12.5-12.5c0.5-0.3,1.2-0.1,1.5,0.4c0.2,0.3,0.2,0.8,0,1.1
			L35.7,75.8C35.5,76,35.3,76,35,76z"/>
		<path class="st1" d="M62.6,48.4l-0.8-0.2c-0.3-0.5-0.3-1,0-1.5l12.5-12.5c0.5-0.3,1-0.3,1.5,0c0.3,0.5,0.3,1,0,1.5L63.3,48.2
			L62.6,48.4z"/>
		<path class="st1" d="M32.3,82.4c-1.2,0-2.4-0.5-3.3-1.4c-1.8-1.9-1.8-4.8,0-6.7l0,0c1.9-1.9,4.8-1.9,6.7,0c1.9,1.9,1.9,4.8,0,6.7
			l0,0C34.8,81.9,33.6,82.4,32.3,82.4z M30.4,75.8c-0.9,1.2-0.8,2.9,0.4,3.8c1,0.8,2.4,0.8,3.4,0c1.2-0.9,1.3-2.6,0.4-3.8
			c-0.9-1.2-2.6-1.3-3.8-0.4C30.6,75.5,30.5,75.7,30.4,75.8z"/>
		<path class="st1" d="M77.7,37c-1.3,0-2.5-0.5-3.4-1.3c-1.8-1.9-1.8-4.8,0.1-6.6c1.9-1.8,4.8-1.8,6.6,0.1c1.8,1.8,1.8,4.8,0,6.6
			C80.1,36.6,78.9,37,77.7,37z M77.7,29.6c-0.7,0-1.4,0.3-1.9,0.8c-1.2,0.9-1.3,2.6-0.4,3.8c0.9,1.2,2.6,1.3,3.8,0.4
			c0.1-0.1,0.3-0.2,0.4-0.4c1-1.1,1-2.7,0-3.8C79.1,29.9,78.4,29.6,77.7,29.6z"/>
		<path class="st1" d="M55,67.7c-7,0-12.7-5.7-12.7-12.7c0-7,5.7-12.7,12.7-12.7c7,0,12.7,5.7,12.7,12.7v0C67.7,62,62,67.7,55,67.7z
			 M55,46.3c-4.8,0-8.7,3.9-8.7,8.7s3.9,8.7,8.7,8.7s8.7-3.9,8.7-8.7C63.7,50.2,59.8,46.3,55,46.3C55,46.3,55,46.3,55,46.3z"/>
		<path class="st1" d="M11.2,50.3c2.6,0,4.7,2.1,4.7,4.7s-2.1,4.7-4.7,4.7S6.5,57.6,6.5,55S8.6,50.3,11.2,50.3L11.2,50.3 M11.2,46.3
			c-4.8,0-8.7,3.9-8.7,8.7s3.9,8.7,8.7,8.7s8.7-3.9,8.7-8.7S16,46.3,11.2,46.3L11.2,46.3z"/>
		<path class="st1" d="M98.8,50.3c2.6,0,4.7,2.1,4.7,4.7c0,2.6-2.1,4.7-4.7,4.7c-2.6,0-4.7-2.1-4.7-4.7S96.2,50.3,98.8,50.3
			 M98.8,46.3c-4.8,0-8.7,3.9-8.7,8.7s3.9,8.7,8.7,8.7c4.8,0,8.7-3.9,8.7-8.7l0,0C107.5,50.2,103.6,46.3,98.8,46.3z"/>
	</g>
</g>
<text transform="matrix(1 0 0 1 19.7415 124.416)"><tspan x="0" y="0" class="st2 st3 st4">Information</tspan><tspan x="9" y="13" class="st2 st3 st4">Systems</tspan></text>
</svg>
