<?xml version="1.0" encoding="utf-8"?>
<!-- Generator: Adobe Illustrator 26.0.3, SVG Export Plug-In . SVG Version: 6.00 Build 0)  -->
<svg version="1.1" id="レイヤー_1" xmlns="http://www.w3.org/2000/svg" xmlns:xlink="http://www.w3.org/1999/xlink" x="0px"
	 y="0px" viewBox="0 0 110 140.3" style="enable-background:new 0 0 110 140.3;" xml:space="preserve">
<style type="text/css">
	.st0{fill:none;}
	.st1{fill:#0A6AB0;}
	.st2{font-family:'Roboto-Bold';}
	.st3{font-size:13px;}
</style>
<g id="レイヤー_2_00000143578446871764002610000011203411363465894316_">
	<g id="レイヤー_1-2">
		<rect y="5" class="st0" width="110" height="100"/>
		<rect y="0" class="st0" width="110" height="110"/>
		<path class="st1" d="M107.5,104.5H2.5c-1.1,0-2-0.9-2-2s0.9-2,2-2h105c1.1,0,2,0.9,2,2S108.6,104.5,107.5,104.5z"/>
		<path class="st1" d="M70.6,104.5H34.8c-1.1,0-2-0.9-2-2s0.9-2,2-2h33.8V35.8L36.8,11.5v22.3c0,1.1-0.9,2-2,2s-2-0.9-2-2V7.5
			c0-0.8,0.4-1.5,1.1-1.8c0.7-0.3,1.5-0.3,2.1,0.2l35.8,27.3c0.5,0.4,0.8,1,0.8,1.6v67.7C72.6,103.6,71.7,104.5,70.6,104.5
			L70.6,104.5z"/>
		<path class="st1" d="M42.2,104.5H10.4c-1.1,0-2-0.9-2-2V42.9c0-1.1,0.9-2,2-2h31.8c1.1,0,2,0.9,2,2v59.6
			C44.2,103.6,43.3,104.5,42.2,104.5z M12.4,100.5h27.8V44.9H12.4L12.4,100.5z"/>
		<path class="st1" d="M100.4,104.5H70.6c-1.1,0-2-0.9-2-2V55.9c0-0.6,0.3-1.2,0.8-1.6l14.9-11.2c0.7-0.6,1.7-0.6,2.4,0l14.9,11.2
			c0.5,0.4,0.8,1,0.8,1.6v46.6C102.4,103.6,101.5,104.5,100.4,104.5L100.4,104.5z M72.6,100.5h25.8V56.9l-12.9-9.7l-12.9,9.7
			L72.6,100.5z"/>
		<path class="st1" d="M35,56H17.7c-0.6,0-1-0.4-1-1s0.4-1,1-1H35c0.6,0,1,0.4,1,1S35.6,56,35,56z"/>
		<path class="st1" d="M35,65.5H17.7c-0.5,0.1-0.9-0.3-1-0.8c0-0.1,0-0.1,0-0.2c0-0.6,0.4-1,1-1H35c0.5,0,1,0.5,1,1
			C36,65.1,35.6,65.5,35,65.5z"/>
		<path class="st1" d="M35,75.1H17.7c-0.6,0-1-0.4-1-1c-0.1-0.5,0.3-0.9,0.8-1c0.1,0,0.1,0,0.2,0H35c0.6,0,1,0.4,1,1
			C36,74.6,35.5,75.1,35,75.1z"/>
		<path class="st1" d="M83.3,70h-5.7c-0.6,0-1-0.4-1-1v-7.4c0-0.6,0.4-1,1-1h5.7c0.5,0,1,0.5,1,1V69C84.3,69.5,83.8,70,83.3,70z
			 M78.6,68h3.7v-5.4h-3.7L78.6,68z"/>
		<path class="st1" d="M93.5,70h-5.7c-0.6,0-1-0.4-1-1v-7.4c0-0.6,0.4-1,1-1h5.7c0.5,0,1,0.5,1,1V69C94.5,69.5,94,70,93.5,70z
			 M88.8,68h3.7v-5.4h-3.7V68z"/>
		<path class="st1" d="M83.3,82.4h-5.7c-0.5,0.1-0.9-0.3-1-0.8c0-0.1,0-0.1,0-0.2v-7.3c-0.1-0.5,0.3-0.9,0.8-1c0.1,0,0.1,0,0.2,0
			h5.7c0.6,0,1,0.4,1,1v7.3C84.3,82,83.9,82.4,83.3,82.4z M78.6,80.4h3.7v-5.3h-3.7L78.6,80.4z"/>
		<path class="st1" d="M93.5,82.4h-5.7c-0.5,0.1-0.9-0.3-1-0.8c0-0.1,0-0.1,0-0.2v-7.3c-0.1-0.5,0.3-0.9,0.8-1c0.1,0,0.1,0,0.2,0
			h5.7c0.6,0,1,0.4,1,1v7.3C94.5,82,94.1,82.4,93.5,82.4z M88.8,80.4h3.7v-5.3h-3.7V80.4z"/>
		<rect x="43.2" y="30.3" class="st1" width="4.3" height="5.4"/>
		<rect x="50.6" y="39.9" class="st1" width="4.3" height="5.4"/>
		<rect x="50.5" y="30.4" class="st1" width="4.3" height="5.4"/>
		<rect x="57.9" y="39.9" class="st1" width="4.3" height="5.4"/>
		<rect x="50.5" y="51.1" class="st1" width="4.3" height="5.4"/>
		<rect x="57.9" y="51" class="st1" width="4.3" height="5.4"/>
		<rect x="50.5" y="62.2" class="st1" width="4.3" height="5.4"/>
		<rect x="57.8" y="62.1" class="st1" width="4.3" height="5.4"/>
		<rect x="50.6" y="73.3" class="st1" width="4.3" height="5.4"/>
		<rect x="57.9" y="73.3" class="st1" width="4.3" height="5.4"/>
		<rect x="50.5" y="84.5" class="st1" width="4.3" height="5.4"/>
		<rect x="57.9" y="84.4" class="st1" width="4.3" height="5.4"/>
	</g>
</g>
<text transform="matrix(1 0 0 1 10.541 137.5884)" class="st2 st3">Urban Planning</text>
</svg>
