<?xml version="1.0" encoding="UTF-8"?><svg xmlns="http://www.w3.org/2000/svg" viewBox="0 0 109.5 142.4"><g id="a"/><g id="b"><g id="c"><g><path d="M41.2,139.7c0-.4-.1-.7-.4-.9s-.8-.4-1.5-.7-1.3-.5-1.7-.7c-1.1-.6-1.7-1.4-1.7-2.5s.2-1,.5-1.4,.7-.8,1.3-1c.6-.2,1.2-.4,1.9-.4s1.3,.1,1.9,.4,1,.6,1.3,1.1c.3,.5,.5,1,.5,1.6h-2.1c0-.5-.1-.8-.4-1.1s-.7-.4-1.2-.4-.9,.1-1.2,.3-.4,.5-.4,.8,.2,.6,.5,.8,.8,.4,1.4,.6c1.2,.4,2,.8,2.5,1.3s.8,1.2,.8,1.9-.3,1.5-1,2-1.5,.7-2.6,.7-1.5-.1-2.1-.4-1.1-.7-1.4-1.2c-.3-.5-.5-1.1-.5-1.7h2.1c0,1.1,.7,1.6,2,1.6s.9,0,1.1-.3,.4-.5,.4-.8Z" style="fill:#0a6ab0;"/><path d="M47.9,142.4c-1.1,0-2-.3-2.6-1-.7-.7-1-1.6-1-2.7v-.2c0-.7,.1-1.4,.4-2s.7-1,1.2-1.4,1.1-.5,1.8-.5c1,0,1.8,.3,2.4,1,.6,.6,.9,1.5,.9,2.7v.8h-4.7c0,.5,.3,.9,.6,1.2,.3,.3,.7,.4,1.2,.4,.8,0,1.4-.3,1.8-.8l1,1.1c-.3,.4-.7,.7-1.2,1s-1.1,.4-1.7,.4Zm-.2-6.1c-.4,0-.7,.1-1,.4s-.4,.6-.5,1.1h2.7v-.2c0-.4-.1-.8-.4-1s-.6-.4-1-.4Z" style="fill:#0a6ab0;"/><path d="M58.5,139.6l1-4.7h1.9l-1.9,7.4h-1.7l-1.4-4.7-1.4,4.7h-1.6l-1.9-7.4h1.9l1,4.7,1.4-4.7h1.4l1.3,4.7Z" style="fill:#0a6ab0;"/><path d="M65.8,142.4c-1.1,0-2-.3-2.6-1-.7-.7-1-1.6-1-2.7v-.2c0-.7,.1-1.4,.4-2s.7-1,1.2-1.4,1.1-.5,1.8-.5c1,0,1.8,.3,2.4,1,.6,.6,.9,1.5,.9,2.7v.8h-4.7c0,.5,.3,.9,.6,1.2,.3,.3,.7,.4,1.2,.4,.8,0,1.4-.3,1.8-.8l1,1.1c-.3,.4-.7,.7-1.2,1s-1.1,.4-1.7,.4Zm-.2-6.1c-.4,0-.7,.1-1,.4s-.4,.6-.5,1.1h2.7v-.2c0-.4-.1-.8-.4-1s-.6-.4-1-.4Z" style="fill:#0a6ab0;"/><path d="M74.1,136.8c-.3,0-.5,0-.7,0-.7,0-1.2,.3-1.5,.8v4.8h-2v-7.4h1.9v.9c.5-.7,1-1,1.7-1s.4,0,.6,0v1.9Z" style="fill:#0a6ab0;"/></g></g><g id="d"><g><line x1="41.3" y1="52.4" x2="2" y2="52.4" style="fill:none; stroke:#0a6ab0; stroke-linecap:round; stroke-linejoin:round; stroke-width:4px;"/><path d="M65.3,2h-17.8c-6.5,0-11.7,12.2-11.7,27.3s2,17.7,5.2,22.6,4.1,4.7,6.5,4.7h17.8" style="fill:none; stroke:#0a6ab0; stroke-linecap:round; stroke-linejoin:round; stroke-width:4px;"/><path d="M70.7,53.5c-1.6,2-3.5,3.1-5.4,3.1-6.5,0-11.7-12.2-11.7-27.3S58.8,2,65.3,2s11.7,12.2,11.7,27.3" style="fill:none; stroke:#0a6ab0; stroke-linecap:round; stroke-linejoin:round; stroke-width:4px;"/><line x1="2" y1="6.2" x2="41.1" y2="6.2" style="fill:none; stroke:#0a6ab0; stroke-linecap:round; stroke-linejoin:round; stroke-width:4px;"/><path d="M81.6,67.6v-5.6c0-9.9-8-18-18-18" style="fill:none; stroke:#0a6ab0; stroke-linecap:round; stroke-linejoin:round; stroke-width:2px;"/><path d="M93.7,67.6v-1.6c0-16.7-13.5-30.2-30.2-30.2" style="fill:none; stroke:#0a6ab0; stroke-linecap:round; stroke-linejoin:round; stroke-width:2px;"/><line x1="2.5" y1="75.5" x2="107.5" y2="75.5" style="fill:none; stroke:#0a6ab0; stroke-linecap:round; stroke-linejoin:round; stroke-width:4px;"/><g><line x1="2.5" y1="88.2" x2="9.4" y2="88.2" style="fill:none; stroke:#0a6ab0; stroke-linecap:round; stroke-linejoin:round; stroke-width:2px;"/><line x1="51.5" y1="88.2" x2="58.5" y2="88.2" style="fill:none; stroke:#0a6ab0; stroke-linecap:round; stroke-linejoin:round; stroke-width:2px;"/><line x1="76" y1="88.2" x2="83" y2="88.2" style="fill:none; stroke:#0a6ab0; stroke-linecap:round; stroke-linejoin:round; stroke-width:2px;"/><line x1="27" y1="88.2" x2="34" y2="88.2" style="fill:none; stroke:#0a6ab0; stroke-linecap:round; stroke-linejoin:round; stroke-width:2px;"/><line x1="100.5" y1="88.2" x2="107.5" y2="88.2" style="fill:none; stroke:#0a6ab0; stroke-linecap:round; stroke-linejoin:round; stroke-width:2px;"/></g><g><line x1="13.8" y1="98.8" x2="20.8" y2="98.8" style="fill:none; stroke:#0a6ab0; stroke-linecap:round; stroke-linejoin:round; stroke-width:2px;"/><line x1="38.9" y1="98.8" x2="45.9" y2="98.8" style="fill:none; stroke:#0a6ab0; stroke-linecap:round; stroke-linejoin:round; stroke-width:2px;"/><line x1="64.1" y1="98.8" x2="71" y2="98.8" style="fill:none; stroke:#0a6ab0; stroke-linecap:round; stroke-linejoin:round; stroke-width:2px;"/><line x1="89.2" y1="98.8" x2="96.2" y2="98.8" style="fill:none; stroke:#0a6ab0; stroke-linecap:round; stroke-linejoin:round; stroke-width:2px;"/></g></g></g></g></svg>