<?xml version="1.0" encoding="UTF-8"?><svg xmlns="http://www.w3.org/2000/svg" viewBox="0 0 104 144.9"><g id="a"/><g id="b"><g id="c"><g><path d="M16.4,140.7c0,1.1-.5,1.9-1.2,2.5-.7,.6-1.7,.9-2.8,.9s-2.3-.4-3-1.3c-.7-.9-1.1-2-1.1-3.5v-.6c0-1,.2-1.8,.5-2.5,.3-.7,.8-1.3,1.4-1.7,.6-.4,1.4-.6,2.2-.6s2.1,.3,2.8,.9c.7,.6,1.1,1.5,1.2,2.6h-2.1c0-.6-.2-1.1-.5-1.4-.3-.3-.8-.4-1.4-.4s-1.2,.2-1.5,.7c-.3,.5-.5,1.2-.5,2.3v.8c0,1.1,.2,1.9,.5,2.4,.3,.5,.8,.7,1.5,.7s1.1-.1,1.4-.4c.3-.3,.5-.7,.5-1.3h2.1Z" style="fill:#0a6ab0;"/><path d="M20.5,134.1l2.6,7.2,2.5-7.2h2.7v10h-2.1v-2.7l.2-4.7-2.7,7.4h-1.4l-2.7-7.4,.2,4.7v2.7h-2.1v-10h2.7Z" style="fill:#0a6ab0;"/><path d="M37.6,139c0,.8-.6,1.4-1.4,1.4s-1.4-.6-1.4-1.4,.6-1.4,1.4-1.4,1.4,.7,1.4,1.4Z" style="fill:#0a6ab0;"/><path d="M46.1,140.5v3.5h-2.1v-10h3.9c.7,0,1.4,.1,2,.4s1,.7,1.3,1.2c.3,.5,.5,1.1,.5,1.7,0,1-.3,1.7-1,2.3-.7,.6-1.6,.8-2.8,.8h-1.8Zm0-1.7h1.8c.5,0,1-.1,1.2-.4,.3-.3,.4-.6,.4-1.1s-.1-.9-.4-1.2-.7-.5-1.2-.5h-1.9v3.1Z" style="fill:#0a6ab0;"/><path d="M55.1,140.5v3.5h-2.1v-10h3.9c.7,0,1.4,.1,2,.4s1,.7,1.3,1.2c.3,.5,.5,1.1,.5,1.7,0,1-.3,1.7-1,2.3-.7,.6-1.6,.8-2.8,.8h-1.8Zm0-1.7h1.8c.5,0,1-.1,1.2-.4,.3-.3,.4-.6,.4-1.1s-.1-.9-.4-1.2-.7-.5-1.2-.5h-1.9v3.1Z" style="fill:#0a6ab0;"/><path d="M64.2,140.5v3.5h-2.1v-10h3.9c.7,0,1.4,.1,2,.4s1,.7,1.3,1.2c.3,.5,.5,1.1,.5,1.7,0,1-.3,1.7-1,2.3-.7,.6-1.6,.8-2.8,.8h-1.8Zm0-1.7h1.8c.5,0,1-.1,1.2-.4,.3-.3,.4-.6,.4-1.1s-.1-.9-.4-1.2-.7-.5-1.2-.5h-1.9v3.1Z" style="fill:#0a6ab0;"/><path d="M71.6,144.9h-1.5l3.7-10.8h1.5l-3.7,10.8Z" style="fill:#0a6ab0;"/><path d="M78.4,140.5v3.5h-2.1v-10h3.9c.7,0,1.4,.1,2,.4s1,.7,1.3,1.2c.3,.5,.5,1.1,.5,1.7,0,1-.3,1.7-1,2.3-.7,.6-1.6,.8-2.8,.8h-1.8Zm0-1.7h1.8c.5,0,1-.1,1.2-.4,.3-.3,.4-.6,.4-1.1s-.1-.9-.4-1.2-.7-.5-1.2-.5h-1.9v3.1Z" style="fill:#0a6ab0;"/><path d="M91.4,140h-3.9v4.1h-2.1v-10h6.5v1.7h-4.4v2.6h3.9v1.7Z" style="fill:#0a6ab0;"/><path d="M95.3,144h-2.1v-10h2.1v10Z" style="fill:#0a6ab0;"/></g></g><g id="d"><g><path d="M101.2,60.6c.5-2.9,.8-6,.8-9.1s-.2-5.5-.6-8.2l-6-.2c-3-.1-5.6-2-6.7-4.7s-.8-2-1.2-2.9c-1.2-2.7-.6-5.8,1.4-7.9l4-4.3c-1.7-2.5-3.7-4.8-5.8-7-2-2-4.1-3.7-6.2-5.3l-4.2,3.9c-2.2,2-5.4,2.6-8,1.3s-1.9-.9-2.9-1.3c-2.8-1.1-4.7-3.6-4.8-6.5l-.2-5.7c-2.9-.5-6-.8-9.1-.8s-5.5,.2-8.2,.6l-.2,5.5c-.1,3-2.1,5.6-4.9,6.6s-2,.8-3,1.2c-2.7,1.2-5.9,.8-8-1.2l-3.9-3.6c-2.5,1.7-4.8,3.7-7,5.8-2,2-3.7,4.1-5.3,6.2l3.6,3.8c2,2.2,2.5,5.4,1.2,8.1s-.9,2.1-1.3,3.1c-1,2.8-3.6,4.8-6.6,4.9l-5,.2c-.5,2.9-.8,6-.8,9.1s.2,5.5,.6,8.2l5.2,.2c3,.1,5.6,2.1,6.6,4.9s.8,2.1,1.3,3.1c1.3,2.7,.9,5.9-1.2,8.1l-3.4,3.7c1.7,2.5,3.7,4.8,5.8,7,2,2,4.1,3.7,6.2,5.3l4-3.7c2.2-2,5.3-2.5,8-1.2s2,.9,3,1.2c2.8,1,4.8,3.6,4.9,6.6l.2,5.3c2.9,.5,6,.8,9.1,.8s5.5-.2,8.2-.6l.2-5.8c.1-3,2-5.5,4.8-6.5s2-.8,2.9-1.3c2.7-1.3,5.9-.7,8,1.3l4.1,3.8c2.5-1.7,4.8-3.7,7-5.8,2-2,3.7-4.1,5.3-6.2l-4.1-4.4c-2-2.1-2.6-5.3-1.4-7.9s.8-1.9,1.2-2.9c1-2.8,3.7-4.6,6.7-4.7l5.8-.2Z" style="fill:none; stroke:#0a6ab0; stroke-linecap:round; stroke-linejoin:round; stroke-width:4px;"/><path d="M72.7,30.9c5.4,5.4,8.8,12.9,8.8,21.1,0,16.5-13.4,29.9-29.9,29.9s-15.7-3.3-21.1-8.8" style="fill:none; stroke:#0a6ab0; stroke-linecap:round; stroke-linejoin:round; stroke-width:2px;"/><path d="M21.7,52c0-16.5,13.4-29.9,29.9-29.9" style="fill:none; stroke:#0a6ab0; stroke-linecap:round; stroke-linejoin:round; stroke-width:2px;"/><circle cx="51.6" cy="52" r="15.2" style="fill:none; stroke:#0a6ab0; stroke-linecap:round; stroke-linejoin:round; stroke-width:4px;"/></g></g></g></svg>