<?xml version="1.0" encoding="UTF-8"?><svg xmlns="http://www.w3.org/2000/svg" viewBox="0 0 109 151.9"><g id="a"/><g id="b"><g id="c"><g><path d="M16.1,147.6c-.4,.4-.9,.8-1.6,1s-1.4,.4-2.2,.4-1.6-.2-2.3-.6-1.2-.9-1.5-1.6c-.4-.7-.5-1.6-.5-2.5v-.7c0-1,.2-1.9,.5-2.6s.8-1.3,1.4-1.7,1.4-.6,2.2-.6,2.1,.3,2.8,.8,1.1,1.4,1.2,2.5h-2c0-.6-.3-1-.6-1.3-.3-.3-.7-.4-1.3-.4s-1.2,.3-1.6,.8c-.4,.5-.5,1.3-.6,2.3v.6c0,1,.2,1.8,.6,2.4s1,.8,1.7,.8,1.3-.2,1.6-.5v-1.7h-1.9v-1.5h3.9v4Z" style="fill:#0a6ab0;"/><path d="M21.8,143.3c-.3,0-.5,0-.7,0-.7,0-1.2,.3-1.5,.8v4.8h-2v-7.4h1.9v.9c.5-.7,1-1,1.7-1s.4,0,.6,0v1.9Z" style="fill:#0a6ab0;"/><path d="M22.4,145.1c0-.7,.1-1.4,.4-2s.7-1,1.2-1.3,1.1-.5,1.8-.5c1,0,1.8,.3,2.4,.9,.6,.6,1,1.4,1.1,2.5v.5c0,1.1-.3,2-.9,2.7s-1.5,1-2.5,1-1.9-.3-2.6-1-1-1.6-1-2.8h0Zm2,0c0,.7,.1,1.2,.4,1.6,.3,.4,.6,.6,1.1,.6s.9-.2,1.1-.6c.3-.4,.4-1,.4-1.8s-.1-1.2-.4-1.6-.6-.6-1.1-.6-.9,.2-1.1,.6-.4,1-.4,1.7Z" style="fill:#0a6ab0;"/><path d="M35.1,148.1c-.5,.6-1.2,.9-2,.9s-1.4-.2-1.8-.7c-.4-.5-.6-1.1-.6-2v-4.8h2v4.8c0,.8,.4,1.2,1.1,1.2s1.1-.2,1.4-.7v-5.2h2v7.4h-1.9v-.8Z" style="fill:#0a6ab0;"/><path d="M40.3,141.5v.9c.6-.7,1.3-1,2.2-1s1.4,.2,1.8,.7c.4,.5,.6,1.1,.6,2.1v4.8h-2v-4.7c0-.4,0-.7-.3-.9s-.5-.3-.9-.3-1,.2-1.3,.7v5.2h-2v-7.4h1.9Z" style="fill:#0a6ab0;"/><path d="M46,145.1c0-1.2,.3-2.1,.8-2.8s1.2-1,2.1-1,1.3,.3,1.8,.8v-3.8h2v10.5h-1.8v-.8c-.6,.6-1.2,.9-2,.9s-1.6-.3-2.1-1-.8-1.6-.8-2.9Zm2,.1c0,.7,.1,1.2,.4,1.6,.2,.4,.6,.6,1.1,.6s1-.3,1.3-.8v-2.9c-.2-.5-.7-.8-1.3-.8-1,0-1.4,.8-1.4,2.3Z" style="fill:#0a6ab0;"/><path d="M62,148.9c0-.2-.2-.4-.2-.7-.5,.5-1.1,.8-1.9,.8s-1.3-.2-1.8-.6c-.5-.4-.7-.9-.7-1.6s.3-1.4,.9-1.8c.6-.4,1.4-.6,2.5-.6h.9v-.4c0-.3,0-.6-.3-.8s-.5-.3-.8-.3-.6,0-.8,.2c-.2,.2-.3,.4-.3,.7h-2c0-.4,.1-.8,.4-1.2,.3-.4,.6-.7,1.1-.9s1-.3,1.6-.3c.9,0,1.6,.2,2.2,.7s.8,1.1,.8,1.9v3.2c0,.7,.1,1.2,.3,1.6h-2Zm-1.6-1.3c.3,0,.6,0,.8-.2s.4-.3,.5-.5v-1.3h-.7c-1,0-1.5,.3-1.6,1h0c0,.4,0,.6,.3,.7,.2,.2,.4,.2,.7,.2Z" style="fill:#0a6ab0;"/><path d="M67,141.5v.9c.6-.7,1.3-1,2.2-1s1.4,.2,1.8,.7c.4,.5,.6,1.1,.6,2.1v4.8h-2v-4.7c0-.4,0-.7-.3-.9s-.5-.3-.9-.3-1,.2-1.3,.7v5.2h-2v-7.4h1.9Z" style="fill:#0a6ab0;"/><path d="M77.3,148.9c0-.2-.2-.4-.2-.7-.5,.5-1.1,.8-1.9,.8s-1.3-.2-1.8-.6c-.5-.4-.7-.9-.7-1.6s.3-1.4,.9-1.8c.6-.4,1.4-.6,2.5-.6h.9v-.4c0-.3,0-.6-.3-.8s-.5-.3-.8-.3-.6,0-.8,.2c-.2,.2-.3,.4-.3,.7h-2c0-.4,.1-.8,.4-1.2,.3-.4,.6-.7,1.1-.9s1-.3,1.6-.3c.9,0,1.6,.2,2.2,.7s.8,1.1,.8,1.9v3.2c0,.7,.1,1.2,.3,1.6h-2Zm-1.6-1.3c.3,0,.6,0,.8-.2s.4-.3,.5-.5v-1.3h-.7c-1,0-1.5,.3-1.6,1h0c0,.4,0,.6,.3,.7,.2,.2,.4,.2,.7,.2Z" style="fill:#0a6ab0;"/><path d="M82.6,148.9h-2v-10.5h2v10.5Z" style="fill:#0a6ab0;"/><path d="M87,146.1l1.4-4.6h2.1l-3,8.5-.2,.4c-.4,1-1.2,1.4-2.2,1.4s-.6,0-.9-.1v-1.5h.3c.4,0,.7,0,.8-.2,.2-.1,.3-.3,.4-.6l.2-.6-2.6-7.4h2.1l1.4,4.6Z" style="fill:#0a6ab0;"/><path d="M95.3,146.8c0-.2-.1-.4-.4-.6s-.6-.3-1.2-.4c-1.8-.4-2.6-1.1-2.6-2.2s.3-1.2,.8-1.6,1.3-.7,2.1-.7,1.7,.2,2.3,.7c.6,.4,.8,1,.8,1.7h-2c0-.3,0-.5-.3-.7s-.5-.3-.9-.3-.6,0-.8,.2-.3,.3-.3,.6,.1,.4,.3,.5,.6,.2,1,.3,.9,.2,1.2,.3c1,.4,1.6,1,1.6,2s-.3,1.2-.9,1.6-1.3,.6-2.2,.6-1.2-.1-1.7-.3-.9-.5-1.1-.9-.4-.8-.4-1.2h1.9c0,.4,.1,.6,.4,.8,.2,.2,.6,.3,1,.3s.7,0,.9-.2,.3-.3,.3-.6Z" style="fill:#0a6ab0;"/><path d="M98.5,139.6c0-.3,0-.5,.3-.7s.5-.3,.8-.3,.6,0,.8,.3,.3,.4,.3,.7-.1,.5-.3,.7-.5,.3-.8,.3-.6,0-.8-.3-.3-.4-.3-.7Zm2.1,9.3h-2v-7.4h2v7.4Z" style="fill:#0a6ab0;"/><path d="M106.2,146.8c0-.2-.1-.4-.4-.6s-.6-.3-1.2-.4c-1.8-.4-2.6-1.1-2.6-2.2s.3-1.2,.8-1.6,1.3-.7,2.1-.7,1.7,.2,2.3,.7c.6,.4,.8,1,.8,1.7h-2c0-.3,0-.5-.3-.7s-.5-.3-.9-.3-.6,0-.8,.2-.3,.3-.3,.6,.1,.4,.3,.5,.6,.2,1,.3,.9,.2,1.2,.3c1,.4,1.6,1,1.6,2s-.3,1.2-.9,1.6-1.3,.6-2.2,.6-1.2-.1-1.7-.3-.9-.5-1.1-.9-.4-.8-.4-1.2h1.9c0,.4,.1,.6,.4,.8,.2,.2,.6,.3,1,.3s.7,0,.9-.2,.3-.3,.3-.6Z" style="fill:#0a6ab0;"/></g></g><g id="d"><g><g><polyline points="31.3 14.2 72.4 2 102.9 33.4" style="fill:none; stroke:#0a6ab0; stroke-linecap:round; stroke-linejoin:round; stroke-width:4px;"/><polyline points="62 62.9 31.5 54.7 43.3 10.5" style="fill:none; stroke:#0a6ab0; stroke-linecap:round; stroke-linejoin:round; stroke-width:4px;"/><line x1="94.1" y1="24.1" x2="82.2" y2="68.3" style="fill:none; stroke:#0a6ab0; stroke-linecap:round; stroke-linejoin:round; stroke-width:4px;"/></g><path d="M2,62.9H72s-3.4,12.3,7.2,14.5,6.2,13.8,13.3,13.8c11.5,0,14.5,15.8,14.5,15.8" style="fill:none; stroke:#0a6ab0; stroke-linecap:round; stroke-linejoin:round; stroke-width:4px;"/><line x1="92.6" y1="100.7" x2="2" y2="100.7" style="fill:none; stroke:#0a6ab0; stroke-linecap:round; stroke-linejoin:round; stroke-width:2px;"/><line x1="2" y1="77.4" x2="64.5" y2="77.4" style="fill:none; stroke:#0a6ab0; stroke-linecap:round; stroke-linejoin:round; stroke-width:2px;"/><line x1="11" y1="89.1" x2="76.4" y2="89.1" style="fill:none; stroke:#0a6ab0; stroke-linecap:round; stroke-linejoin:round; stroke-width:2px;"/></g></g></g></svg>