<?xml version="1.0" encoding="UTF-8"?><svg xmlns="http://www.w3.org/2000/svg" viewBox="0 0 116.6 133"><g id="a"/><g id="b"><g id="c"><g><path d="M3.7,126.5h-1.6v3.6H0v-10H3.7c1.2,0,2.1,.3,2.7,.8s1,1.3,1,2.2-.1,1.2-.4,1.7-.7,.8-1.3,1.1l2.2,4.1h-2.2l-1.9-3.5Zm-1.6-1.7h1.7c.5,0,.9-.1,1.2-.4s.4-.6,.4-1.1-.1-.8-.4-1.1-.7-.4-1.2-.4h-1.6v3Z" style="fill:#0a6ab0;"/><path d="M8.5,126.3c0-.7,.1-1.4,.4-2s.7-1,1.2-1.3,1.1-.5,1.8-.5c1,0,1.8,.3,2.4,.9s1,1.4,1.1,2.5v.5c0,1.1-.3,2-.9,2.7s-1.5,1-2.5,1-1.9-.3-2.6-1-1-1.6-1-2.8h0Zm2,0c0,.7,.1,1.2,.4,1.6,.3,.4,.6,.6,1.1,.6s.9-.2,1.1-.6c.3-.4,.4-1,.4-1.8s-.1-1.2-.4-1.6-.6-.6-1.1-.6-.9,.2-1.1,.6-.4,1-.4,1.7Z" style="fill:#0a6ab0;"/><path d="M21,130.1c0-.2-.2-.4-.2-.7-.5,.5-1.1,.8-1.9,.8s-1.3-.2-1.8-.6-.7-.9-.7-1.6,.3-1.4,.9-1.8,1.4-.6,2.5-.6h.9v-.4c0-.3,0-.6-.3-.8s-.5-.3-.8-.3-.6,0-.8,.2-.3,.4-.3,.7h-2c0-.4,.1-.8,.4-1.2s.6-.7,1.1-.9,1-.3,1.6-.3c.9,0,1.6,.2,2.2,.7s.8,1.1,.8,1.9v3.2c0,.7,.1,1.2,.3,1.6h-2Zm-1.6-1.3c.3,0,.6,0,.8-.2s.4-.3,.5-.5v-1.3h-.7c-1,0-1.5,.3-1.6,1h0c0,.4,0,.6,.3,.7s.4,.2,.7,.2Z" style="fill:#0a6ab0;"/><path d="M23.9,126.3c0-1.2,.3-2.1,.8-2.8s1.2-1,2.1-1,1.3,.3,1.8,.8v-3.8h2v10.5h-1.8v-.8c-.6,.6-1.2,.9-2,.9s-1.6-.3-2.1-1-.8-1.6-.8-2.9Zm2,.1c0,.7,.1,1.2,.4,1.6,.2,.4,.6,.6,1.1,.6s1-.3,1.3-.8v-2.9c-.2-.5-.7-.8-1.3-.8-1,0-1.4,.8-1.4,2.3Z" style="fill:#0a6ab0;"/><path d="M36.1,128.1c0-.2-.1-.4-.4-.6s-.6-.3-1.2-.4c-1.8-.4-2.6-1.1-2.6-2.2s.3-1.2,.8-1.6,1.3-.7,2.1-.7,1.7,.2,2.3,.7,.8,1,.8,1.7h-2c0-.3,0-.5-.3-.7s-.5-.3-.9-.3-.6,0-.8,.2-.3,.3-.3,.6,.1,.4,.3,.5,.6,.3,1,.3,.9,.2,1.2,.3c1,.4,1.6,1,1.6,2s-.3,1.2-.9,1.6-1.3,.6-2.2,.6-1.2-.1-1.7-.3-.9-.5-1.1-.9-.4-.8-.4-1.2h1.9c0,.4,.1,.6,.4,.8s.6,.3,1,.3,.7,0,.9-.2,.3-.3,.3-.6Z" style="fill:#0a6ab0;"/><path d="M47.1,130.1c0-.2-.2-.4-.2-.7-.5,.5-1.1,.8-1.9,.8s-1.3-.2-1.8-.6-.7-.9-.7-1.6,.3-1.4,.9-1.8,1.4-.6,2.5-.6h.9v-.4c0-.3,0-.6-.3-.8s-.5-.3-.8-.3-.6,0-.8,.2-.3,.4-.3,.7h-2c0-.4,.1-.8,.4-1.2s.6-.7,1.1-.9,1-.3,1.6-.3c.9,0,1.6,.2,2.2,.7s.8,1.1,.8,1.9v3.2c0,.7,.1,1.2,.3,1.6h-2Zm-1.6-1.3c.3,0,.6,0,.8-.2s.4-.3,.5-.5v-1.3h-.7c-1,0-1.5,.3-1.6,1h0c0,.4,0,.6,.3,.7s.4,.2,.7,.2Z" style="fill:#0a6ab0;"/><path d="M52.1,122.7v.9c.6-.7,1.3-1,2.2-1s1.4,.2,1.8,.7,.6,1.1,.6,2.1v4.8h-2v-4.7c0-.4,0-.7-.3-.9s-.5-.3-.9-.3-1,.2-1.3,.7v5.2h-2v-7.4h1.9Z" style="fill:#0a6ab0;"/><path d="M57.8,126.3c0-1.2,.3-2.1,.8-2.8s1.2-1,2.1-1,1.3,.3,1.8,.8v-3.8h2v10.5h-1.8v-.8c-.6,.6-1.2,.9-2,.9s-1.6-.3-2.1-1-.8-1.6-.8-2.9Zm2,.1c0,.7,.1,1.2,.4,1.6,.2,.4,.6,.6,1.1,.6s1-.3,1.3-.8v-2.9c-.2-.5-.7-.8-1.3-.8-1,0-1.4,.8-1.4,2.3Z" style="fill:#0a6ab0;"/><path d="M69.7,130.1v-10h3.5c1.2,0,2.1,.2,2.7,.7s.9,1.1,.9,2-.1,.9-.4,1.3-.6,.6-1,.8c.5,.1,.9,.4,1.2,.8s.4,.9,.4,1.4c0,1-.3,1.7-.9,2.2s-1.5,.7-2.6,.8h-3.9Zm2.1-5.8h1.5c1,0,1.6-.4,1.6-1.2s-.1-.8-.4-1-.7-.3-1.2-.3h-1.4v2.5Zm0,1.4v2.7h1.8c.5,0,.9-.1,1.1-.3s.4-.5,.4-1c0-.9-.5-1.4-1.4-1.4h-1.9Z" style="fill:#0a6ab0;"/><path d="M82.6,124.6c-.3,0-.5,0-.7,0-.7,0-1.2,.3-1.5,.8v4.8h-2v-7.4h1.9v.9c.5-.7,1-1,1.7-1s.4,0,.6,0v1.9Z" style="fill:#0a6ab0;"/><path d="M83.5,120.8c0-.3,0-.5,.3-.7s.5-.3,.8-.3,.6,0,.8,.3,.3,.4,.3,.7-.1,.5-.3,.7-.5,.3-.8,.3-.6,0-.8-.3-.3-.4-.3-.7Zm2.1,9.3h-2v-7.4h2v7.4Z" style="fill:#0a6ab0;"/><path d="M87,126.3c0-1.2,.3-2.1,.8-2.8s1.2-1,2.1-1,1.3,.3,1.8,.8v-3.8h2v10.5h-1.8v-.8c-.6,.6-1.2,.9-2,.9s-1.6-.3-2.1-1-.8-1.6-.8-2.9Zm2,.1c0,.7,.1,1.2,.4,1.6,.2,.4,.6,.6,1.1,.6s1-.3,1.3-.8v-2.9c-.2-.5-.7-.8-1.3-.8-1,0-1.4,.8-1.4,2.3Z" style="fill:#0a6ab0;"/><path d="M94.9,126.3c0-1.1,.3-2,.8-2.7s1.3-1,2.2-1,1.4,.3,1.9,.8v-.7h1.9v7.2c0,.6-.1,1.2-.4,1.7s-.7,.8-1.2,1.1-1.2,.4-1.9,.4-1.1-.1-1.6-.3-.9-.5-1.2-.8l.9-1.2c.5,.6,1.1,.8,1.8,.8s.9-.1,1.2-.4,.4-.7,.4-1.2v-.4c-.5,.5-1.1,.8-1.8,.8s-1.6-.3-2.2-1-.8-1.6-.8-2.8h0Zm2,0c0,.7,.1,1.2,.4,1.6,.3,.4,.6,.6,1.1,.6s1-.2,1.3-.7v-3.1c-.3-.5-.7-.7-1.3-.7s-.8,.2-1.1,.6c-.3,.4-.4,1-.4,1.7Z" style="fill:#0a6ab0;"/><path d="M106.6,130.2c-1.1,0-2-.3-2.6-1s-1-1.6-1-2.7v-.2c0-.7,.1-1.4,.4-2s.7-1,1.2-1.4,1.1-.5,1.8-.5c1,0,1.8,.3,2.4,1s.9,1.5,.9,2.7v.8h-4.7c0,.5,.3,.9,.6,1.2s.7,.4,1.2,.4c.8,0,1.4-.3,1.8-.8l1,1.1c-.3,.4-.7,.7-1.2,1s-1.1,.4-1.7,.4Zm-.2-6.1c-.4,0-.7,.1-1,.4s-.4,.6-.5,1.1h2.7v-.2c0-.4-.1-.8-.4-1s-.6-.4-1-.4Z" style="fill:#0a6ab0;"/><path d="M114.7,128.1c0-.2-.1-.4-.4-.6s-.6-.3-1.2-.4c-1.8-.4-2.6-1.1-2.6-2.2s.3-1.2,.8-1.6,1.3-.7,2.1-.7,1.7,.2,2.3,.7,.8,1,.8,1.7h-2c0-.3,0-.5-.3-.7s-.5-.3-.9-.3-.6,0-.8,.2-.3,.3-.3,.6,.1,.4,.3,.5,.6,.3,1,.3,.9,.2,1.2,.3c1,.4,1.6,1,1.6,2s-.3,1.2-.9,1.6-1.3,.6-2.2,.6-1.2-.1-1.7-.3-.9-.5-1.1-.9-.4-.8-.4-1.2h1.9c0,.4,.1,.6,.4,.8s.6,.3,1,.3,.7,0,.9-.2,.3-.3,.3-.6Z" style="fill:#0a6ab0;"/></g></g><g id="d"><g><polyline points="5.6 66.9 17.2 60.7 29.5 19 23.8 12.3" style="fill:none; stroke:#0a6ab0; stroke-linecap:round; stroke-linejoin:round; stroke-width:4px;"/><polyline points="110.6 66.9 99.1 60.7 86.8 19 92.5 12.3" style="fill:none; stroke:#0a6ab0; stroke-linecap:round; stroke-linejoin:round; stroke-width:4px;"/><polyline points="95.4 92 88.2 67.7 88.4 67.7 68.9 2" style="fill:none; stroke:#0a6ab0; stroke-linecap:round; stroke-linejoin:round; stroke-width:4px;"/><polyline points="47.5 2 28.1 67.7 28.1 67.7 20.9 92" style="fill:none; stroke:#0a6ab0; stroke-linecap:round; stroke-linejoin:round; stroke-width:4px;"/><line x1="58.1" y1="2" x2="58.1" y2="58.8" style="fill:none; stroke:#0a6ab0; stroke-linecap:round; stroke-linejoin:round; stroke-width:2px;"/><line x1="58.1" y1="71.6" x2="58.1" y2="92" style="fill:none; stroke:#0a6ab0; stroke-linecap:round; stroke-linejoin:round; stroke-width:2px;"/></g></g></g></svg>