<?xml version="1.0" encoding="UTF-8"?><svg xmlns="http://www.w3.org/2000/svg" viewBox="0 0 202.5 148.6"><g id="a"/><g id="b"><g id="c"><g><path d="M6,141.3H2.1v2.7H6.7v1.6H0v-10H6.7v1.7H2.1v2.4h3.9v1.6Z" style="fill:#0a6ab0;"/><path d="M9.6,138.2v.9c.6-.7,1.3-1,2.2-1s1.4,.2,1.8,.7c.4,.5,.6,1.1,.6,2.1v4.8h-2v-4.7c0-.4,0-.7-.3-.9-.2-.2-.5-.3-.9-.3s-1,.2-1.3,.7v5.2h-2v-7.4h1.9Z" style="fill:#0a6ab0;"/><path d="M18.4,143.2l1.4-5h2.1l-2.5,7.4h-1.9l-2.5-7.4h2.1l1.4,5Z" style="fill:#0a6ab0;"/><path d="M22.6,136.3c0-.3,0-.5,.3-.7s.5-.3,.8-.3,.6,0,.8,.3c.2,.2,.3,.4,.3,.7s-.1,.5-.3,.7c-.2,.2-.5,.3-.8,.3s-.6,0-.8-.3c-.2-.2-.3-.4-.3-.7Zm2.1,9.3h-2v-7.4h2v7.4Z" style="fill:#0a6ab0;"/><path d="M30.5,140c-.3,0-.5,0-.7,0-.7,0-1.2,.3-1.5,.8v4.8h-2v-7.4h1.9v.9c.5-.7,1-1,1.7-1s.4,0,.6,0v1.9Z" style="fill:#0a6ab0;"/><path d="M31.2,141.8c0-.7,.1-1.4,.4-2,.3-.6,.7-1,1.2-1.3,.5-.3,1.1-.5,1.8-.5,1,0,1.8,.3,2.4,.9,.6,.6,1,1.4,1.1,2.5v.5c0,1.1-.3,2-.9,2.7-.6,.7-1.5,1-2.5,1s-1.9-.3-2.6-1-1-1.6-1-2.8h0Zm2,0c0,.7,.1,1.2,.4,1.6,.3,.4,.6,.6,1.1,.6s.9-.2,1.1-.6c.3-.4,.4-1,.4-1.8s-.1-1.2-.4-1.6c-.3-.4-.6-.6-1.1-.6s-.9,.2-1.1,.6c-.3,.4-.4,1-.4,1.7Z" style="fill:#0a6ab0;"/><path d="M41.2,138.2v.9c.6-.7,1.3-1,2.2-1s1.4,.2,1.8,.7c.4,.5,.6,1.1,.6,2.1v4.8h-2v-4.7c0-.4,0-.7-.3-.9-.2-.2-.5-.3-.9-.3s-1,.2-1.3,.7v5.2h-2v-7.4h1.9Z" style="fill:#0a6ab0;"/><path d="M49.1,138.2v.8c.6-.6,1.3-1,2.2-1s1.6,.4,2,1.1c.5-.8,1.3-1.1,2.2-1.1s1.4,.2,1.8,.7c.4,.5,.6,1.2,.6,2.1v4.7h-2v-4.7c0-.4,0-.7-.2-.9s-.5-.3-.9-.3c-.6,0-1,.3-1.2,.8v5.1h-2v-4.7c0-.4,0-.7-.3-.9-.2-.2-.5-.3-.9-.3s-1,.2-1.2,.7v5.2h-2v-7.4h1.9Z" style="fill:#0a6ab0;"/><path d="M62.8,145.7c-1.1,0-2-.3-2.6-1-.7-.7-1-1.6-1-2.7v-.2c0-.7,.1-1.4,.4-2s.7-1,1.2-1.4,1.1-.5,1.8-.5c1,0,1.8,.3,2.4,1,.6,.6,.9,1.5,.9,2.7v.8h-4.7c0,.5,.3,.9,.6,1.2,.3,.3,.7,.4,1.2,.4,.8,0,1.4-.3,1.8-.8l1,1.1c-.3,.4-.7,.7-1.2,1s-1.1,.4-1.7,.4Zm-.2-6.1c-.4,0-.7,.1-1,.4-.2,.3-.4,.6-.5,1.1h2.7v-.2c0-.4-.1-.8-.4-1-.2-.2-.6-.4-1-.4Z" style="fill:#0a6ab0;"/><path d="M68.7,138.2v.9c.6-.7,1.3-1,2.2-1s1.4,.2,1.8,.7c.4,.5,.6,1.1,.6,2.1v4.8h-2v-4.7c0-.4,0-.7-.3-.9-.2-.2-.5-.3-.9-.3s-1,.2-1.3,.7v5.2h-2v-7.4h1.9Z" style="fill:#0a6ab0;"/><path d="M77.1,136.4v1.8h1.3v1.4h-1.3v3.7c0,.3,0,.5,.2,.6,.1,.1,.3,.2,.6,.2s.4,0,.6,0v1.5c-.4,.1-.8,.2-1.2,.2-1.4,0-2.1-.7-2.1-2.1v-4h-1.1v-1.4h1.1v-1.8h2Z" style="fill:#0a6ab0;"/><path d="M83.6,146.4h-1.5l3.7-10.8h1.5l-3.7,10.8Z" style="fill:#0a6ab0;"/><path d="M95.9,140c-.3,0-.5,0-.7,0-.7,0-1.2,.3-1.5,.8v4.8h-2v-7.4h1.9v.9c.5-.7,1-1,1.7-1s.4,0,.6,0v1.9Z" style="fill:#0a6ab0;"/><path d="M100.2,145.7c-1.1,0-2-.3-2.6-1-.7-.7-1-1.6-1-2.7v-.2c0-.7,.1-1.4,.4-2s.7-1,1.2-1.4,1.1-.5,1.8-.5c1,0,1.8,.3,2.4,1,.6,.6,.9,1.5,.9,2.7v.8h-4.7c0,.5,.3,.9,.6,1.2,.3,.3,.7,.4,1.2,.4,.8,0,1.4-.3,1.8-.8l1,1.1c-.3,.4-.7,.7-1.2,1s-1.1,.4-1.7,.4Zm-.2-6.1c-.4,0-.7,.1-1,.4-.2,.3-.4,.6-.5,1.1h2.7v-.2c0-.4-.1-.8-.4-1-.2-.2-.6-.4-1-.4Z" style="fill:#0a6ab0;"/><path d="M106.2,138.2v.9c.6-.7,1.3-1,2.2-1s1.4,.2,1.8,.7c.4,.5,.6,1.1,.6,2.1v4.8h-2v-4.7c0-.4,0-.7-.3-.9-.2-.2-.5-.3-.9-.3s-1,.2-1.3,.7v5.2h-2v-7.4h1.9Z" style="fill:#0a6ab0;"/><path d="M115.6,145.7c-1.1,0-2-.3-2.6-1-.7-.7-1-1.6-1-2.7v-.2c0-.7,.1-1.4,.4-2s.7-1,1.2-1.4,1.1-.5,1.8-.5c1,0,1.8,.3,2.4,1,.6,.6,.9,1.5,.9,2.7v.8h-4.7c0,.5,.3,.9,.6,1.2,.3,.3,.7,.4,1.2,.4,.8,0,1.4-.3,1.8-.8l1,1.1c-.3,.4-.7,.7-1.2,1s-1.1,.4-1.7,.4Zm-.2-6.1c-.4,0-.7,.1-1,.4-.2,.3-.4,.6-.5,1.1h2.7v-.2c0-.4-.1-.8-.4-1-.2-.2-.6-.4-1-.4Z" style="fill:#0a6ab0;"/><path d="M126.2,142.9l1-4.7h1.9l-1.9,7.4h-1.7l-1.4-4.7-1.4,4.7h-1.6l-1.9-7.4h1.9l1,4.7,1.4-4.7h1.4l1.3,4.7Z" style="fill:#0a6ab0;"/><path d="M134.4,145.6c0-.2-.2-.4-.2-.7-.5,.5-1.1,.8-1.9,.8s-1.3-.2-1.8-.6c-.5-.4-.7-.9-.7-1.6s.3-1.4,.9-1.8c.6-.4,1.4-.6,2.5-.6h.9v-.4c0-.3,0-.6-.3-.8-.2-.2-.5-.3-.8-.3s-.6,0-.8,.2c-.2,.2-.3,.4-.3,.7h-2c0-.4,.1-.8,.4-1.2,.3-.4,.6-.7,1.1-.9,.5-.2,1-.3,1.6-.3,.9,0,1.6,.2,2.2,.7,.5,.5,.8,1.1,.8,1.9v3.2c0,.7,.1,1.2,.3,1.6h-2Zm-1.6-1.3c.3,0,.6,0,.8-.2s.4-.3,.5-.5v-1.3h-.7c-1,0-1.5,.3-1.6,1h0c0,.4,0,.6,.3,.7,.2,.2,.4,.2,.7,.2Z" style="fill:#0a6ab0;"/><path d="M144.2,142c0,1.2-.3,2.1-.8,2.8s-1.2,1-2.1,1-1.4-.3-1.9-.9v.8h-1.9v-10.5h2v3.8c.5-.5,1.1-.8,1.8-.8s1.6,.3,2.1,1,.8,1.6,.8,2.8h0Zm-2,0c0-.7-.1-1.3-.4-1.6-.2-.3-.6-.5-1.1-.5s-1.1,.3-1.3,.8v2.9c.2,.5,.7,.8,1.3,.8s1.1-.3,1.3-.9c0-.3,.1-.8,.1-1.4Z" style="fill:#0a6ab0;"/><path d="M147.5,145.6h-2v-10.5h2v10.5Z" style="fill:#0a6ab0;"/><path d="M152.6,145.7c-1.1,0-2-.3-2.6-1-.7-.7-1-1.6-1-2.7v-.2c0-.7,.1-1.4,.4-2s.7-1,1.2-1.4,1.1-.5,1.8-.5c1,0,1.8,.3,2.4,1,.6,.6,.9,1.5,.9,2.7v.8h-4.7c0,.5,.3,.9,.6,1.2,.3,.3,.7,.4,1.2,.4,.8,0,1.4-.3,1.8-.8l1,1.1c-.3,.4-.7,.7-1.2,1s-1.1,.4-1.7,.4Zm-.2-6.1c-.4,0-.7,.1-1,.4-.2,.3-.4,.6-.5,1.1h2.7v-.2c0-.4-.1-.8-.4-1-.2-.2-.6-.4-1-.4Z" style="fill:#0a6ab0;"/><path d="M163.6,145.7c-1.1,0-2-.3-2.6-1-.7-.7-1-1.6-1-2.7v-.2c0-.7,.1-1.4,.4-2s.7-1,1.2-1.4,1.1-.5,1.8-.5c1,0,1.8,.3,2.4,1,.6,.6,.9,1.5,.9,2.7v.8h-4.7c0,.5,.3,.9,.6,1.2,.3,.3,.7,.4,1.2,.4,.8,0,1.4-.3,1.8-.8l1,1.1c-.3,.4-.7,.7-1.2,1s-1.1,.4-1.7,.4Zm-.2-6.1c-.4,0-.7,.1-1,.4-.2,.3-.4,.6-.5,1.1h2.7v-.2c0-.4-.1-.8-.4-1-.2-.2-.6-.4-1-.4Z" style="fill:#0a6ab0;"/><path d="M169.6,138.2v.9c.6-.7,1.3-1,2.2-1s1.4,.2,1.8,.7c.4,.5,.6,1.1,.6,2.1v4.8h-2v-4.7c0-.4,0-.7-.3-.9-.2-.2-.5-.3-.9-.3s-1,.2-1.3,.7v5.2h-2v-7.4h1.9Z" style="fill:#0a6ab0;"/><path d="M179,145.7c-1.1,0-2-.3-2.6-1-.7-.7-1-1.6-1-2.7v-.2c0-.7,.1-1.4,.4-2s.7-1,1.2-1.4,1.1-.5,1.8-.5c1,0,1.8,.3,2.4,1,.6,.6,.9,1.5,.9,2.7v.8h-4.7c0,.5,.3,.9,.6,1.2,.3,.3,.7,.4,1.2,.4,.8,0,1.4-.3,1.8-.8l1,1.1c-.3,.4-.7,.7-1.2,1s-1.1,.4-1.7,.4Zm-.2-6.1c-.4,0-.7,.1-1,.4-.2,.3-.4,.6-.5,1.1h2.7v-.2c0-.4-.1-.8-.4-1-.2-.2-.6-.4-1-.4Z" style="fill:#0a6ab0;"/><path d="M187.4,140c-.3,0-.5,0-.7,0-.7,0-1.2,.3-1.5,.8v4.8h-2v-7.4h1.9v.9c.5-.7,1-1,1.7-1s.4,0,.6,0v1.9Z" style="fill:#0a6ab0;"/><path d="M188,141.8c0-1.1,.3-2,.8-2.7,.5-.7,1.3-1,2.2-1s1.4,.3,1.9,.8v-.7h1.9v7.2c0,.6-.1,1.2-.4,1.7s-.7,.8-1.2,1.1c-.5,.2-1.2,.4-1.9,.4s-1.1-.1-1.6-.3c-.5-.2-.9-.5-1.2-.8l.9-1.2c.5,.6,1.1,.8,1.8,.8s.9-.1,1.2-.4c.3-.3,.4-.7,.4-1.2v-.4c-.5,.5-1.1,.8-1.8,.8s-1.6-.3-2.2-1c-.5-.7-.8-1.6-.8-2.8h0Zm2,0c0,.7,.1,1.2,.4,1.6,.3,.4,.6,.6,1.1,.6s1-.2,1.3-.7v-3.1c-.3-.5-.7-.7-1.3-.7s-.8,.2-1.1,.6c-.3,.4-.4,1-.4,1.7Z" style="fill:#0a6ab0;"/><path d="M199.1,142.8l1.4-4.6h2.1l-3,8.5-.2,.4c-.4,1-1.2,1.4-2.2,1.4s-.6,0-.9-.1v-1.5h.3c.4,0,.7,0,.8-.2,.2-.1,.3-.3,.4-.6l.2-.6-2.6-7.4h2.1l1.4,4.6Z" style="fill:#0a6ab0;"/></g></g><g id="d"><g><g><path d="M116.2,42.7s7.1-3.3,16.3-1.7c-2.3,9-8.2,14.2-8.2,14.2-13.3,10.8-19.2,3.6-19.2,3.6,0,0-4.2-8.4,11.1-16.1Z" style="fill:none; stroke:#0a6ab0; stroke-linecap:round; stroke-linejoin:round; stroke-width:4px;"/><path d="M92.3,42.7s-7.1-3.3-16.3-1.7c2.3,9,8.2,14.2,8.2,14.2,13.3,10.8,19.2,3.6,19.2,3.6,0,0,4.2-8.4-11.1-16.1Z" style="fill:none; stroke:#0a6ab0; stroke-linecap:round; stroke-linejoin:round; stroke-width:4px;"/><line x1="104.3" y1="58.8" x2="104.3" y2="78.4" style="fill:none; stroke:#0a6ab0; stroke-linecap:round; stroke-linejoin:round; stroke-width:4px;"/></g><g><line x1="103.6" y1="59.5" x2="120.5" y2="48.6" style="fill:none; stroke:#0a6ab0; stroke-linecap:round; stroke-linejoin:round; stroke-width:2px;"/><line x1="104.4" y1="59.5" x2="87.4" y2="48.6" style="fill:none; stroke:#0a6ab0; stroke-linecap:round; stroke-linejoin:round; stroke-width:2px;"/></g><g><polyline points="48.3 61.9 55.9 53.8 63.4 61.9" style="fill:none; stroke:#0a6ab0; stroke-linecap:round; stroke-linejoin:round; stroke-width:4px;"/><polyline points="138.8 98.8 128 96.3 131.2 85.7" style="fill:none; stroke:#0a6ab0; stroke-linecap:round; stroke-linejoin:round; stroke-width:4px;"/><polyline points="125.5 2 128.8 12.6 118 15.1" style="fill:none; stroke:#0a6ab0; stroke-linecap:round; stroke-linejoin:round; stroke-width:4px;"/><path d="M128.8,11.7C105.3-1.9,75.2,6.2,61.7,29.7c-2.8,4.8-4.7,9.9-5.7,15.1" style="fill:none; stroke:#0a6ab0; stroke-linecap:round; stroke-linejoin:round; stroke-width:4px;"/><path d="M129,96.6c7.1-4.2,13.3-10.2,17.7-17.8,11.9-20.7,7.1-46.5-10.3-61.6" style="fill:none; stroke:#0a6ab0; stroke-linecap:round; stroke-linejoin:round; stroke-width:4px;"/><path d="M55.1,54.5c0,16.9,8.9,33.3,24.6,42.3,12.8,7.4,27.5,8.4,40.5,3.9" style="fill:none; stroke:#0a6ab0; stroke-linecap:round; stroke-linejoin:round; stroke-width:4px;"/></g></g></g></g></svg>