<?xml version="1.0" encoding="UTF-8"?><svg xmlns="http://www.w3.org/2000/svg" viewBox="0 0 109 124.1"><g id="a"/><g id="b"><g id="c"><g><path d="M9.3,120.1h-1.9v3.8h-1.7v-10h3.5c1.1,0,2,.3,2.7,.8,.6,.5,.9,1.3,.9,2.2s-.2,1.2-.5,1.7-.8,.8-1.3,1l2.2,4.1h-1.9l-2-3.7Zm-1.9-1.4h1.8c.6,0,1-.1,1.4-.4s.5-.7,.5-1.2-.2-.9-.5-1.2-.8-.4-1.4-.5h-1.8v3.3Z" style="fill:#0a6ab0;"/><path d="M14.2,114.6c0-.3,0-.5,.2-.6s.4-.3,.7-.3,.5,0,.7,.3,.2,.4,.2,.6,0,.5-.2,.6-.4,.2-.7,.2-.5,0-.7-.2-.2-.4-.2-.6Zm1.8,9.3h-1.7v-7.4h1.7v7.4Z" style="fill:#0a6ab0;"/><path d="M20.4,121.8l1.6-5.3h1.7l-2.6,7.4h-1.4l-2.6-7.4h1.7l1.6,5.3Z" style="fill:#0a6ab0;"/><path d="M28,124.1c-1.1,0-1.9-.3-2.6-1s-1-1.5-1-2.6v-.2c0-.7,.1-1.4,.4-2s.7-1,1.2-1.4,1.1-.5,1.7-.5c1,0,1.8,.3,2.3,1s.8,1.6,.8,2.7v.7h-4.8c0,.6,.3,1.1,.6,1.4s.8,.5,1.4,.5,1.4-.3,1.9-.9l.9,.9c-.3,.4-.7,.8-1.2,1s-1,.4-1.7,.4Zm-.2-6.3c-.5,0-.8,.2-1.1,.5s-.5,.8-.5,1.3h3.2c0-.7-.2-1.1-.4-1.4s-.6-.4-1.1-.4Z" style="fill:#0a6ab0;"/><path d="M36.1,118.1c-.2,0-.4,0-.7,0-.8,0-1.3,.3-1.5,.9v5.1h-1.7v-7.4h1.6v.8c.4-.6,1-1,1.7-1s.4,0,.6,0v1.6Z" style="fill:#0a6ab0;"/><path d="M41.3,121.9c0-.3-.1-.5-.4-.7s-.6-.3-1.2-.4-1-.3-1.4-.5c-.8-.4-1.2-1-1.2-1.7s.3-1.2,.8-1.6,1.2-.6,2.1-.6,1.6,.2,2.1,.7,.8,1,.8,1.7h-1.7c0-.3-.1-.6-.4-.8s-.6-.3-.9-.3-.7,0-.9,.3-.3,.4-.3,.7,.1,.5,.3,.6,.6,.3,1.3,.4,1.2,.3,1.5,.5,.6,.4,.8,.7,.3,.6,.3,1c0,.7-.3,1.2-.8,1.6s-1.3,.6-2.2,.6-1.1-.1-1.6-.3-.8-.5-1.1-.9-.4-.8-.4-1.2h1.6c0,.4,.2,.7,.4,.9s.6,.3,1.1,.3,.8,0,1-.2,.3-.4,.3-.7Z" style="fill:#0a6ab0;"/><path d="M52.3,123.9c0-.1-.1-.4-.2-.7-.5,.6-1.2,.8-1.9,.8s-1.3-.2-1.8-.6-.7-.9-.7-1.6,.3-1.4,.9-1.8,1.4-.6,2.5-.6h1v-.5c0-.4-.1-.7-.3-.9s-.5-.3-1-.3-.7,0-.9,.3-.4,.4-.4,.7h-1.7c0-.4,.1-.8,.4-1.1s.6-.6,1.1-.8,1-.3,1.5-.3c.9,0,1.6,.2,2.1,.7s.8,1,.8,1.8v3.3c0,.7,0,1.2,.3,1.6h-1.7Zm-1.8-1.1c.3,0,.6,0,.9-.2s.5-.4,.7-.6v-1.4h-.9c-.6,0-1.1,.1-1.4,.3s-.5,.5-.5,.9,.1,.6,.3,.8,.5,.3,.9,.3Z" style="fill:#0a6ab0;"/><path d="M57,116.6v.9c.6-.7,1.3-1,2.2-1,1.5,0,2.3,.9,2.4,2.6v4.9h-1.7v-4.8c0-.5-.1-.8-.3-1s-.5-.3-1-.3c-.7,0-1.2,.3-1.5,.9v5.3h-1.7v-7.4h1.6Z" style="fill:#0a6ab0;"/><path d="M62.9,120.2c0-1.1,.3-2.1,.8-2.7s1.2-1,2.1-1,1.4,.3,1.9,.8v-3.8h1.7v10.5h-1.5v-.8c-.6,.6-1.2,.9-2.1,.9s-1.6-.3-2.1-1-.8-1.6-.8-2.8Zm1.7,.1c0,.8,.1,1.3,.4,1.8s.7,.6,1.2,.6,1.2-.3,1.5-.9v-3.2c-.3-.6-.8-.9-1.5-.9s-1,.2-1.2,.6-.4,1.1-.4,1.9Z" style="fill:#0a6ab0;"/><path d="M78.7,121.9c0-.3-.1-.5-.4-.7s-.6-.3-1.2-.4-1-.3-1.4-.5c-.8-.4-1.2-1-1.2-1.7s.3-1.2,.8-1.6,1.2-.6,2.1-.6,1.6,.2,2.1,.7,.8,1,.8,1.7h-1.7c0-.3-.1-.6-.4-.8s-.6-.3-.9-.3-.7,0-.9,.3-.3,.4-.3,.7,.1,.5,.3,.6,.6,.3,1.3,.4,1.2,.3,1.5,.5,.6,.4,.8,.7,.3,.6,.3,1c0,.7-.3,1.2-.8,1.6s-1.3,.6-2.2,.6-1.1-.1-1.6-.3-.8-.5-1.1-.9-.4-.8-.4-1.2h1.6c0,.4,.2,.7,.4,.9s.6,.3,1.1,.3,.8,0,1-.2,.3-.4,.3-.7Z" style="fill:#0a6ab0;"/><path d="M86.2,123.9c0-.1-.1-.4-.2-.7-.5,.6-1.2,.8-1.9,.8s-1.3-.2-1.8-.6-.7-.9-.7-1.6,.3-1.4,.9-1.8,1.4-.6,2.5-.6h1v-.5c0-.4-.1-.7-.3-.9s-.5-.3-1-.3-.7,0-.9,.3-.4,.4-.4,.7h-1.7c0-.4,.1-.8,.4-1.1s.6-.6,1.1-.8,1-.3,1.5-.3c.9,0,1.6,.2,2.1,.7s.8,1,.8,1.8v3.3c0,.7,0,1.2,.3,1.6h-1.7Zm-1.8-1.1c.3,0,.6,0,.9-.2s.5-.4,.7-.6v-1.4h-.9c-.6,0-1.1,.1-1.4,.3s-.5,.5-.5,.9,.1,.6,.3,.8,.5,.3,.9,.3Z" style="fill:#0a6ab0;"/><path d="M95.9,120.3c0,1.1-.3,2.1-.8,2.7s-1.2,1-2.1,1-1.5-.3-2-.9v.8h-1.6v-10.5h1.7v3.8c.5-.6,1.1-.8,1.9-.8s1.6,.3,2.1,1,.8,1.6,.8,2.8h0Zm-1.7,0c0-.8-.1-1.4-.4-1.8s-.7-.6-1.2-.6-1.2,.3-1.5,.9v3c.3,.6,.8,1,1.5,1s.9-.2,1.2-.6,.4-1,.4-1.8v-.2Z" style="fill:#0a6ab0;"/><path d="M97,120.2c0-.7,.1-1.4,.4-2s.7-1,1.2-1.3,1.1-.5,1.8-.5c1,0,1.8,.3,2.4,1s1,1.5,1,2.6v.4c0,.7-.1,1.4-.4,2s-.7,1-1.2,1.3-1.1,.5-1.8,.5c-1,0-1.9-.3-2.5-1s-.9-1.6-.9-2.8h0Zm1.7,0c0,.8,.2,1.4,.5,1.8s.8,.6,1.3,.6,1-.2,1.3-.7,.5-1.1,.5-1.9-.2-1.3-.5-1.8-.8-.7-1.3-.7-1,.2-1.3,.6-.5,1.1-.5,1.9Z" style="fill:#0a6ab0;"/></g></g><g id="d"><g><polyline points="25.5 78.4 14.3 2 2 2 2 78.4" style="fill:none; stroke:#0a6ab0; stroke-linecap:round; stroke-linejoin:round; stroke-width:4px;"/><line x1="2" y1="87.9" x2="25.5" y2="87.9" style="fill:none; stroke:#0a6ab0; stroke-linecap:round; stroke-linejoin:round; stroke-width:4px;"/><g><polyline points="83.5 78.4 94.7 2 107 2 107 78.4" style="fill:none; stroke:#0a6ab0; stroke-linecap:round; stroke-linejoin:round; stroke-width:4px;"/><line x1="107" y1="87.9" x2="83.5" y2="87.9" style="fill:none; stroke:#0a6ab0; stroke-linecap:round; stroke-linejoin:round; stroke-width:4px;"/></g><path d="M17.4,26.1c.9,.3,2,.5,3,.5,4,0,7.4-2.6,8.6-6.3,1.2,3.6,4.6,6.3,8.6,6.3s7.4-2.6,8.6-6.3c1.2,3.6,4.6,6.3,8.6,6.3s7.4-2.6,8.6-6.3c1.2,3.6,4.6,6.3,8.6,6.3s7.4-2.6,8.6-6.3c1.2,3.6,4.6,6.3,8.6,6.3s1.6-.1,2.3-.3" style="fill:none; stroke:#0a6ab0; stroke-linecap:round; stroke-linejoin:round; stroke-width:2px;"/><g><path d="M47.2,45c3.4,0,6.3-2.2,7.3-5.3,1,3.1,3.9,5.3,7.3,5.3s6.3-2.2,7.3-5.3c1,3.1,3.9,5.3,7.3,5.3" style="fill:none; stroke:#0a6ab0; stroke-linecap:round; stroke-linejoin:round; stroke-width:2px;"/><path d="M32.7,45c3.4,0,6.3-2.2,7.3-5.3,1,3.1,3.9,5.3,7.3,5.3" style="fill:none; stroke:#0a6ab0; stroke-linecap:round; stroke-linejoin:round; stroke-width:2px;"/></g></g></g></g></svg>