<?xml version="1.0" encoding="UTF-8"?><svg xmlns="http://www.w3.org/2000/svg" viewBox="0 0 151.8 149.1"><g id="a"/><g id="b"><g id="c"><g><path d="M2.1,142.8v3.5H0v-10H3.9c.7,0,1.4,.1,2,.4s1,.7,1.3,1.2c.3,.5,.5,1.1,.5,1.7,0,1-.3,1.7-1,2.3-.7,.6-1.6,.8-2.8,.8h-1.8Zm0-1.7h1.8c.5,0,1-.1,1.2-.4,.3-.3,.4-.6,.4-1.1s-.1-.9-.4-1.2-.7-.5-1.2-.5h-1.9v3.1Z" style="fill:#0a6ab0;"/><path d="M8.6,142.5c0-.7,.1-1.4,.4-2,.3-.6,.7-1,1.2-1.3,.5-.3,1.1-.5,1.8-.5,1,0,1.8,.3,2.4,.9,.6,.6,1,1.4,1.1,2.5v.5c0,1.1-.3,2-.9,2.7-.6,.7-1.5,1-2.5,1s-1.9-.3-2.6-1-1-1.6-1-2.8h0Zm2,0c0,.7,.1,1.2,.4,1.6,.3,.4,.6,.6,1.1,.6s.9-.2,1.1-.6c.3-.4,.4-1,.4-1.8s-.1-1.2-.4-1.6c-.3-.4-.6-.6-1.1-.6s-.9,.2-1.1,.6c-.3,.4-.4,1-.4,1.7Z" style="fill:#0a6ab0;"/><path d="M21,140.7c-.3,0-.5,0-.7,0-.7,0-1.2,.3-1.5,.8v4.8h-2v-7.4h1.9v.9c.5-.7,1-1,1.7-1s.4,0,.6,0v1.9Z" style="fill:#0a6ab0;"/><path d="M24.3,137.1v1.8h1.3v1.4h-1.3v3.7c0,.3,0,.5,.2,.6,.1,.1,.3,.2,.6,.2s.4,0,.6,0v1.5c-.4,.1-.8,.2-1.2,.2-1.4,0-2.1-.7-2.1-2.1v-4h-1.1v-1.4h1.1v-1.8h2Z" style="fill:#0a6ab0;"/><path d="M30.7,144.2c0-.2-.1-.4-.4-.6s-.6-.3-1.2-.4c-1.8-.4-2.6-1.1-2.6-2.2s.3-1.2,.8-1.6c.5-.4,1.3-.7,2.1-.7s1.7,.2,2.3,.7c.6,.4,.8,1,.8,1.7h-2c0-.3,0-.5-.3-.7-.2-.2-.5-.3-.9-.3s-.6,0-.8,.2c-.2,.2-.3,.3-.3,.6s.1,.4,.3,.5c.2,.1,.6,.3,1,.3s.9,.2,1.2,.3c1,.4,1.6,1,1.6,2s-.3,1.2-.9,1.6c-.6,.4-1.3,.6-2.2,.6s-1.2-.1-1.7-.3c-.5-.2-.9-.5-1.1-.9s-.4-.8-.4-1.2h1.9c0,.4,.1,.6,.4,.8,.2,.2,.6,.3,1,.3s.7,0,.9-.2c.2-.1,.3-.3,.3-.6Z" style="fill:#0a6ab0;"/><path d="M38,147.1h-1.5l3.7-10.8h1.5l-3.7,10.8Z" style="fill:#0a6ab0;"/><path d="M51.8,144.2h-3.6l-.7,2.1h-2.2l3.7-10h1.9l3.7,10h-2.2l-.7-2.1Zm-3-1.7h2.5l-1.3-3.7-1.2,3.7Z" style="fill:#0a6ab0;"/><path d="M55.5,137c0-.3,0-.5,.3-.7s.5-.3,.8-.3,.6,0,.8,.3c.2,.2,.3,.4,.3,.7s-.1,.5-.3,.7c-.2,.2-.5,.3-.8,.3s-.6,0-.8-.3c-.2-.2-.3-.4-.3-.7Zm2.1,9.3h-2v-7.4h2v7.4Z" style="fill:#0a6ab0;"/><path d="M63.3,140.7c-.3,0-.5,0-.7,0-.7,0-1.2,.3-1.5,.8v4.8h-2v-7.4h1.9v.9c.5-.7,1-1,1.7-1s.4,0,.6,0v1.9Z" style="fill:#0a6ab0;"/><path d="M71,142.6c0,1.1-.3,2.1-.8,2.7-.5,.7-1.2,1-2.1,1s-1.4-.3-1.8-.8v3.5h-2v-10.2h1.8v.7c.5-.6,1.2-.9,1.9-.9s1.6,.3,2.1,1,.8,1.6,.8,2.8h0Zm-2,0c0-.7-.1-1.2-.4-1.6-.2-.4-.6-.6-1.1-.6s-1,.2-1.3,.7v3c.2,.5,.7,.7,1.3,.7,.9,0,1.4-.8,1.4-2.3Z" style="fill:#0a6ab0;"/><path d="M71.9,142.5c0-.7,.1-1.4,.4-2,.3-.6,.7-1,1.2-1.3,.5-.3,1.1-.5,1.8-.5,1,0,1.8,.3,2.4,.9,.6,.6,1,1.4,1.1,2.5v.5c0,1.1-.3,2-.9,2.7-.6,.7-1.5,1-2.5,1s-1.9-.3-2.6-1-1-1.6-1-2.8h0Zm2,0c0,.7,.1,1.2,.4,1.6,.3,.4,.6,.6,1.1,.6s.9-.2,1.1-.6c.3-.4,.4-1,.4-1.8s-.1-1.2-.4-1.6c-.3-.4-.6-.6-1.1-.6s-.9,.2-1.1,.6c-.3,.4-.4,1-.4,1.7Z" style="fill:#0a6ab0;"/><path d="M84.2,140.7c-.3,0-.5,0-.7,0-.7,0-1.2,.3-1.5,.8v4.8h-2v-7.4h1.9v.9c.5-.7,1-1,1.7-1s.4,0,.6,0v1.9Z" style="fill:#0a6ab0;"/><path d="M87.6,137.1v1.8h1.3v1.4h-1.3v3.7c0,.3,0,.5,.2,.6,.1,.1,.3,.2,.6,.2s.4,0,.6,0v1.5c-.4,.1-.8,.2-1.2,.2-1.4,0-2.1-.7-2.1-2.1v-4h-1.1v-1.4h1.1v-1.8h2Z" style="fill:#0a6ab0;"/><path d="M93.9,144.2c0-.2-.1-.4-.4-.6s-.6-.3-1.2-.4c-1.8-.4-2.6-1.1-2.6-2.2s.3-1.2,.8-1.6c.5-.4,1.3-.7,2.1-.7s1.7,.2,2.3,.7c.6,.4,.8,1,.8,1.7h-2c0-.3,0-.5-.3-.7-.2-.2-.5-.3-.9-.3s-.6,0-.8,.2c-.2,.2-.3,.3-.3,.6s.1,.4,.3,.5c.2,.1,.6,.3,1,.3s.9,.2,1.2,.3c1,.4,1.6,1,1.6,2s-.3,1.2-.9,1.6c-.6,.4-1.3,.6-2.2,.6s-1.2-.1-1.7-.3c-.5-.2-.9-.5-1.1-.9s-.4-.8-.4-1.2h1.9c0,.4,.1,.6,.4,.8,.2,.2,.6,.3,1,.3s.7,0,.9-.2c.2-.1,.3-.3,.3-.6Z" style="fill:#0a6ab0;"/><path d="M101.2,147.1h-1.5l3.7-10.8h1.5l-3.7,10.8Z" style="fill:#0a6ab0;"/><path d="M117.3,143c0,1.1-.5,1.9-1.2,2.5-.7,.6-1.7,.9-2.8,.9s-2.3-.4-3-1.3-1.1-2-1.1-3.5v-.6c0-1,.2-1.8,.5-2.5,.3-.7,.8-1.3,1.4-1.7,.6-.4,1.4-.6,2.2-.6s2.1,.3,2.8,.9c.7,.6,1.1,1.5,1.2,2.6h-2.1c0-.6-.2-1.1-.5-1.4s-.8-.4-1.4-.4-1.2,.2-1.5,.7c-.3,.5-.5,1.2-.5,2.3v.8c0,1.1,.2,1.9,.5,2.4,.3,.5,.8,.7,1.5,.7s1.1-.1,1.4-.4c.3-.3,.5-.7,.5-1.3h2.1Z" style="fill:#0a6ab0;"/><path d="M118.2,142.5c0-.7,.1-1.4,.4-2,.3-.6,.7-1,1.2-1.3,.5-.3,1.1-.5,1.8-.5,1,0,1.8,.3,2.4,.9,.6,.6,1,1.4,1.1,2.5v.5c0,1.1-.3,2-.9,2.7-.6,.7-1.5,1-2.5,1s-1.9-.3-2.6-1-1-1.6-1-2.8h0Zm2,0c0,.7,.1,1.2,.4,1.6,.3,.4,.6,.6,1.1,.6s.9-.2,1.1-.6c.3-.4,.4-1,.4-1.8s-.1-1.2-.4-1.6c-.3-.4-.6-.6-1.1-.6s-.9,.2-1.1,.6c-.3,.4-.4,1-.4,1.7Z" style="fill:#0a6ab0;"/><path d="M130.7,146.3c0-.2-.2-.4-.2-.7-.5,.5-1.1,.8-1.9,.8s-1.3-.2-1.8-.6c-.5-.4-.7-.9-.7-1.6s.3-1.4,.9-1.8,1.4-.6,2.5-.6h.9v-.4c0-.3,0-.6-.3-.8-.2-.2-.5-.3-.8-.3s-.6,0-.8,.2c-.2,.2-.3,.4-.3,.7h-2c0-.4,.1-.8,.4-1.2,.3-.4,.6-.7,1.1-.9,.5-.2,1-.3,1.6-.3,.9,0,1.6,.2,2.2,.7,.5,.5,.8,1.1,.8,1.9v3.2c0,.7,.1,1.2,.3,1.6h-2Zm-1.6-1.3c.3,0,.6,0,.8-.2s.4-.3,.5-.5v-1.3h-.7c-1,0-1.5,.3-1.6,1h0c0,.4,0,.6,.3,.7,.2,.2,.4,.2,.7,.2Z" style="fill:#0a6ab0;"/><path d="M137.9,144.2c0-.2-.1-.4-.4-.6s-.6-.3-1.2-.4c-1.8-.4-2.6-1.1-2.6-2.2s.3-1.2,.8-1.6c.5-.4,1.3-.7,2.1-.7s1.7,.2,2.3,.7c.6,.4,.8,1,.8,1.7h-2c0-.3,0-.5-.3-.7-.2-.2-.5-.3-.9-.3s-.6,0-.8,.2c-.2,.2-.3,.3-.3,.6s.1,.4,.3,.5c.2,.1,.6,.3,1,.3s.9,.2,1.2,.3c1,.4,1.6,1,1.6,2s-.3,1.2-.9,1.6c-.6,.4-1.3,.6-2.2,.6s-1.2-.1-1.7-.3c-.5-.2-.9-.5-1.1-.9s-.4-.8-.4-1.2h1.9c0,.4,.1,.6,.4,.8,.2,.2,.6,.3,1,.3s.7,0,.9-.2c.2-.1,.3-.3,.3-.6Z" style="fill:#0a6ab0;"/><path d="M143.5,137.1v1.8h1.3v1.4h-1.3v3.7c0,.3,0,.5,.2,.6,.1,.1,.3,.2,.6,.2s.4,0,.6,0v1.5c-.4,.1-.8,.2-1.2,.2-1.4,0-2.1-.7-2.1-2.1v-4h-1.1v-1.4h1.1v-1.8h2Z" style="fill:#0a6ab0;"/><path d="M149.8,144.2c0-.2-.1-.4-.4-.6s-.6-.3-1.2-.4c-1.8-.4-2.6-1.1-2.6-2.2s.3-1.2,.8-1.6c.5-.4,1.3-.7,2.1-.7s1.7,.2,2.3,.7c.6,.4,.8,1,.8,1.7h-2c0-.3,0-.5-.3-.7-.2-.2-.5-.3-.9-.3s-.6,0-.8,.2c-.2,.2-.3,.3-.3,.6s.1,.4,.3,.5c.2,.1,.6,.3,1,.3s.9,.2,1.2,.3c1,.4,1.6,1,1.6,2s-.3,1.2-.9,1.6c-.6,.4-1.3,.6-2.2,.6s-1.2-.1-1.7-.3c-.5-.2-.9-.5-1.1-.9s-.4-.8-.4-1.2h1.9c0,.4,.1,.6,.4,.8,.2,.2,.6,.3,1,.3s.7,0,.9-.2c.2-.1,.3-.3,.3-.6Z" style="fill:#0a6ab0;"/></g></g><g id="d"><g><g><path d="M31.9,107.2c4.1,0,7.6-2.7,8.7-6.4,1.2,3.7,4.6,6.4,8.7,6.4s7.6-2.7,8.7-6.4c1.2,3.7,4.6,6.4,8.7,6.4s7.6-2.7,8.7-6.4c1.2,3.7,4.6,6.4,8.7,6.4s7.7-2.8,8.8-6.7" style="fill:none; stroke:#0a6ab0; stroke-linecap:round; stroke-linejoin:round; stroke-width:2px;"/><path d="M93.2,100.8c1.2,3.7,4.7,6.3,8.7,6.3s7.6-2.7,8.7-6.4c1.2,3.7,4.6,6.4,8.7,6.4" style="fill:none; stroke:#0a6ab0; stroke-linecap:round; stroke-linejoin:round; stroke-width:2px;"/></g><g><path d="M23.2,91.1c4.1,0,7.6-2.7,8.7-6.4,1.2,3.7,4.6,6.4,8.7,6.4s7.6-2.7,8.7-6.4c1.2,3.7,4.6,6.4,8.7,6.4s7.6-2.7,8.7-6.4c1.2,3.7,4.6,6.4,8.7,6.4s7.7-2.8,8.8-6.7" style="fill:none; stroke:#0a6ab0; stroke-linecap:round; stroke-linejoin:round; stroke-width:2px;"/><path d="M84.5,84.8c1.2,3.7,4.7,6.3,8.7,6.3s7.6-2.7,8.7-6.4c1.2,3.7,4.6,6.4,8.7,6.4s7.6-2.7,8.7-6.4c1.2,3.7,4.6,6.4,8.7,6.4" style="fill:none; stroke:#0a6ab0; stroke-linecap:round; stroke-linejoin:round; stroke-width:2px;"/></g><g><polyline points="44.9 40.9 34.7 35.3 28.6 45.3" style="fill:none; stroke:#0a6ab0; stroke-linecap:round; stroke-linejoin:round; stroke-width:4px;"/><circle cx="75.7" cy="13.7" r="11.7" style="fill:none; stroke:#0a6ab0; stroke-linecap:round; stroke-linejoin:round; stroke-width:4px;"/><path d="M114.1,45.1c-6.2,15.1-21,25.8-38.4,25.8s-32.1-10.6-38.3-25.6" style="fill:none; stroke:#0a6ab0; stroke-linecap:round; stroke-linejoin:round; stroke-width:4px;"/><polyline points="106.5 40.9 116.7 35.3 122.8 45.3" style="fill:none; stroke:#0a6ab0; stroke-linecap:round; stroke-linejoin:round; stroke-width:4px;"/><line x1="75.7" y1="25.5" x2="75.7" y2="70.9" style="fill:none; stroke:#0a6ab0; stroke-linecap:round; stroke-linejoin:round; stroke-width:4px;"/><line x1="59.6" y1="40.3" x2="91.8" y2="40.3" style="fill:none; stroke:#0a6ab0; stroke-linecap:round; stroke-linejoin:round; stroke-width:4px;"/></g></g></g></g></svg>