<?xml version="1.0" encoding="UTF-8"?><svg xmlns="http://www.w3.org/2000/svg" viewBox="0 0 109 137.6"><g id="a"/><g id="b"><g id="c"><g><path d="M16,126.4h-3v8.3h-2.1v-8.3h-3v-1.7h8.1v1.7Z" style="fill:#0a6ab0;"/><path d="M16.8,130.9c0-.7,.1-1.4,.4-2,.3-.6,.7-1,1.2-1.3,.5-.3,1.1-.5,1.8-.5,1,0,1.8,.3,2.4,.9,.6,.6,1,1.4,1.1,2.5v.5c0,1.1-.3,2-.9,2.7-.6,.7-1.5,1-2.5,1s-1.9-.3-2.6-1-1-1.6-1-2.8h0Zm2,0c0,.7,.1,1.2,.4,1.6,.3,.4,.6,.6,1.1,.6s.9-.2,1.1-.6c.3-.4,.4-1,.4-1.8s-.1-1.2-.4-1.6c-.3-.4-.6-.6-1.1-.6s-.9,.2-1.1,.6c-.3,.4-.4,1-.4,1.7Z" style="fill:#0a6ab0;"/><path d="M31.4,132l1-4.7h1.9l-1.9,7.4h-1.7l-1.4-4.7-1.4,4.7h-1.6l-1.9-7.4h1.9l1,4.7,1.4-4.7h1.4l1.3,4.7Z" style="fill:#0a6ab0;"/><path d="M37.1,127.3v.9c.6-.7,1.3-1,2.2-1s1.4,.2,1.8,.7,.6,1.1,.6,2.1v4.8h-2v-4.7c0-.4,0-.7-.3-.9-.2-.2-.5-.3-.9-.3s-1,.2-1.3,.7v5.2h-2v-7.4h1.9Z" style="fill:#0a6ab0;"/><path d="M48.8,131.2v3.5h-2.1v-10h3.9c.7,0,1.4,.1,2,.4s1,.7,1.3,1.2c.3,.5,.5,1.1,.5,1.7,0,1-.3,1.7-1,2.3-.7,.6-1.6,.8-2.8,.8h-1.8Zm0-1.7h1.8c.5,0,1-.1,1.2-.4,.3-.3,.4-.6,.4-1.1s-.1-.9-.4-1.2-.7-.5-1.2-.5h-1.9v3.1Z" style="fill:#0a6ab0;"/><path d="M57.7,134.7h-2v-10.5h2v10.5Z" style="fill:#0a6ab0;"/><path d="M63.6,134.7c0-.2-.2-.4-.2-.7-.5,.5-1.1,.8-1.9,.8s-1.3-.2-1.8-.6c-.5-.4-.7-.9-.7-1.6s.3-1.4,.9-1.8,1.4-.6,2.5-.6h.9v-.4c0-.3,0-.6-.3-.8-.2-.2-.5-.3-.8-.3s-.6,0-.8,.2c-.2,.2-.3,.4-.3,.7h-2c0-.4,.1-.8,.4-1.2,.3-.4,.6-.7,1.1-.9,.5-.2,1-.3,1.6-.3,.9,0,1.6,.2,2.2,.7,.5,.5,.8,1.1,.8,1.9v3.2c0,.7,.1,1.2,.3,1.6h-2Zm-1.6-1.3c.3,0,.6,0,.8-.2s.4-.3,.5-.5v-1.3h-.7c-1,0-1.5,.3-1.6,1h0c0,.4,0,.6,.3,.7,.2,.2,.4,.2,.7,.2Z" style="fill:#0a6ab0;"/><path d="M68.7,127.3v.9c.6-.7,1.3-1,2.2-1s1.4,.2,1.8,.7,.6,1.1,.6,2.1v4.8h-2v-4.7c0-.4,0-.7-.3-.9-.2-.2-.5-.3-.9-.3s-1,.2-1.3,.7v5.2h-2v-7.4h1.9Z" style="fill:#0a6ab0;"/><path d="M76.5,127.3v.9c.6-.7,1.3-1,2.2-1s1.4,.2,1.8,.7,.6,1.1,.6,2.1v4.8h-2v-4.7c0-.4,0-.7-.3-.9-.2-.2-.5-.3-.9-.3s-1,.2-1.3,.7v5.2h-2v-7.4h1.9Z" style="fill:#0a6ab0;"/><path d="M82.5,125.4c0-.3,0-.5,.3-.7s.5-.3,.8-.3,.6,0,.8,.3c.2,.2,.3,.4,.3,.7s-.1,.5-.3,.7c-.2,.2-.5,.3-.8,.3s-.6,0-.8-.3c-.2-.2-.3-.4-.3-.7Zm2.1,9.3h-2v-7.4h2v7.4Z" style="fill:#0a6ab0;"/><path d="M88.1,127.3v.9c.6-.7,1.3-1,2.2-1s1.4,.2,1.8,.7,.6,1.1,.6,2.1v4.8h-2v-4.7c0-.4,0-.7-.3-.9-.2-.2-.5-.3-.9-.3s-1,.2-1.3,.7v5.2h-2v-7.4h1.9Z" style="fill:#0a6ab0;"/><path d="M93.8,130.9c0-1.1,.3-2,.8-2.7s1.3-1,2.2-1,1.4,.3,1.9,.8v-.7h1.9v7.2c0,.6-.1,1.2-.4,1.7s-.7,.8-1.2,1.1-1.2,.4-1.9,.4-1.1-.1-1.6-.3c-.5-.2-.9-.5-1.2-.8l.9-1.2c.5,.6,1.1,.8,1.8,.8s.9-.1,1.2-.4c.3-.3,.4-.7,.4-1.2v-.4c-.5,.5-1.1,.8-1.8,.8s-1.6-.3-2.2-1c-.5-.7-.8-1.6-.8-2.8h0Zm2,0c0,.7,.1,1.2,.4,1.6,.3,.4,.6,.6,1.1,.6s1-.2,1.3-.7v-3.1c-.3-.5-.7-.7-1.3-.7s-.8,.2-1.1,.6c-.3,.4-.4,1-.4,1.7Z" style="fill:#0a6ab0;"/></g></g><g id="d"><g><line x1="2" y1="97" x2="107" y2="97" style="fill:none; stroke:#0a6ab0; stroke-linecap:round; stroke-linejoin:round; stroke-width:4px;"/><polyline points="34.3 28.3 34.3 2 70.1 29.3 70.1 97 34.3 97" style="fill:none; stroke:#0a6ab0; stroke-linecap:round; stroke-linejoin:round; stroke-width:4px;"/><rect x="9.9" y="37.4" width="31.8" height="59.6" style="fill:none; stroke:#0a6ab0; stroke-linecap:round; stroke-linejoin:round; stroke-width:4px;"/><polygon points="99.9 97 70.1 97 70.1 50.4 85 39.2 99.9 50.4 99.9 97" style="fill:none; stroke:#0a6ab0; stroke-linecap:round; stroke-linejoin:round; stroke-width:4px;"/><line x1="17.2" y1="49.5" x2="34.5" y2="49.5" style="fill:none; stroke:#0a6ab0; stroke-linecap:round; stroke-linejoin:round; stroke-width:2px;"/><line x1="17.2" y1="59" x2="34.5" y2="59" style="fill:none; stroke:#0a6ab0; stroke-linecap:round; stroke-linejoin:round; stroke-width:2px;"/><line x1="17.2" y1="68.6" x2="34.5" y2="68.6" style="fill:none; stroke:#0a6ab0; stroke-linecap:round; stroke-linejoin:round; stroke-width:2px;"/><rect x="77.1" y="56.1" width="5.7" height="7.4" style="fill:none; stroke:#0a6ab0; stroke-linecap:round; stroke-linejoin:round; stroke-width:2px;"/><rect x="87.3" y="56.1" width="5.7" height="7.4" style="fill:none; stroke:#0a6ab0; stroke-linecap:round; stroke-linejoin:round; stroke-width:2px;"/><rect x="77.1" y="68.6" width="5.7" height="7.4" style="fill:none; stroke:#0a6ab0; stroke-linecap:round; stroke-linejoin:round; stroke-width:2px;"/><rect x="87.3" y="68.6" width="5.7" height="7.4" style="fill:none; stroke:#0a6ab0; stroke-linecap:round; stroke-linejoin:round; stroke-width:2px;"/><g><rect x="42.2" y="25.4" width="5.4" height="4.3" transform="translate(17.3 72.4) rotate(-90)" style="fill:#0a6ab0;"/><rect x="49.5" y="35" width="5.4" height="4.3" transform="translate(15.1 89.3) rotate(-90)" style="fill:#0a6ab0;"/><rect x="49.5" y="25.4" width="5.4" height="4.3" transform="translate(24.6 79.8) rotate(-90)" style="fill:#0a6ab0;"/><rect x="56.9" y="35" width="5.4" height="4.3" transform="translate(22.4 96.7) rotate(-90)" style="fill:#0a6ab0;"/><rect x="49.5" y="46.1" width="5.4" height="4.3" transform="translate(3.9 100.5) rotate(-90)" style="fill:#0a6ab0;"/><rect x="56.9" y="46.1" width="5.4" height="4.3" transform="translate(11.3 107.8) rotate(-90)" style="fill:#0a6ab0;"/><rect x="49.5" y="57.2" width="5.4" height="4.3" transform="translate(-7.2 111.6) rotate(-90)" style="fill:#0a6ab0;"/><rect x="56.9" y="57.2" width="5.4" height="4.3" transform="translate(.1 118.9) rotate(-90)" style="fill:#0a6ab0;"/><rect x="49.5" y="68.4" width="5.4" height="4.3" transform="translate(-18.3 122.7) rotate(-90)" style="fill:#0a6ab0;"/><rect x="56.9" y="68.4" width="5.4" height="4.3" transform="translate(-11 130.1) rotate(-90)" style="fill:#0a6ab0;"/><rect x="49.5" y="79.5" width="5.4" height="4.3" transform="translate(-29.5 133.9) rotate(-90)" style="fill:#0a6ab0;"/><rect x="56.9" y="79.5" width="5.4" height="4.3" transform="translate(-22.1 141.2) rotate(-90)" style="fill:#0a6ab0;"/></g></g></g></g></svg>