<?xml version="1.0" encoding="UTF-8"?><svg xmlns="http://www.w3.org/2000/svg" viewBox="0 0 104 144.3"><g id="a"/><g id="b"><g id="c"><g><path d="M14.7,134.2l2.6,7.2,2.5-7.2h2.7v10h-2.1v-2.7l.2-4.7-2.7,7.4h-1.4l-2.7-7.4,.2,4.7v2.7h-2.1v-10h2.7Z" style="fill:#0a6ab0;"/><path d="M28.5,144.2c0-.2-.2-.4-.2-.7-.5,.5-1.1,.8-1.9,.8s-1.3-.2-1.8-.6c-.5-.4-.7-.9-.7-1.6s.3-1.4,.9-1.8c.6-.4,1.4-.6,2.5-.6h.9v-.4c0-.3,0-.6-.3-.8s-.5-.3-.8-.3-.6,0-.8,.2c-.2,.2-.3,.4-.3,.7h-2c0-.4,.1-.8,.4-1.2,.3-.4,.6-.7,1.1-.9,.5-.2,1-.3,1.6-.3,.9,0,1.6,.2,2.2,.7s.8,1.1,.8,1.9v3.2c0,.7,.1,1.2,.3,1.6h-2Zm-1.6-1.3c.3,0,.6,0,.8-.2s.4-.3,.5-.5v-1.3h-.7c-1,0-1.5,.3-1.6,1h0c0,.4,0,.6,.3,.7,.2,.2,.4,.2,.7,.2Z" style="fill:#0a6ab0;"/><path d="M31.7,134.9c0-.3,0-.5,.3-.7s.5-.3,.8-.3,.6,0,.8,.3,.3,.4,.3,.7-.1,.5-.3,.7-.5,.3-.8,.3-.6,0-.8-.3-.3-.4-.3-.7Zm2.1,9.3h-2v-7.4h2v7.4Z" style="fill:#0a6ab0;"/><path d="M37.2,136.8v.9c.6-.7,1.3-1,2.2-1s1.4,.2,1.8,.7c.4,.5,.6,1.1,.6,2.1v4.8h-2v-4.7c0-.4,0-.7-.3-.9-.2-.2-.5-.3-.9-.3s-1,.2-1.3,.7v5.2h-2v-7.4h1.9Z" style="fill:#0a6ab0;"/><path d="M45.6,135v1.8h1.3v1.4h-1.3v3.7c0,.3,0,.5,.2,.6,.1,.1,.3,.2,.6,.2s.4,0,.6,0v1.5c-.4,.1-.8,.2-1.2,.2-1.4,0-2.1-.7-2.1-2.1v-4h-1.1v-1.4h1.1v-1.8h2Z" style="fill:#0a6ab0;"/><path d="M51.4,144.3c-1.1,0-2-.3-2.6-1-.7-.7-1-1.6-1-2.7v-.2c0-.7,.1-1.4,.4-2,.3-.6,.7-1,1.2-1.4,.5-.3,1.1-.5,1.8-.5,1,0,1.8,.3,2.4,1,.6,.6,.9,1.5,.9,2.7v.8h-4.7c0,.5,.3,.9,.6,1.2,.3,.3,.7,.4,1.2,.4,.8,0,1.4-.3,1.8-.8l1,1.1c-.3,.4-.7,.7-1.2,1-.5,.2-1.1,.4-1.7,.4Zm-.2-6.1c-.4,0-.7,.1-1,.4s-.4,.6-.5,1.1h2.7v-.2c0-.4-.1-.8-.4-1s-.6-.4-1-.4Z" style="fill:#0a6ab0;"/><path d="M57.4,136.8v.9c.6-.7,1.3-1,2.2-1s1.4,.2,1.8,.7c.4,.5,.6,1.1,.6,2.1v4.8h-2v-4.7c0-.4,0-.7-.3-.9-.2-.2-.5-.3-.9-.3s-1,.2-1.3,.7v5.2h-2v-7.4h1.9Z" style="fill:#0a6ab0;"/><path d="M67.7,144.2c0-.2-.2-.4-.2-.7-.5,.5-1.1,.8-1.9,.8s-1.3-.2-1.8-.6c-.5-.4-.7-.9-.7-1.6s.3-1.4,.9-1.8c.6-.4,1.4-.6,2.5-.6h.9v-.4c0-.3,0-.6-.3-.8s-.5-.3-.8-.3-.6,0-.8,.2c-.2,.2-.3,.4-.3,.7h-2c0-.4,.1-.8,.4-1.2,.3-.4,.6-.7,1.1-.9,.5-.2,1-.3,1.6-.3,.9,0,1.6,.2,2.2,.7s.8,1.1,.8,1.9v3.2c0,.7,.1,1.2,.3,1.6h-2Zm-1.6-1.3c.3,0,.6,0,.8-.2s.4-.3,.5-.5v-1.3h-.7c-1,0-1.5,.3-1.6,1h0c0,.4,0,.6,.3,.7,.2,.2,.4,.2,.7,.2Z" style="fill:#0a6ab0;"/><path d="M72.7,136.8v.9c.6-.7,1.3-1,2.2-1s1.4,.2,1.8,.7c.4,.5,.6,1.1,.6,2.1v4.8h-2v-4.7c0-.4,0-.7-.3-.9-.2-.2-.5-.3-.9-.3s-1,.2-1.3,.7v5.2h-2v-7.4h1.9Z" style="fill:#0a6ab0;"/><path d="M81.8,142.7c.4,0,.7,0,.9-.3,.2-.2,.3-.5,.4-.8h1.9c0,.5-.1,1-.4,1.4s-.6,.7-1.1,1c-.5,.2-1,.3-1.5,.3-1.1,0-1.9-.3-2.5-1-.6-.7-.9-1.6-.9-2.8h0c0-1.3,.3-2.2,.9-2.9,.6-.7,1.4-1,2.5-1s1.7,.3,2.2,.8,.8,1.2,.9,2.1h-1.9c0-.4-.1-.7-.4-.9-.2-.2-.5-.4-.9-.4s-.8,.2-1,.5c-.2,.3-.4,.9-.4,1.6v.2c0,.8,.1,1.3,.3,1.6,.2,.3,.6,.5,1.1,.5Z" style="fill:#0a6ab0;"/><path d="M89.4,144.3c-1.1,0-2-.3-2.6-1-.7-.7-1-1.6-1-2.7v-.2c0-.7,.1-1.4,.4-2,.3-.6,.7-1,1.2-1.4,.5-.3,1.1-.5,1.8-.5,1,0,1.8,.3,2.4,1,.6,.6,.9,1.5,.9,2.7v.8h-4.7c0,.5,.3,.9,.6,1.2,.3,.3,.7,.4,1.2,.4,.8,0,1.4-.3,1.8-.8l1,1.1c-.3,.4-.7,.7-1.2,1-.5,.2-1.1,.4-1.7,.4Zm-.2-6.1c-.4,0-.7,.1-1,.4s-.4,.6-.5,1.1h2.7v-.2c0-.4-.1-.8-.4-1s-.6-.4-1-.4Z" style="fill:#0a6ab0;"/></g></g><g id="d"><g><path d="M52.6,39.8l-6.8-6.8c3.2-8.1,1.6-17.8-5-24.4C33.8,1.6,23.5,.2,15.1,4.2l13.2,13.2v6.8l-3.9,3.9h-6.4L4.5,14.6C.4,23.1,1.8,33.6,8.8,40.6s16.4,8.3,24.6,4.9" style="fill:none; stroke:#0a6ab0; stroke-linecap:round; stroke-linejoin:round; stroke-width:4px;"/><path d="M57.3,69.6l30,30.1c2.9,2.9,7.6,2.9,10.5,0l2-2c2.9-2.9,2.9-7.6,0-10.5l-35.5-35.5" style="fill:none; stroke:#0a6ab0; stroke-linecap:round; stroke-linejoin:round; stroke-width:4px;"/><g><polyline points="82.4 21.4 80.2 19.2 79.7 13.6 79.7 13.6 95.9 2.1 101.9 8.1 90.4 23.9 90.2 24.1 84.9 24.1 82.4 21.4 53 50.9" style="fill:none; stroke:#0a6ab0; stroke-linecap:round; stroke-linejoin:round; stroke-width:4px;"/><path d="M55.5,53.4l-4.7-4.7h-8l-4.4,4.4h0L4.2,87.3c-2.9,2.9-2.9,7.6,0,10.5l2,2c2.9,2.9,7.6,2.9,10.5,0l26.5-26.6,7.6-7.6,4.7-4.7v-7.6Z" style="fill:none; stroke:#0a6ab0; stroke-linecap:round; stroke-linejoin:round; stroke-width:4px;"/><line x1="10.9" y1="93.1" x2="46.5" y2="57.4" style="fill:none; stroke:#0a6ab0; stroke-linecap:round; stroke-linejoin:round; stroke-width:2px;"/></g></g></g></g></svg>