<?xml version="1.0" encoding="UTF-8"?><svg xmlns="http://www.w3.org/2000/svg" viewBox="0 0 121.3 147.7"><g id="a"/><g id="b"><g id="c"><g><path d="M2.1,144.7H0v-10H2.1v10Z" style="fill:#0a6ab0;"/><path d="M5.6,137.3v.9c.6-.7,1.3-1,2.2-1s1.4,.2,1.8,.7c.4,.5,.6,1.1,.6,2.1v4.8h-2v-4.7c0-.4,0-.7-.3-.9-.2-.2-.5-.3-.9-.3s-1,.2-1.3,.7v5.2h-2v-7.4h1.9Z" style="fill:#0a6ab0;"/><path d="M12.2,144.7v-5.9h-1.1v-1.4h1.1v-.6c0-.8,.2-1.5,.7-1.9s1.1-.7,2-.7,.6,0,1,.1v1.5c-.2,0-.4,0-.6,0-.7,0-1.1,.3-1.1,1v.6h1.5v1.4h-1.5v5.9h-2Z" style="fill:#0a6ab0;"/><path d="M16.4,140.9c0-.7,.1-1.4,.4-2s.7-1,1.2-1.3,1.1-.5,1.8-.5c1,0,1.8,.3,2.4,.9,.6,.6,1,1.4,1.1,2.5v.5c0,1.1-.3,2-.9,2.7-.6,.7-1.5,1-2.5,1s-1.9-.3-2.6-1-1-1.6-1-2.8h0Zm2,0c0,.7,.1,1.2,.4,1.6s.6,.6,1.1,.6,.9-.2,1.1-.6,.4-1,.4-1.8-.1-1.2-.4-1.6-.6-.6-1.1-.6-.9,.2-1.1,.6c-.3,.4-.4,1-.4,1.7Z" style="fill:#0a6ab0;"/><path d="M28.8,139.2c-.3,0-.5,0-.7,0-.7,0-1.2,.3-1.5,.8v4.8h-2v-7.4h1.9v.9c.5-.7,1-1,1.7-1s.4,0,.6,0v1.9Z" style="fill:#0a6ab0;"/><path d="M31.6,137.3v.8c.6-.6,1.3-1,2.2-1s1.6,.4,2,1.1c.5-.8,1.3-1.1,2.2-1.1s1.4,.2,1.8,.7c.4,.5,.6,1.2,.6,2.1v4.7h-2v-4.7c0-.4,0-.7-.2-.9-.2-.2-.5-.3-.9-.3-.6,0-1,.3-1.2,.8v5.1h-2v-4.7c0-.4,0-.7-.3-.9s-.5-.3-.9-.3-1,.2-1.2,.7v5.2h-2v-7.4h1.9Z" style="fill:#0a6ab0;"/><path d="M46.1,144.7c0-.2-.2-.4-.2-.7-.5,.5-1.1,.8-1.9,.8s-1.3-.2-1.8-.6c-.5-.4-.7-.9-.7-1.6s.3-1.4,.9-1.8c.6-.4,1.4-.6,2.5-.6h.9v-.4c0-.3,0-.6-.3-.8s-.5-.3-.8-.3-.6,0-.8,.2c-.2,.2-.3,.4-.3,.7h-2c0-.4,.1-.8,.4-1.2,.3-.4,.6-.7,1.1-.9,.5-.2,1-.3,1.6-.3,.9,0,1.6,.2,2.2,.7s.8,1.1,.8,1.9v3.2c0,.7,.1,1.2,.3,1.6h-2Zm-1.6-1.3c.3,0,.6,0,.8-.2s.4-.3,.5-.5v-1.3h-.7c-1,0-1.5,.3-1.6,1h0c0,.4,0,.6,.3,.7,.2,.2,.4,.2,.7,.2Z" style="fill:#0a6ab0;"/><path d="M51.7,135.5v1.8h1.3v1.4h-1.3v3.7c0,.3,0,.5,.2,.6,.1,.1,.3,.2,.6,.2s.4,0,.6,0v1.5c-.4,.1-.8,.2-1.2,.2-1.4,0-2.1-.7-2.1-2.1v-4h-1.1v-1.4h1.1v-1.8h2Z" style="fill:#0a6ab0;"/><path d="M54,135.4c0-.3,0-.5,.3-.7s.5-.3,.8-.3,.6,0,.8,.3,.3,.4,.3,.7-.1,.5-.3,.7-.5,.3-.8,.3-.6,0-.8-.3-.3-.4-.3-.7Zm2.1,9.3h-2v-7.4h2v7.4Z" style="fill:#0a6ab0;"/><path d="M57.5,140.9c0-.7,.1-1.4,.4-2s.7-1,1.2-1.3,1.1-.5,1.8-.5c1,0,1.8,.3,2.4,.9,.6,.6,1,1.4,1.1,2.5v.5c0,1.1-.3,2-.9,2.7-.6,.7-1.5,1-2.5,1s-1.9-.3-2.6-1-1-1.6-1-2.8h0Zm2,0c0,.7,.1,1.2,.4,1.6s.6,.6,1.1,.6,.9-.2,1.1-.6,.4-1,.4-1.8-.1-1.2-.4-1.6-.6-.6-1.1-.6-.9,.2-1.1,.6c-.3,.4-.4,1-.4,1.7Z" style="fill:#0a6ab0;"/><path d="M67.5,137.3v.9c.6-.7,1.3-1,2.2-1s1.4,.2,1.8,.7c.4,.5,.6,1.1,.6,2.1v4.8h-2v-4.7c0-.4,0-.7-.3-.9-.2-.2-.5-.3-.9-.3s-1,.2-1.3,.7v5.2h-2v-7.4h1.9Z" style="fill:#0a6ab0;"/><path d="M81,142.7c0-.2-.1-.4-.4-.6-.2-.1-.6-.3-1.2-.4-1.8-.4-2.6-1.1-2.6-2.2s.3-1.2,.8-1.6c.5-.4,1.3-.7,2.1-.7s1.7,.2,2.3,.7c.6,.4,.8,1,.8,1.7h-2c0-.3,0-.5-.3-.7s-.5-.3-.9-.3-.6,0-.8,.2-.3,.3-.3,.6,.1,.4,.3,.5c.2,.1,.6,.2,1,.3,.5,0,.9,.2,1.2,.3,1,.4,1.6,1,1.6,2s-.3,1.2-.9,1.6-1.3,.6-2.2,.6-1.2-.1-1.7-.3c-.5-.2-.9-.5-1.1-.9-.3-.4-.4-.8-.4-1.2h1.9c0,.4,.1,.6,.4,.8,.2,.2,.6,.3,1,.3s.7,0,.9-.2,.3-.3,.3-.6Z" style="fill:#0a6ab0;"/><path d="M87,141.9l1.4-4.6h2.1l-3,8.5-.2,.4c-.4,1-1.2,1.4-2.2,1.4s-.6,0-.9-.1v-1.5h.3c.4,0,.7,0,.8-.2,.2-.1,.3-.3,.4-.6l.2-.6-2.6-7.4h2.1l1.4,4.6Z" style="fill:#0a6ab0;"/><path d="M95.2,142.7c0-.2-.1-.4-.4-.6-.2-.1-.6-.3-1.2-.4-1.8-.4-2.6-1.1-2.6-2.2s.3-1.2,.8-1.6c.5-.4,1.3-.7,2.1-.7s1.7,.2,2.3,.7c.6,.4,.8,1,.8,1.7h-2c0-.3,0-.5-.3-.7s-.5-.3-.9-.3-.6,0-.8,.2-.3,.3-.3,.6,.1,.4,.3,.5c.2,.1,.6,.2,1,.3,.5,0,.9,.2,1.2,.3,1,.4,1.6,1,1.6,2s-.3,1.2-.9,1.6-1.3,.6-2.2,.6-1.2-.1-1.7-.3c-.5-.2-.9-.5-1.1-.9-.3-.4-.4-.8-.4-1.2h1.9c0,.4,.1,.6,.4,.8,.2,.2,.6,.3,1,.3s.7,0,.9-.2,.3-.3,.3-.6Z" style="fill:#0a6ab0;"/><path d="M100.8,135.5v1.8h1.3v1.4h-1.3v3.7c0,.3,0,.5,.2,.6,.1,.1,.3,.2,.6,.2s.4,0,.6,0v1.5c-.4,.1-.8,.2-1.2,.2-1.4,0-2.1-.7-2.1-2.1v-4h-1.1v-1.4h1.1v-1.8h2Z" style="fill:#0a6ab0;"/><path d="M106.6,144.8c-1.1,0-2-.3-2.6-1-.7-.7-1-1.6-1-2.7v-.2c0-.7,.1-1.4,.4-2,.3-.6,.7-1,1.2-1.4,.5-.3,1.1-.5,1.8-.5,1,0,1.8,.3,2.4,1,.6,.6,.9,1.5,.9,2.7v.8h-4.7c0,.5,.3,.9,.6,1.2,.3,.3,.7,.4,1.2,.4,.8,0,1.4-.3,1.8-.8l1,1.1c-.3,.4-.7,.7-1.2,1-.5,.2-1.1,.4-1.7,.4Zm-.2-6.1c-.4,0-.7,.1-1,.4s-.4,.6-.5,1.1h2.7v-.2c0-.4-.1-.8-.4-1s-.6-.4-1-.4Z" style="fill:#0a6ab0;"/><path d="M112.6,137.3v.8c.6-.6,1.3-1,2.2-1s1.6,.4,2,1.1c.5-.8,1.3-1.1,2.2-1.1s1.4,.2,1.8,.7c.4,.5,.6,1.2,.6,2.1v4.7h-2v-4.7c0-.4,0-.7-.2-.9-.2-.2-.5-.3-.9-.3-.6,0-1,.3-1.2,.8v5.1h-2v-4.7c0-.4,0-.7-.3-.9s-.5-.3-.9-.3-1,.2-1.2,.7v5.2h-2v-7.4h1.9Z" style="fill:#0a6ab0;"/></g></g><g id="d"><g><line x1="60.5" y1="41.8" x2="60.5" y2="15.6" style="fill:none; stroke:#0a6ab0; stroke-linecap:round; stroke-linejoin:round; stroke-width:4px;"/><line x1="60.5" y1="89.4" x2="60.5" y2="63.2" style="fill:none; stroke:#0a6ab0; stroke-linecap:round; stroke-linejoin:round; stroke-width:4px;"/><path d="M60.5,4c2.6,0,4.7,2.1,4.7,4.7s-2.1,4.7-4.7,4.7-4.7-2.1-4.7-4.7,2.1-4.7,4.7-4.7m0-4c-4.8,0-8.7,3.9-8.7,8.7s3.9,8.7,8.7,8.7,8.7-3.9,8.7-8.7S65.3,0,60.5,0h0Z" style="fill:#0a6ab0;"/><path d="M60.5,91.6c2.6,0,4.7,2.1,4.7,4.7s-2.1,4.7-4.7,4.7-4.7-2.1-4.7-4.7,2.1-4.7,4.7-4.7m0-4c-4.8,0-8.7,3.9-8.7,8.7s3.9,8.7,8.7,8.7,8.7-3.9,8.7-8.7-3.9-8.7-8.7-8.7h0Z" style="fill:#0a6ab0;"/><g><line x1="49.9" y1="52.5" x2="23.6" y2="52.5" style="fill:none; stroke:#0a6ab0; stroke-linecap:round; stroke-linejoin:round; stroke-width:4px;"/><line x1="97.5" y1="52.5" x2="71.2" y2="52.5" style="fill:none; stroke:#0a6ab0; stroke-linecap:round; stroke-linejoin:round; stroke-width:4px;"/></g><g><line x1="53" y1="44.9" x2="40.5" y2="32.5" style="fill:none; stroke:#0a6ab0; stroke-linecap:round; stroke-linejoin:round; stroke-width:2px;"/><line x1="80.6" y1="72.5" x2="68.1" y2="60" style="fill:none; stroke:#0a6ab0; stroke-linecap:round; stroke-linejoin:round; stroke-width:2px;"/><circle cx="37.9" cy="29.8" r="3.7" style="fill:none; stroke:#0a6ab0; stroke-linecap:round; stroke-linejoin:round; stroke-width:2px;"/><circle cx="83.2" cy="75.2" r="3.7" style="fill:none; stroke:#0a6ab0; stroke-linecap:round; stroke-linejoin:round; stroke-width:2px;"/></g><g><line x1="53" y1="60.1" x2="40.5" y2="72.5" style="fill:none; stroke:#0a6ab0; stroke-linecap:round; stroke-linejoin:round; stroke-width:2px;"/><line x1="80.6" y1="32.5" x2="68.1" y2="44.9" style="fill:none; stroke:#0a6ab0; stroke-linecap:round; stroke-linejoin:round; stroke-width:2px;"/><circle cx="37.9" cy="75.2" r="3.7" style="fill:none; stroke:#0a6ab0; stroke-linecap:round; stroke-linejoin:round; stroke-width:2px;"/><circle cx="83.2" cy="29.8" r="3.7" style="fill:none; stroke:#0a6ab0; stroke-linecap:round; stroke-linejoin:round; stroke-width:2px;"/></g><circle cx="60.5" cy="52.5" r="10.7" style="fill:none; stroke:#0a6ab0; stroke-linecap:round; stroke-linejoin:round; stroke-width:4px;"/><path d="M16.7,47.8c2.6,0,4.7,2.1,4.7,4.7s-2.1,4.7-4.7,4.7-4.7-2.1-4.7-4.7,2.1-4.7,4.7-4.7m0-4c-4.8,0-8.7,3.9-8.7,8.7s3.9,8.7,8.7,8.7,8.7-3.9,8.7-8.7-3.9-8.7-8.7-8.7h0Z" style="fill:#0a6ab0;"/><path d="M104.4,47.8c2.6,0,4.7,2.1,4.7,4.7s-2.1,4.7-4.7,4.7-4.7-2.1-4.7-4.7,2.1-4.7,4.7-4.7m0-4c-4.8,0-8.7,3.9-8.7,8.7s3.9,8.7,8.7,8.7,8.7-3.9,8.7-8.7-3.9-8.7-8.7-8.7h0Z" style="fill:#0a6ab0;"/></g></g></g></svg>