<?xml version="1.0" encoding="UTF-8"?><svg xmlns="http://www.w3.org/2000/svg" viewBox="0 0 104 145.2"><g id="a"/><g id="b"><g id="c"><g><path d="M23.9,141.5c0-.7,0-1.4,.4-2s.7-1,1.2-1.4c.5-.3,1.1-.5,1.8-.5,1,0,1.8,.2,2.5,.8,.7,.6,1,1.4,1.1,2.4v.5c0,1.1-.2,2.1-.8,2.8-.6,.7-1.4,1.1-2.5,1.1-1.1,0-1.9-.3-2.6-.9-.7-.7-1-1.6-1.1-2.8h0Zm2,0c0,.7,.2,1.2,.5,1.6,.3,.4,.7,.5,1.2,.5,.5,0,.8-.2,1.1-.6s.4-1,.3-1.8c0-.7-.2-1.2-.5-1.6-.3-.4-.7-.5-1.2-.5-.5,0-.8,.2-1.1,.6-.3,.4-.4,1-.3,1.8Z" style="fill:#0a6ab0;"/><path d="M34.9,142.4l1.2-5h2.1l-2.2,7.4h-1.9l-2.8-7.2h2.1l1.6,4.9Z" style="fill:#0a6ab0;"/><path d="M42.7,144.7c-1.1,0-2-.3-2.7-.9-.7-.6-1.1-1.5-1.1-2.6v-.2c0-.7,0-1.4,.4-2,.3-.6,.7-1.1,1.2-1.4s1.1-.5,1.8-.5c1,0,1.8,.3,2.4,.9,.6,.6,.9,1.5,1,2.7v.8l-4.7,.2c0,.5,.3,.9,.6,1.1,.3,.3,.7,.4,1.2,.4,.8,0,1.3-.3,1.8-.9l1,1.1c-.3,.4-.7,.8-1.2,1-.5,.3-1.1,.4-1.7,.4Zm-.4-6.1c-.4,0-.7,.2-.9,.4-.2,.3-.4,.7-.4,1.2h2.7v-.3c0-.4-.2-.8-.4-1-.2-.2-.6-.3-1-.3Z" style="fill:#0a6ab0;"/><path d="M50.9,138.7c-.3,0-.5,0-.7,0-.7,0-1.2,.3-1.4,.8l.2,4.8h-2l-.3-7.3h1.9v.8c.5-.7,1-1.1,1.7-1.1,.2,0,.4,0,.6,0v1.9Z" style="fill:#0a6ab0;"/><path d="M55.9,142c0-.2-.1-.4-.4-.6-.2-.1-.6-.2-1.2-.3-1.8-.3-2.7-1-2.7-2.1,0-.7,.2-1.2,.8-1.7,.5-.5,1.2-.7,2.1-.7,.9,0,1.7,.2,2.3,.6,.6,.4,.9,1,.9,1.7h-2c0-.2-.1-.4-.3-.6-.2-.2-.5-.3-.9-.2-.3,0-.6,0-.8,.3-.2,.2-.3,.4-.3,.6,0,.2,.1,.4,.3,.5,.2,.1,.6,.2,1.1,.3,.5,0,.9,.2,1.3,.3,1.1,.3,1.6,1,1.6,1.9,0,.7-.2,1.2-.8,1.7-.6,.4-1.3,.7-2.2,.7-.6,0-1.2,0-1.7-.3-.5-.2-.9-.5-1.2-.9s-.4-.8-.5-1.2h1.9c0,.3,.2,.5,.4,.7,.2,.2,.6,.3,1,.2,.4,0,.7,0,.8-.2,.2-.2,.3-.3,.3-.6Z" style="fill:#0a6ab0;"/><path d="M62.6,144c-1.1,0-2-.3-2.7-.9-.7-.6-1.1-1.5-1.1-2.6v-.2c0-.7,0-1.4,.4-2,.3-.6,.7-1.1,1.2-1.4,.5-.3,1.1-.5,1.8-.5,1,0,1.8,.3,2.4,.9,.6,.6,.9,1.5,1,2.7v.8l-4.7,.2c0,.5,.3,.9,.6,1.1,.3,.3,.7,.4,1.2,.4,.8,0,1.3-.3,1.8-.9l1,1.1c-.3,.4-.7,.8-1.2,1s-1.1,.4-1.7,.4Zm-.4-6.1c-.4,0-.7,.2-.9,.4-.2,.3-.4,.7-.4,1.2h2.7v-.3c0-.4-.2-.8-.4-1s-.6-.3-1-.3Z" style="fill:#0a6ab0;"/><path d="M71,143.5c0-.2-.2-.4-.2-.7-.5,.5-1.1,.8-1.8,.9-.7,0-1.3-.2-1.8-.6-.5-.4-.7-.9-.8-1.6,0-.8,.2-1.4,.8-1.8,.6-.4,1.4-.7,2.5-.7h.9v-.5c0-.3-.1-.6-.3-.8-.2-.2-.5-.3-.8-.3-.3,0-.6,.1-.8,.3-.2,.2-.3,.4-.3,.7h-2c0-.4,.1-.8,.4-1.1,.3-.4,.6-.7,1.1-.9,.5-.2,1-.3,1.6-.4,.9,0,1.6,.2,2.2,.6,.6,.4,.8,1.1,.9,1.9v3.2c.1,.7,.3,1.2,.5,1.6h0l-2,.2Zm-1.7-1.3c.3,0,.6,0,.8-.2,.2-.1,.4-.3,.5-.5v-1.3h-.8c-1,0-1.5,.4-1.5,1.1h0c0,.4,.1,.6,.3,.7s.4,.2,.7,.2Z" style="fill:#0a6ab0;"/><path d="M78.2,141.2c0-.2-.1-.4-.4-.6s-.6-.2-1.2-.3c-1.8-.3-2.7-1-2.7-2.1,0-.7,.2-1.2,.8-1.7,.5-.5,1.2-.7,2.1-.7,.9,0,1.7,.2,2.3,.6,.6,.4,.9,1,.9,1.7h-2c0-.2-.1-.4-.3-.6s-.5-.3-.9-.2c-.3,0-.6,0-.8,.3-.2,.2-.3,.4-.3,.6,0,.2,.1,.4,.3,.5,.2,.1,.6,.2,1.1,.3s.9,.2,1.3,.3c1.1,.3,1.6,1,1.6,1.9,0,.7-.2,1.2-.8,1.7-.6,.4-1.3,.7-2.2,.7-.6,0-1.2,0-1.7-.3-.5-.2-.9-.5-1.2-.9s-.4-.8-.5-1.2h1.9c0,.3,.2,.5,.4,.7,.2,.2,.6,.3,1,.2,.4,0,.7,0,.8-.2,.2-.2,.3-.3,.3-.6Z" style="fill:#0a6ab0;"/></g></g><g id="d"><g><circle cx="52" cy="52" r="50" style="fill:none; stroke:#0a6ab0; stroke-linecap:round; stroke-linejoin:round; stroke-width:4px;"/><path d="M93.4,23.9c-10.5,4.3-25.1,7-41.4,7s-30.9-2.7-41.4-7" style="fill:none; stroke:#0a6ab0; stroke-linecap:round; stroke-linejoin:round; stroke-width:2px;"/><path d="M10.6,80.1c10.5-4.3,25.1-7,41.4-7s30.9,2.7,41.4,7" style="fill:none; stroke:#0a6ab0; stroke-linecap:round; stroke-linejoin:round; stroke-width:2px;"/><ellipse cx="52" cy="52" rx="27.3" ry="50" style="fill:none; stroke:#0a6ab0; stroke-linecap:round; stroke-linejoin:round; stroke-width:2px;"/><line x1="52" y1="2" x2="52" y2="102" style="fill:none; stroke:#0a6ab0; stroke-linecap:round; stroke-linejoin:round; stroke-width:2px;"/><line x1="2" y1="52" x2="102" y2="52" style="fill:none; stroke:#0a6ab0; stroke-linecap:round; stroke-linejoin:round; stroke-width:2px;"/></g></g></g></svg>