<svg id="レイヤー_1" data-name="レイヤー 1" xmlns="http://www.w3.org/2000/svg" viewBox="0 0 57.5 57.5"><path d="M29.4.9A28.8,28.8,0,1,0,58.1,29.6,28.8,28.8,0,0,0,29.4.9m0,54.1A25.4,25.4,0,1,1,54.7,29.6,25.4,25.4,0,0,1,29.4,55" transform="translate(-0.6 -0.9)" style="fill:#fff"/><rect x="20.5" y="26.7" width="16.6" height="4.05" style="fill:#fff"/><rect x="20.5" y="20.2" width="16.6" height="4.06" style="fill:#fff"/><path d="M54.5,26.7l-2.6-2.6-3,2.8L32.1,10.1,35,7.2,32.3,4.5l-2.9,3-2.9-3L23.8,7.2l2.9,2.9L9.9,26.9l-3-2.8L4.3,26.7l2.9,2.9-2.9,3,2.6,2.6,3-2.8L26.7,49.2l-2.9,2.9,2.7,2.7,2.9-3,2.9,3L35,52.1l-2.9-2.9L48.9,32.4l3,2.8,2.6-2.6-2.9-3ZM29.4,46.5l-8.3-8.3H37.7Zm8.3-8.3V34.1H21.1v4.1l-8.5-8.6,8.5-8.5,8.3-8.2L46.2,29.6Z" transform="translate(-0.6 -0.9)" style="fill:#fff"/></svg>